<svg width="191px" height="94px" viewBox="0 0 191 94" version="1.1" xmlns="http://www.w3.org/2000/svg" xmlns:xlink="http://www.w3.org/1999/xlink">
	<g id="Startpage" stroke="none" stroke-width="1" fill="none" fill-rule="evenodd">
		<g id="MacBook-Air-13&quot;-M2" transform="translate(-40.000000, -33.000000)">
			<g id="logo.79f01641" transform="translate(40.000000, 35.000000)">
				<g id="Group" transform="translate(0.000000, 26.000000)" fill="#1D1D1B" fill-rule="nonzero">
					<path d="M9.95811644,26.9783942 C8.52310403,26.9783942 7.20405221,26.7911443 5.97921839,26.4166444 C4.7616321,26.0421446 3.65275887,25.4731929 2.65984624,24.7097893 C1.66693361,23.9463857 0.782734043,23.0029341 0,21.8794345 L2.79030191,18.6961856 C4.02238328,20.4462523 5.20373188,21.656175 6.33434772,22.3259536 C7.46496356,23.0029341 8.80575799,23.3342225 10.3639785,23.3342225 C11.3206535,23.3342225 12.1831104,23.1829821 12.9658445,22.8877034 C13.741331,22.5852227 14.3573717,22.1747133 14.8139665,21.6489731 C15.2633138,21.1232329 15.495235,20.5254735 15.495235,19.8484929 C15.495235,19.4019739 15.4227597,18.9770605 15.2705614,18.573753 C15.1183631,18.1776474 14.8864419,17.8103494 14.5747978,17.486263 C14.2631537,17.1621766 13.8572916,16.8596959 13.3717066,16.5860229 C12.878874,16.31235 12.3063186,16.0674847 11.6540402,15.858629 C11.0017618,15.6497733 10.2480179,15.4625233 9.39280852,15.3184849 C8.03751902,15.0448119 6.85617042,14.6847159 5.84876271,14.2309949 C4.84135501,13.7844759 4.00064067,13.2227261 3.32661968,12.5457455 C2.6525987,11.868765 2.14527108,11.1053614 1.8191319,10.241131 C1.49299271,9.37690051 1.32629935,8.41184316 1.32629935,7.338757 C1.32629935,6.26567085 1.55822055,5.31501734 2.02206295,4.41477727 C2.48590534,3.51453721 3.13093617,2.73672979 3.94266037,2.07415311 C4.7616321,1.41157642 5.71830704,0.900240064 6.82718027,0.540144038 C7.9360535,0.180048013 9.12464964,0 10.4074638,0 C11.7627533,0 13.0093297,0.172846092 14.1399455,0.525740197 C15.2705614,0.878634302 16.2779691,1.38997066 17.1549211,2.08135503 C18.0318731,2.76553748 18.7638744,3.60816218 19.3436774,4.60922913 L16.4809001,7.41797813 C15.9808201,6.59695919 15.4155121,5.8983729 14.7849764,5.3366231 C14.1544406,4.7748733 13.4659246,4.34995999 12.7121807,4.06188317 C11.9584368,3.77380635 11.1539601,3.62976794 10.2987507,3.62976794 C9.32033315,3.62976794 8.46512373,3.78100827 7.73312245,4.07628701 C7.00112117,4.37156575 6.43581325,4.79647906 6.01545607,5.32942118 C5.60234644,5.86956522 5.39216785,6.4961323 5.39216785,7.22352627 C5.39216785,7.74926647 5.49363338,8.23179515 5.69656443,8.66391038 C5.89949548,9.10322753 6.20389205,9.48492931 6.61700168,9.82341958 C7.03011132,10.1619098 7.5881717,10.4571886 8.29118283,10.7236596 C8.99419396,10.9829288 9.8349083,11.2205922 10.8133259,11.415044 C12.1976055,11.7175247 13.4296869,12.0920245 14.50957,12.5601494 C15.589453,13.0210723 16.5098903,13.5684182 17.2636342,14.1877834 C18.0173781,14.8143505 18.5899335,15.5129368 18.9813006,16.2835423 C19.3726676,17.0541478 19.5683511,17.8967725 19.5683511,18.7898106 C19.5683511,20.4606562 19.1769841,21.9082422 18.4014976,23.1325687 C17.6187635,24.3568952 16.5171378,25.3003468 15.0821254,25.9629234 C13.647113,26.6255001 11.9439417,26.9567885 9.95811644,26.9567885 L9.95811644,26.9783942 Z" id="Path">
					</path>
					<path d="M35.3172499,26.9783942 C33.483623,26.9783942 31.8021943,26.6543078 30.2657163,26.006135 C28.7292384,25.3579621 27.4029391,24.4289144 26.2723232,23.2189917 C25.1417074,22.0090691 24.2647553,20.5758869 23.6559622,18.933849 C23.0399215,17.2846092 22.7355249,15.4769272 22.7355249,13.503601 C22.7355249,11.5302747 23.0689117,9.88823686 23.7356851,8.28220859 C24.4024586,6.66897839 25.3228958,5.25740197 26.5042444,4.03307549 C27.685593,2.808749 29.0553776,1.85809549 30.6135981,1.18831688 C32.1718187,0.518538277 33.8532474,0.180048013 35.6651317,0.180048013 C36.9479459,0.180048013 38.1945223,0.374499867 39.4121086,0.763403574 C40.6296949,1.15230728 41.7385681,1.6852494 42.7314807,2.37663377 C43.7243934,3.06081622 44.5361176,3.84582555 45.1594058,4.71725794 L42.4488268,7.52600694 C41.7168255,6.80581488 40.9848242,6.19365164 40.2455754,5.71112297 C39.5063266,5.22139237 38.7525827,4.85409443 37.9843437,4.60922913 C37.2161047,4.35716191 36.4478658,4.23472926 35.6651317,4.23472926 C34.4330504,4.23472926 33.2806919,4.46519072 32.2153039,4.92611363 C31.1499159,5.38703654 30.2149836,6.02800747 29.425002,6.85622833 C28.6350204,7.68444919 28.0117322,8.65670846 27.5623849,9.7946119 C27.1130376,10.9325153 26.8811164,12.1712457 26.8811164,13.5180048 C26.8811164,14.9439851 27.0985425,16.2331288 27.5406423,17.392638 C27.9827421,18.5521472 28.5987827,19.5460123 29.4032594,20.3670312 C30.207736,21.1880501 31.164411,21.8218192 32.2877793,22.2611363 C33.4039001,22.7004535 34.643229,22.9165111 35.9985185,22.9165111 C36.8247377,22.9165111 37.6437095,22.8012803 38.4481861,22.5780208 C39.2526628,22.3547613 40.0064067,22.0306748 40.7094178,21.6057615 C41.4124289,21.1808482 42.0502122,20.6839157 42.6300152,20.1077621 L44.6665732,23.4062417 C44.0867702,24.0832222 43.3040362,24.6953854 42.3111236,25.2427314 C41.3182109,25.7900774 40.2165852,26.2221926 38.9917514,26.5318752 C37.7741651,26.8415577 36.5493313,27 35.3172499,27 L35.3172499,26.9783942 Z" id="Path">
					</path>
					<polygon id="Path" points="48.5077681 26.6038944 48.5077681 22.8588957 52.7693201 22.8588957 52.7693201 4.13390237 48.5077681 4.13390237 48.5077681 0.388903708 61.0967406 0.388903708 61.0967406 4.13390237 56.8351886 4.13390237 56.8351886 22.8588957 61.0967406 22.8588957 61.0967406 26.6038944">
					</polygon>
					<path d="M102.820814,26.9783942 C100.914711,26.9783942 99.1245696,26.6327021 97.472131,25.9485196 C95.8124449,25.2643372 94.3556899,24.3064817 93.1018659,23.0821552 C91.848042,21.8578288 90.8696244,20.4318485 90.1811084,18.7970125 C89.4925923,17.1621766 89.1447105,15.3977061 89.1447105,13.496399 C89.1447105,11.595092 89.4925923,9.87383302 90.1811084,8.25340091 C90.8696244,6.63296879 91.8407944,5.21419045 93.0801233,4.0042678 C94.3266998,2.79434516 95.7762073,1.85089357 97.4358933,1.17391304 C99.0955794,0.496932515 100.878474,0.165644172 102.784576,0.165644172 C104.118123,0.165644172 105.415432,0.352894105 106.683751,0.727393972 C107.95207,1.10189384 109.104429,1.62763404 110.133579,2.29741264 C111.162729,2.97439317 112.003444,3.74499867 112.655722,4.61643105 L110.017618,7.35316084 C109.263874,6.63296879 108.488388,6.02800747 107.698406,5.55268071 C106.908425,5.07735396 106.096701,4.71725794 105.270481,4.46519072 C104.444262,4.2131235 103.610795,4.09069085 102.784576,4.09069085 C101.429286,4.09069085 100.175462,4.32835423 99.0375991,4.80368098 C97.8924882,5.27900774 96.892328,5.94158442 96.0226235,6.79141104 C95.152919,7.64123766 94.4861456,8.63510269 94.0078081,9.76580421 C93.5294706,10.9037077 93.2903019,12.142438 93.2903019,13.4891971 C93.2903019,14.8359563 93.5439657,16.0170712 94.0440458,17.1765804 C94.5441259,18.3360896 95.247137,19.3515604 96.1385841,20.2301947 C97.0300312,21.1016271 98.0591815,21.7930115 99.2260351,22.289944 C100.392889,22.7868765 101.632218,23.0389437 102.936774,23.0389437 C103.915192,23.0389437 104.842877,22.8949053 105.727076,22.6068285 C106.604028,22.3187517 107.386762,21.9154441 108.060783,21.3897039 C108.734804,20.8639637 109.263874,20.2590024 109.640746,19.57482 C110.017618,18.8906375 110.206054,18.1560416 110.206054,17.3854361 L110.206054,16.6364364 L110.771362,17.1621766 L102.704853,17.1621766 L102.704853,13.1579088 L114.387883,13.1579088 C114.438616,13.4315818 114.474854,13.6980528 114.503844,13.9645239 C114.532834,14.223793 114.547329,14.4758602 114.561824,14.7135236 C114.576319,14.951187 114.583567,15.1816484 114.583567,15.404908 C114.583567,17.126167 114.27917,18.6961856 113.677625,20.1077621 C113.076079,21.5193385 112.235365,22.7364631 111.169977,23.7591358 C110.104589,24.7818085 108.858012,25.5740197 107.437495,26.1357695 C106.016978,26.6975193 104.4805,26.9783942 102.820814,26.9783942 L102.820814,26.9783942 Z" id="Path">
					</path>
					<path d="M116.424441,26.6038944 L126.636222,0.388903708 L130.781813,0.388903708 L140.921118,26.6038944 L136.587091,26.6038944 L130.557139,10.8028808 C130.484664,10.6300347 130.339713,10.2051214 130.122287,9.52814084 C129.912109,8.85116031 129.665692,8.10216058 129.390286,7.28114164 C129.114879,6.4601227 128.861216,5.70392105 128.636542,5.01253668 C128.411868,4.32835423 128.25967,3.88183516 128.187195,3.68018138 L129.056899,3.64417178 C128.904701,4.06908509 128.723512,4.60202721 128.513334,5.25740197 C128.303155,5.90557482 128.071234,6.58975727 127.832065,7.31715124 C127.592897,8.04454521 127.360975,8.72152574 127.136302,9.35529475 C126.911628,9.98906375 126.723192,10.5220059 126.570994,10.9469192 L120.57728,26.6038944 L116.431689,26.6038944 L116.424441,26.6038944 Z M120.946905,20.0861563 L122.454393,16.1899173 L134.441819,16.1899173 L136.173981,20.0861563 L120.946905,20.0861563 Z" id="Shape">
					</path>
					<polygon id="Path" points="148.400577 26.6038944 148.400577 4.2851427 141.015336 4.2851427 141.015336 0.388903708 160.083607 0.388903708 160.083607 4.2851427 152.473693 4.2851427 152.473693 26.6038944">
					</polygon>
					<path d="M164.381397,26.6038944 L164.381397,0.388903708 L181,0.388903708 L181,4.2851427 L168.447265,4.2851427 L168.447265,22.7076554 L181,22.7076554 L181,26.6038944 L164.381397,26.6038944 Z M166.229519,15.1096292 L166.229519,11.2133902 L178.927204,11.2133902 L178.927204,15.1096292 L166.229519,15.1096292 L166.229519,15.1096292 Z" id="Shape">
					</path>
				</g>
				<line x1="88" y1="14.5" x2="106" y2="14.5" id="Path" stroke="#000000" stroke-width="3" fill="#1D1D1B" fill-rule="nonzero">
				</line>
				<line x1="88" y1="63.5" x2="187" y2="63.5" id="Path" stroke="#000000" stroke-width="3" fill="#1D1D1B" fill-rule="nonzero">
				</line>
				<path d="M81,29 L81,21.2247024 C81,17.2366071 84.1359423,14 88,14" id="Path" stroke="#000000" stroke-width="3">
				</path>
				<path d="M71,39 C76.5255682,39 81,34.5255682 81,29" id="Path" stroke="#000000" stroke-width="3">
				</path>
				<path d="M71,39 C76.5255682,39 81,43.4744318 81,49" id="Path" stroke="#000000" stroke-width="3">
				</path>
				<line x1="88" y1="2.5" x2="134" y2="2.5" id="Path" stroke="#000000" stroke-width="3" fill="#1D1D1B" fill-rule="nonzero">
				</line>
				<path d="M81,28 L81,8.94525447 C81,5.11141678 84.1359423,2 88,2" id="Path" stroke="#000000" stroke-width="3">
				</path>
				<path d="M81,49 L81,56.8742661 C81,60.8077299 84.1359423,64 88,64" id="Path" stroke="#000000" stroke-width="3">
				</path>
				<line x1="62" y1="38.5" x2="71" y2="38.5" id="Path" stroke="#000000" stroke-width="3">
				</line>
				<circle id="Oval" stroke="#000000" stroke-width="3" fill="#1D1D1B" fill-rule="nonzero" cx="106" cy="14" r="2">
				</circle>
				<circle id="Oval" stroke="#000000" stroke-width="3" fill="#1D1D1B" fill-rule="nonzero" cx="135" cy="2" r="2">
				</circle>
				<line x1="88" y1="75.5" x2="155" y2="75.5" id="Path" stroke="#000000" stroke-width="3" fill="#1D1D1B" fill-rule="nonzero">
				</line>
				<path d="M81,59 L81,69.13067 C81,72.9225968 84.1359423,76 88,76" id="Path" stroke="#000000" stroke-width="3">
				</path>
				<line x1="88" y1="87.5" x2="124" y2="87.5" id="Path" stroke="#000000" stroke-width="3" fill="#1D1D1B" fill-rule="nonzero">
				</line>
				<path d="M81,65 L81,81.0985785 C81,84.90822 84.1359423,88 88,88" id="Path" stroke="#000000" stroke-width="3">
				</path>
				<circle id="Oval" stroke="#000000" stroke-width="3" fill="#1D1D1B" fill-rule="nonzero" cx="155" cy="76" r="2">
				</circle>
				<circle id="Oval" stroke="#000000" stroke-width="3" fill="#1D1D1B" fill-rule="nonzero" cx="125" cy="88" r="2">
				</circle>
				<circle id="Oval" stroke="#000000" stroke-width="3" fill="#1D1D1B" fill-rule="nonzero" cx="187" cy="64" r="2">
				</circle>
			</g>
		</g>
	</g>
</svg>
