<svg width="83px" height="63px" viewBox="0 0 83 63" version="1.1" xmlns="http://www.w3.org/2000/svg" xmlns:xlink="http://www.w3.org/1999/xlink">
	<g id="Startpage" stroke="none" stroke-width="1" fill="none" fill-rule="evenodd">
		<g id="Artboard" transform="translate(-1157.000000, -444.000000)">
			<g id="Group-5" transform="translate(132.000000, 284.000000)">
				<g id="BORIS" transform="translate(927.000000, 153.000000)">
					<g id="Logo_Universität_Bern" transform="translate(99.000000, 7.000000)">
						<g id="g8" transform="translate(0.000000, 11.227723)" fill="#161413" fill-rule="nonzero">
							<path d="M10.4124066,12.4655849 C8.7421814,14.5768257 6.75875557,16.2178218 4.04072906,16.2178218 C2.21261191,16.2178218 0.581536784,15.5931135 0.581536784,13.4022218 C0.581536784,12.8566716 0.815546469,11.6050599 1.08652381,10.3538514 C1.08652381,10.3538514 3.06732182,1.1321802 3.06732182,1.1321802 C3.06732182,1.1321802 0,1.1321802 0,1.1321802 C0,1.1321802 0.270977337,0.156613857 0.270977337,0.156613857 C0.270977337,0.156613857 3.84631485,0.156613857 3.84631485,0.156613857 C5.05116186,0.156613857 6.21640004,0 7.41860588,0 C7.41860588,0 5.05116186,10.1211257 5.05116186,10.1211257 C4.73796123,11.5285001 4.4669839,12.8566716 4.4669839,13.3650395 C4.4669839,14.3808344 5.36169013,14.6140529 6.1372091,14.6140529 C6.79790565,14.6140529 7.61391088,14.106133 8.15800344,13.753931 C9.90741958,12.6208549 10.722534,10.4728349 11.1883264,8.51731198 C11.1883264,8.51731198 13.1700152,0.156613857 13.1700152,0.156613857 C13.1700152,0.156613857 17.2103123,0.156613857 17.2103123,0.156613857 C17.2103123,0.156613857 14.6084132,11.6050599 14.6084132,11.6050599 C14.3352534,12.7774687 14.1795439,13.676968 14.2190948,13.9495191 C14.2591357,14.3415018 14.6484095,14.5768257 14.9946138,14.5768257 C16.3951978,14.5768257 18.1045731,11.3325088 18.609961,10.1976855 C18.609961,10.1976855 19.4651163,10.6688262 19.4651163,10.6688262 C18.4551422,13.2853886 16.3190801,16.2178218 13.3239877,16.2178218 C10.9939122,16.2178218 10.3732565,14.7334844 10.4124066,12.4655849" id="path10">
							</path>
						</g>
						<g id="g12" transform="translate(20.720930, 0.000000)" fill="#161413" fill-rule="nonzero">
							<path d="M0,10.4974567 C0,10.4974567 1.42373751,0 1.42373751,0 C1.42373751,0 2.75011412,0 2.75011412,0 C2.75011412,0 2.17043028,4.06758252 2.17043028,4.06758252 C2.17043028,4.06758252 2.19901204,4.09610215 2.19901204,4.09610215 C2.76442786,3.53287384 3.2221476,3.33633942 3.86571739,3.33633942 C5.29924129,3.33633942 6.27906977,4.61661947 6.27906977,6.45834819 C6.27906977,8.28848653 5.27065953,10.6039604 1.81720546,10.6039604 C1.16247736,10.6039604 0.397949566,10.5580552 0,10.4974567 Z M2.00250673,5.33138963 C2.00250673,5.33138963 1.40590249,9.53714402 1.40590249,9.53714402 C1.40590249,9.53714402 2.12442508,9.53714402 2.12442508,9.53714402 C3.92690522,9.53714402 4.94866885,8.27424954 4.94866885,6.42982857 C4.94866885,5.18030408 4.38462496,4.46375429 3.46913974,4.46375429 C3.03995603,4.46375429 2.09227632,4.75296607 2.00250673,5.33138963" id="path14">
							</path>
						</g>
						<g id="g16" transform="translate(0.000000, 43.039604)" stroke="#161413" stroke-width="1.79931998">
							<line x1="0" y1="0.5" x2="81" y2="0.5" id="path18">
							</line>
						</g>
						<g id="g20" transform="translate(0.627907, 46.782178)" fill="#161413" fill-rule="nonzero">
							<path d="M0,3.70343997 C0,3.70343997 0.425988821,0 0.425988821,0 C0.425988821,0 0.825336795,0 0.825336795,0 C0.825336795,0 0.650324226,1.43556024 0.650324226,1.43556024 C0.650324226,1.43556024 0.660669395,1.44749142 0.660669395,1.44749142 C0.828106368,1.24847925 0.967318135,1.17832388 1.15784846,1.17832388 C1.58937235,1.17832388 1.88372093,1.62884544 1.88372093,2.27837918 C1.88372093,2.92695842 1.58143019,3.74257426 0.544510249,3.74257426 C0.34803349,3.74257426 0.11813043,3.72348436 0,3.70343997 Z M0.597824528,1.88369556 C0.597824528,1.88369556 0.420001656,3.36507155 0.420001656,3.36507155 C0.420001656,3.36507155 0.637168754,3.36507155 0.637168754,3.36507155 C1.17690964,3.36507155 1.48636868,2.92027696 1.48636868,2.26978872 C1.48636868,1.82928936 1.31534755,1.57539373 1.0392863,1.57539373 C0.910826994,1.57539373 0.626864314,1.67609293 0.597824528,1.88369556" id="path22">
							</path>
						</g>
						<g id="g24" transform="translate(0.627907, 53.019802)" fill="#E3003A" fill-rule="nonzero">
							<path d="M0,2.28099658 C0,2.28099658 0,0 0,0 C0,0 0.954891631,0 0.954891631,0 C0.954891631,0 0.954891631,2.11823529 0.954891631,2.11823529 C0.954891631,2.60418064 1.08254814,3.01342239 1.56953745,3.01342239 C2.05789305,3.01342239 2.18372784,2.60418064 2.18372784,2.11823529 C2.18372784,2.11823529 2.18372784,0 2.18372784,0 C2.18372784,0 3.13953488,0 3.13953488,0 C3.13953488,0 3.13953488,2.28099658 3.13953488,2.28099658 C3.13953488,3.28843284 2.50485023,3.74257426 1.56953745,3.74257426 C0.634680104,3.74257426 0,3.28843284 0,2.28099658" id="path26">
							</path>
						</g>
						<g id="g28" transform="translate(5.023256, 53.019802)" fill="#E3003A" fill-rule="nonzero">
							<path d="M2.00984211,3.74257426 C2.00984211,3.74257426 0.816581073,1.18532306 0.816581073,1.18532306 C0.816581073,1.18532306 0.808944203,1.18532306 0.808944203,1.18532306 C0.808944203,1.18532306 0.836497685,3.74257426 0.836497685,3.74257426 C0.836497685,3.74257426 0,3.74257426 0,3.74257426 C0,3.74257426 0,0 0,0 C0,0 1.16024025,0 1.16024025,0 C1.16024025,0 2.31197581,2.5429702 2.31197581,2.5429702 C2.31197581,2.5429702 2.32338772,2.5429702 2.32338772,2.5429702 C2.32338772,2.5429702 2.30941572,0 2.30941572,0 C2.30941572,0 3.13953488,0 3.13953488,0 C3.13953488,0 3.13953488,3.74257426 3.13953488,3.74257426 C3.13953488,3.74257426 2.00984211,3.74257426 2.00984211,3.74257426" id="path30">
							</path>
						</g>
						<g id="g32" transform="translate(9.418605, 53.019802)" fill="#E3003A" fill-rule="nonzero">
							<path d="M0,3.74257426 C0,3.74257426 0,0 0,0 C0,0 1,0 1,0 C1,0 1,3.74257426 1,3.74257426 C1,3.74257426 0,3.74257426 0,3.74257426" id="path34">
							</path>
						</g>
						<g id="g36" transform="translate(11.302326, 53.019802)" fill="#E3003A" fill-rule="nonzero">
							<path d="M1.25598867,3.74257426 C1.25598867,3.74257426 0,0 0,0 C0,0 1.06285862,0 1.06285862,0 C1.06285862,0 1.89256022,2.93664978 1.89256022,2.93664978 C1.89256022,2.93664978 1.90466361,2.93664978 1.90466361,2.93664978 C1.90466361,2.93664978 2.74132227,0 2.74132227,0 C2.74132227,0 3.76744186,0 3.76744186,0 C3.76744186,0 2.49053434,3.74257426 2.49053434,3.74257426 C2.49053434,3.74257426 1.25598867,3.74257426 1.25598867,3.74257426" id="path38">
							</path>
						</g>
						<g id="g40" transform="translate(15.697674, 53.019802)" fill="#E3003A" fill-rule="nonzero">
							<path d="M0,3.74257426 C0,3.74257426 0,0 0,0 C0,0 2.45493702,0 2.45493702,0 C2.45493702,0 2.45493702,0.708337636 2.45493702,0.708337636 C2.45493702,0.708337636 0.928180466,0.708337636 0.928180466,0.708337636 C0.928180466,0.708337636 0.928180466,1.48093978 0.928180466,1.48093978 C0.928180466,1.48093978 2.37105221,1.48093978 2.37105221,1.48093978 C2.37105221,1.48093978 2.37105221,2.18880138 2.37105221,2.18880138 C2.37105221,2.18880138 0.928180466,2.18880138 0.928180466,2.18880138 C0.928180466,2.18880138 0.928180466,3.03280852 0.928180466,3.03280852 C0.928180466,3.03280852 2.51162791,3.03280852 2.51162791,3.03280852 C2.51162791,3.03280852 2.51162791,3.74257426 2.51162791,3.74257426 C2.51162791,3.74257426 0,3.74257426 0,3.74257426" id="path42">
							</path>
						</g>
						<g id="g44" transform="translate(19.465116, 53.019802)" fill="#E3003A" fill-rule="nonzero">
							<path d="M2.10906622,3.74257426 C2.10906622,3.74257426 1.89390459,3.06708292 1.89390459,3.06708292 C1.69354093,2.42443789 1.56423593,2.26163448 1.19627219,2.26163448 C1.19627219,2.26163448 0.988958689,2.26163448 0.988958689,2.26163448 C0.988958689,2.26163448 0.988958689,3.74257426 0.988958689,3.74257426 C0.988958689,3.74257426 0,3.74257426 0,3.74257426 C0,3.74257426 0,0 0,0 C0,0 1.76833454,0 1.76833454,0 C2.42667901,0 2.96597779,0.301329115 2.96597779,0.943498115 C2.96597779,1.44095297 2.72911561,1.77608046 2.25033252,1.8879483 C2.25033252,1.8879483 2.25033252,1.89889706 2.25033252,1.89889706 C2.57026193,1.98458307 2.59153698,2.26734688 2.77710266,2.72291081 C2.77710266,2.72291081 3.13953488,3.74257426 3.13953488,3.74257426 C3.13953488,3.74257426 2.10906622,3.74257426 2.10906622,3.74257426 Z M0.988958689,1.55615305 C0.988958689,1.55615305 1.24983803,1.55615305 1.24983803,1.55615305 C1.57024022,1.55615305 1.97470248,1.54330015 1.97470248,1.12201062 C1.97470248,0.771174039 1.62981035,0.708337636 1.24983803,0.708337636 C1.24983803,0.708337636 0.988958689,0.708337636 0.988958689,0.708337636 C0.988958689,0.708337636 0.988958689,1.55615305 0.988958689,1.55615305" id="path46">
							</path>
						</g>
						<g id="g48" transform="translate(23.232558, 53.019802)" fill="#E3003A" fill-rule="nonzero">
							<path d="M0.0321647143,3.58389316 C0.0321647143,3.58389316 0.111549966,2.78680809 0.111549966,2.78680809 C0.341279595,2.92341182 0.663739409,3.02551966 1.03508788,3.02551966 C1.31952318,3.02551966 1.58727732,2.96434694 1.58727732,2.67366157 C1.58727732,1.99892193 0,2.42529115 0,1.10892793 C0,0.240091405 0.788634311,0 1.46281014,0 C1.78526996,0 2.1022977,0.0538135908 2.33035921,0.133844059 C2.33035921,0.133844059 2.27355769,0.880335152 2.27355769,0.880335152 C2.04006411,0.767188627 1.78022284,0.714294927 1.52504373,0.714294927 C1.30031846,0.714294927 0.923965635,0.735452407 0.923965635,1.05281461 C0.923965635,1.63878482 2.51162791,1.24461177 2.51162791,2.54947636 C2.51162791,3.48638477 1.78022284,3.74257426 1.03508788,3.74257426 C0.720540926,3.74257426 0.330415449,3.6901405 0.0321647143,3.58389316" id="path50">
							</path>
						</g>
						<g id="g52" transform="translate(27.627907, 53.019802)" fill="#E3003A" fill-rule="nonzero">
							<path d="M0,3.74257426 C0,3.74257426 0,0 0,0 C0,0 1,0 1,0 C1,0 1,3.74257426 1,3.74257426 C1,3.74257426 0,3.74257426 0,3.74257426" id="path54">
							</path>
						</g>
						<g id="g56" transform="translate(28.883721, 53.019802)" fill="#E3003A" fill-rule="nonzero">
							<path d="M0.816127584,3.74257426 C0.816127584,3.74257426 0.816127584,0.742612038 0.816127584,0.742612038 C0.816127584,0.742612038 0,0.742612038 0,0.742612038 C0,0.742612038 0,0 0,0 C0,0 2.51162791,0 2.51162791,0 C2.51162791,0 2.51162791,0.742612038 2.51162791,0.742612038 C2.51162791,0.742612038 1.69550032,0.742612038 1.69550032,0.742612038 C1.69550032,0.742612038 1.69550032,3.74257426 1.69550032,3.74257426 C1.69550032,3.74257426 0.816127584,3.74257426 0.816127584,3.74257426" id="path58">
							</path>
						</g>
						<g id="g60" transform="translate(32.023256, 51.772277)" fill="#E3003A" fill-rule="nonzero">
							<path d="M2.75819751,4.36633663 C2.75819751,4.36633663 2.50279259,3.62633193 2.50279259,3.62633193 C2.50279259,3.62633193 1.20641519,3.62633193 1.20641519,3.62633193 C1.20641519,3.62633193 0.933851634,4.36633663 0.933851634,4.36633663 C0.933851634,4.36633663 0,4.36633663 0,4.36633663 C0,4.36633663 1.3101131,0.897095743 1.3101131,0.897095743 C1.3101131,0.897095743 2.43547453,0.897095743 2.43547453,0.897095743 C2.43547453,0.897095743 3.76744186,4.36633663 3.76744186,4.36633663 C3.76744186,4.36633663 2.75819751,4.36633663 2.75819751,4.36633663 Z M1.41855047,2.97105049 C1.41855047,2.97105049 2.28293373,2.97105049 2.28293373,2.97105049 C2.28293373,2.97105049 1.87406645,1.61194823 1.87406645,1.61194823 C1.87406645,1.61194823 1.8629638,1.61194823 1.8629638,1.61194823 C1.8629638,1.61194823 1.41855047,2.97105049 1.41855047,2.97105049 Z M2.09651447,0.71573502 C2.09651447,0.71573502 2.09651447,0 2.09651447,0 C2.09651447,0 2.80835692,0 2.80835692,0 C2.80835692,0 2.80835692,0.71573502 2.80835692,0.71573502 C2.80835692,0.71573502 2.09651447,0.71573502 2.09651447,0.71573502 Z M0.968125042,0.71573502 C0.968125042,0.71573502 0.968125042,0 0.968125042,0 C0.968125042,0 1.68167897,0 1.68167897,0 C1.68167897,0 1.68167897,0.71573502 1.68167897,0.71573502 C1.68167897,0.71573502 0.968125042,0.71573502 0.968125042,0.71573502" id="path62">
							</path>
						</g>
						<g id="g64" transform="translate(36.418605, 53.019802)" fill="#E3003A" fill-rule="nonzero">
							<path d="M0.815458146,3.74257426 C0.815458146,3.74257426 0.815458146,0.742612038 0.815458146,0.742612038 C0.815458146,0.742612038 0,0.742612038 0,0.742612038 C0,0.742612038 0,0 0,0 C0,0 2.51162791,0 2.51162791,0 C2.51162791,0 2.51162791,0.742612038 2.51162791,0.742612038 C2.51162791,0.742612038 1.69659021,0.742612038 1.69659021,0.742612038 C1.69659021,0.742612038 1.69659021,3.74257426 1.69659021,3.74257426 C1.69659021,3.74257426 0.815458146,3.74257426 0.815458146,3.74257426" id="path66">
							</path>
						</g>
						<g id="g68" transform="translate(0.000000, 59.257426)" fill="#E3003A" fill-rule="nonzero">
							<path d="M0,3.74257426 C0,3.74257426 0,0 0,0 C0,0 1.78141647,0 1.78141647,0 C2.5025705,0 3.03943344,0.308391165 3.03943344,0.950872758 C3.03943344,1.42392958 2.79026362,1.68568134 2.35631008,1.82417181 C2.35631008,1.82417181 2.35631008,1.83416597 2.35631008,1.83416597 C2.87494589,1.93696302 3.13953488,2.20394982 3.13953488,2.65939788 C3.13953488,3.55601664 2.325521,3.74257426 1.63229882,3.74257426 C1.63229882,3.74257426 0,3.74257426 0,3.74257426 Z M1.03237985,3.03584451 C1.03237985,3.03584451 1.3359355,3.03584451 1.3359355,3.03584451 C1.71313862,3.03584451 2.10664763,2.98206642 2.10664763,2.6018125 C2.10664763,2.1953834 1.70397579,2.1568345 1.34751219,2.1568345 C1.34751219,2.1568345 1.03237985,2.1568345 1.03237985,2.1568345 C1.03237985,2.1568345 1.03237985,3.03584451 1.03237985,3.03584451 Z M1.03237985,1.48151496 C1.03237985,1.48151496 1.32007297,1.48151496 1.32007297,1.48151496 C1.65732418,1.48151496 2.00703881,1.40013396 2.00703881,1.08603185 C2.00703881,0.742423174 1.67560058,0.709109314 1.33209302,0.709109314 C1.33209302,0.709109314 1.03237985,0.709109314 1.03237985,0.709109314 C1.03237985,0.709109314 1.03237985,1.48151496 1.03237985,1.48151496" id="path70">
							</path>
						</g>
						<g id="g72" transform="translate(4.395349, 59.257426)" fill="#E3003A" fill-rule="nonzero">
							<path d="M0,3.74257426 C0,3.74257426 0,0 0,0 C0,0 2.45837111,0 2.45837111,0 C2.45837111,0 2.45837111,0.709109314 2.45837111,0.709109314 C2.45837111,0.709109314 0.929710288,0.709109314 0.929710288,0.709109314 C0.929710288,0.709109314 0.929710288,1.48151496 0.929710288,1.48151496 C0.929710288,1.48151496 2.37048187,1.48151496 2.37048187,1.48151496 C2.37048187,1.48151496 2.37048187,2.18967245 2.37048187,2.18967245 C2.37048187,2.18967245 0.929710288,2.18967245 0.929710288,2.18967245 C0.929710288,2.18967245 0.929710288,3.03584451 0.929710288,3.03584451 C0.929710288,3.03584451 2.51162791,3.03584451 2.51162791,3.03584451 C2.51162791,3.03584451 2.51162791,3.74257426 2.51162791,3.74257426 C2.51162791,3.74257426 0,3.74257426 0,3.74257426" id="path74">
							</path>
						</g>
						<g id="g76" transform="translate(8.162791, 59.257426)" fill="#E3003A" fill-rule="nonzero">
							<path d="M2.10667443,3.74257426 C2.10667443,3.74257426 1.89449072,3.06725472 1.89449072,3.06725472 C1.69062052,2.42477312 1.56237502,2.26391477 1.19705248,2.26391477 C1.19705248,2.26391477 0.988080805,2.26391477 0.988080805,2.26391477 C0.988080805,2.26391477 0.988080805,3.74257426 0.988080805,3.74257426 C0.988080805,3.74257426 0,3.74257426 0,3.74257426 C0,3.74257426 0,0 0,0 C0,0 1.76582009,0 1.76582009,0 C2.42358017,0 2.96282534,0.302204305 2.96282534,0.944685898 C2.96282534,1.44486972 2.7294327,1.7770565 2.25017713,1.88699223 C2.25017713,1.88699223 2.25017713,1.90031778 2.25017713,1.90031778 C2.56798035,1.98407834 2.58918927,2.26819798 2.77742438,2.72650152 C2.77742438,2.72650152 3.13953488,3.74257426 3.13953488,3.74257426 C3.13953488,3.74257426 2.10667443,3.74257426 2.10667443,3.74257426 Z M0.988080805,1.55718502 C0.988080805,1.55718502 1.24778385,1.55718502 1.24778385,1.55718502 C1.56837398,1.55718502 1.97247721,1.54719086 1.97247721,1.12172527 C1.97247721,0.772405648 1.62831635,0.709109314 1.24778385,0.709109314 C1.24778385,0.709109314 0.988080805,0.709109314 0.988080805,0.709109314 C0.988080805,0.709109314 0.988080805,1.55718502 0.988080805,1.55718502" id="path78">
							</path>
						</g>
						<g id="g80" transform="translate(11.930233, 59.257426)" fill="#E3003A" fill-rule="nonzero">
							<path d="M2.00876376,3.74257426 C2.00876376,3.74257426 0.813929359,1.18597343 0.813929359,1.18597343 C0.813929359,1.18597343 0.806719526,1.18597343 0.806719526,1.18597343 C0.806719526,1.18597343 0.83686184,3.74257426 0.83686184,3.74257426 C0.83686184,3.74257426 0,3.74257426 0,3.74257426 C0,3.74257426 0,0 0,0 C0,0 1.15791658,0 1.15791658,0 C1.15791658,0 2.31162019,2.54232346 2.31162019,2.54232346 C2.31162019,2.54232346 2.32308643,2.54232346 2.32308643,2.54232346 C2.32308643,2.54232346 2.30823243,0 2.30823243,0 C2.30823243,0 3.13953488,0 3.13953488,0 C3.13953488,0 3.13953488,3.74257426 3.13953488,3.74257426 C3.13953488,3.74257426 2.00876376,3.74257426 2.00876376,3.74257426" id="path82">
							</path>
						</g>
					</g>
				</g>
			</g>
		</g>
	</g>
</svg>
