<svg width="199px" height="49px" viewBox="0 0 199 49" version="1.1" xmlns="http://www.w3.org/2000/svg" xmlns:xlink="http://www.w3.org/1999/xlink">
	<g id="Startpage" stroke="none" stroke-width="1" fill="none" fill-rule="evenodd">
		<g id="Artboard" transform="translate(-481.000000, -604.000000)" fill-rule="nonzero">
			<g id="Group-5" transform="translate(132.000000, 284.000000)">
				<g id="Fedlex" transform="translate(309.000000, 304.000000)">
					<g id="Logo_der_Schweizerischen_Eidgenossenschaft" transform="translate(40.000000, 16.000000)">
						<path d="M38.0930439,9.02081701 C38.5145431,9.27317721 39.0077524,9.41830354 39.6761976,9.41830354 C40.5607026,9.41830354 41.2907039,8.99175601 41.2907039,8.03217579 C41.2907039,6.7034582 38,6.53875462 38,4.76467797 C38,3.67885385 39.0077524,3 40.2729478,3 C40.6222737,3 41.1876563,3.04853615 41.6815484,3.22272348 L41.5682926,3.8340283 C41.2498831,3.66876318 40.7454249,3.58171064 40.2622854,3.58171064 C39.5222955,3.58171064 38.7099638,3.87255887 38.7099638,4.74511774 C38.7099638,6.10283678 42,6.11229217 42,8.09022406 C42,9.45737012 40.7561655,10 39.6453384,10 C38.9461964,10 38.4015039,9.86434324 38.0208285,9.70915177 L38.0930439,9.02081701" id="path2943" fill="#000000">
						</path>
						<path d="M46.9465556,5.7488491 C46.584254,5.60870608 46.1469868,5.50568931 45.7839489,5.50568931 C44.4722096,5.50568931 43.7357975,6.3392235 43.7357975,7.5 C43.7357975,8.58640076 44.4826146,9.49488586 45.7090426,9.49488586 C46.1358892,9.49488586 46.530766,9.41018708 46.9361912,9.27918936 L47,9.83183495 C46.5411866,9.97196428 46.1142806,10 45.6028433,10 C43.8530537,10 43,8.82951946 43,7.5 C43,6.029724 44.0772455,5 45.6881297,5 C46.3384724,5 46.8077064,5.13100046 47,5.18705821 L46.9465556,5.7488491" id="path2945" fill="#000000">
						</path>
						<path d="M49,3 L49.6330234,3 L49.6330234,6.04268075 L49.6533855,6.04268075 C49.9247161,5.52039716 50.4976117,5.12805862 51.2510523,5.12805862 C52.6283937,5.12805862 53,5.9777014 53,7.15348033 L53,10 L52.3668149,10 L52.3668149,7.16255484 C52.3668149,6.34148419 52.1961951,5.63209765 51.1509824,5.63209765 C50.0254827,5.63209765 49.6330234,6.62142609 49.6330234,7.4522401 L49.6330234,10 L49,10 L49,3" id="path2947" fill="#000000">
						</path>
						<polyline id="path2949" fill="#000000" points="59.4610591 10 58.7646712 10 57.4910146 6.54147297 57.4725748 6.54147297 56.1989557 10 55.5025812 10 54 6 54.6320254 6 55.8597673 9.45900878 55.8781696 9.45900878 57.1792527 6 57.8756755 6 59.1128812 9.45900878 59.1307341 9.45900878 60.422793 6 61 6 59.4610591 10">
						</polyline>
						<path d="M66.3393171,7.16305091 C66.3393171,6.32951946 65.9950199,5.50568931 65.0958721,5.50568931 C64.2054824,5.50568931 63.6600699,6.37643465 63.6600699,7.16305091 L66.3393171,7.16305091 Z M66.6363311,9.73799087 C66.2154677,9.90678587 65.6699517,10 65.2197971,10 C63.6027104,10 63,8.93249515 63,7.5 C63,6.03948556 63.8231722,5 65.057207,5 C66.435227,5 67,6.08640076 67,7.36900228 L67,7.66878131 L63.6600699,7.66878131 C63.6600699,8.6802421 64.2154299,9.49488586 65.2677576,9.49488586 C65.7079675,9.49488586 66.3492647,9.31692913 66.6363311,9.13904361 L66.6363311,9.73799087" id="path2951" fill="#000000">
						</path>
						<path d="M69,5.10913118 L70,5.10913118 L70,10 L69,10 L69,5.10913118 Z M70,3.80498814 L69,3.80498814 L69,3 L70,3 L70,3.80498814" id="path2953" fill="#000000">
						</path>
						<polyline id="path2955" fill="#000000" points="70 9.58455117 73.2321281 6.4235903 70.1259903 6.4235903 70.1259903 6 74 6 74 6.4235903 70.7685586 9.57642347 74 9.57642347 74 10 70 10 70 9.58455117">
						</polyline>
						<path d="M79.3393388,7.16305091 C79.3393388,6.32951946 78.9950236,5.50568931 78.0959016,5.50568931 C77.2055625,5.50568931 76.660051,6.37643465 76.660051,7.16305091 L79.3393388,7.16305091 Z M79.6363415,9.73799087 C79.2153643,9.90678587 78.6699787,10 78.2198481,10 C76.6027827,10 76,8.93249515 76,7.5 C76,6.03948556 76.8232634,5 78.0572487,5 C79.435246,5 80,6.08640076 80,7.36900228 L80,7.66878131 L76.660051,7.66878131 C76.660051,8.6802421 77.2155098,9.49488586 78.2677849,9.49488586 C78.7080046,9.49488586 79.3492721,9.31692913 79.6363415,9.13904361 L79.6363415,9.73799087" id="path2957" fill="#000000">
						</path>
						<path d="M83.0330964,6.2066842 C83.0330964,5.67065842 83.0330964,5.46932445 83,5.11467855 L83.5249893,5.11467855 L83.5249893,6.05334145 L83.5412145,6.05334145 C83.7332284,5.50798864 84.091624,5 84.6333846,5 C84.7581184,5 84.9083626,5.02866754 85,5.05730425 L85,5.68998211 C84.8916035,5.65133193 84.7499985,5.63202224 84.6166133,5.63202224 C83.7830961,5.63202224 83.5580857,6.70531778 83.5580857,7.58602082 L83.5580857,10 L83.0330964,10 L83.0330964,6.2066842" id="path2959" fill="#000000">
						</path>
						<path d="M86,5.10913118 L87,5.10913118 L87,10 L86,10 L86,5.10913118 Z M87,3.80498814 L86,3.80498814 L86,3 L87,3 L87,3.80498814" id="path2961" fill="#000000">
						</path>
						<path d="M88.055946,9.19509041 C88.4110955,9.37301701 88.8412626,9.49488586 89.2991743,9.49488586 C89.8600206,9.49488586 90.355217,9.18531789 90.355217,8.64241743 C90.355217,7.50974786 88.0650265,7.68767447 88.0650265,6.30149469 C88.0650265,5.35582582 88.8314219,5 89.6167385,5 C89.8692625,5 90.3740151,5.05601941 90.7943278,5.2156965 L90.7384064,5.7305722 C90.4300978,5.58981566 90.0096483,5.50568931 89.6825033,5.50568931 C89.0748408,5.50568931 88.6538909,5.69277491 88.6538909,6.30149469 C88.6538909,7.19108937 91,7.07896839 91,8.64241743 C91,9.65390561 90.0559888,10 89.3362976,10 C88.8782491,10 88.4203127,9.94389842 88,9.77577446 L88.055946,9.19509041" id="path2963" fill="#000000">
						</path>
						<path d="M96.9465674,5.7488491 C96.5842357,5.60870608 96.1469904,5.50568931 95.783935,5.50568931 C94.4722178,5.50568931 93.7357392,6.3392235 93.7357392,7.5 C93.7357392,8.58640076 94.4825917,9.49488586 95.7090525,9.49488586 C96.1359177,9.49488586 96.5307875,9.41018708 96.9361903,9.27918936 L97,9.83183495 C96.5411489,9.97196428 96.1142963,10 95.6028674,10 C93.8530252,10 93,8.82951946 93,7.5 C93,6.029724 94.0771889,5 95.688155,5 C96.338591,5 96.8076756,5.13100046 97,5.18705821 L96.9465674,5.7488491" id="path2965" fill="#000000">
						</path>
						<path d="M98,3 L98.6330362,3 L98.6330362,6.04268075 L98.6533924,6.04268075 C98.924778,5.52039716 99.4976602,5.12805862 100.251099,5.12805862 C101.628556,5.12805862 102,5.9777014 102,7.15348033 L102,10 L101.366843,10 L101.366843,7.16255484 C101.366843,6.34148419 101.196183,5.63209765 100.151029,5.63209765 C99.0254915,5.63209765 98.6330362,6.62142609 98.6330362,7.4522401 L98.6330362,10 L98,10 L98,3" id="path2967" fill="#000000">
						</path>
						<path d="M107.339336,7.16305091 C107.339336,6.32951946 106.995049,5.50568931 106.095902,5.50568931 C105.205551,5.50568931 104.660026,6.37643465 104.660026,7.16305091 L107.339336,7.16305091 Z M107.636316,9.73799087 C107.215389,9.90678587 106.669976,10 106.219848,10 C104.602783,10 104,8.93249515 104,7.5 C104,6.03948556 104.823263,5 106.057263,5 C107.435243,5 108,6.08640076 108,7.36900228 L108,7.66878131 L104.660026,7.66878131 C104.660026,8.6802421 105.21551,9.49488586 106.267807,9.49488586 C106.707991,9.49488586 107.349269,9.31692913 107.636316,9.13904361 L107.636316,9.73799087" id="path2969" fill="#000000">
						</path>
						<polyline id="path2971" fill="#000000" points="112 3 115.863885 3 115.863885 3.60160831 112.779405 3.60160831 112.779405 6.09898402 115.705935 6.09898402 115.705935 6.70062166 112.779405 6.70062166 112.779405 9.39833596 116 9.39833596 116 10 112 10 112 3">
						</polyline>
						<path d="M119,5.10913118 L120,5.10913118 L120,10 L119,10 L119,5.10913118 Z M120,3.80498814 L119,3.80498814 L119,3 L120,3 L120,3.80498814" id="path2973" fill="#000000">
						</path>
						<path d="M123.027629,9.50444485 C124.059701,9.50444485 124.418937,8.40153771 124.418937,7.54731102 C124.418937,6.69308701 124.059701,5.59074148 123.027629,5.59074148 C121.921766,5.59074148 121.635707,6.63804712 121.635707,7.54731102 C121.635707,8.4571392 121.921766,9.50444485 123.027629,9.50444485 Z M125,9.89001427 L124.418937,9.89001427 L124.418937,9.14577599 L124.400894,9.14577599 C124.087335,9.74294924 123.608115,10 122.93528,10 C121.645285,10 121,8.93476333 121,7.54731102 C121,6.12336519 121.552938,5.09462204 122.93528,5.09462204 C123.856924,5.09462204 124.3175,5.7653278 124.400894,5.9948734 L124.418937,5.9948734 L124.418937,3 L125,3 L125,9.89001427" id="path2975" fill="#000000">
						</path>
						<path d="M129.990906,8.43912082 C131.040884,8.43912082 131.419122,7.41451389 131.419122,6.53249294 C131.419122,5.36592153 131.087564,4.51226185 130.027747,4.51226185 C128.922517,4.51226185 128.636384,5.59364402 128.636384,6.53249294 C128.636384,7.4811748 129.004798,8.43912082 129.990906,8.43912082 Z M132,8.55330669 C132,9.90010337 131.410524,11 129.798115,11 C129.180397,11 128.617964,10.8197747 128.378483,10.7438469 L128.42392,10.1463681 C128.783738,10.3364818 129.299516,10.488318 129.806711,10.488318 C131.300001,10.488318 131.428934,9.36866396 131.428934,8.00270081 L131.410524,8.00270081 C131.097386,8.70452146 130.580365,8.95142151 129.98231,8.95142151 C128.47922,8.95142151 128,7.60458321 128,6.53249294 C128,5.06221571 128.552878,4 129.935655,4 C130.561948,4 130.967202,4.08517813 131.400699,4.6641425 L131.419122,4.6641425 L131.419122,4.11356437 L132,4.11356437 L132,8.55330669" id="path2977" fill="#000000">
						</path>
						<path d="M137.339285,7.16305091 C137.339285,6.32951946 136.994897,5.50568931 136.095651,5.50568931 C135.205341,5.50568931 134.659402,6.37643465 134.659402,7.16305091 L137.339285,7.16305091 Z M137.636488,9.73799087 C137.215558,9.90678587 136.669636,10 136.219377,10 C134.602015,10 134,8.93249515 134,7.5 C134,6.03948556 134.82269,5 136.057388,5 C137.434923,5 138,6.08640076 138,7.36900228 L138,7.66878131 L134.659402,7.66878131 C134.659402,8.6802421 135.215531,9.49488586 136.267875,9.49488586 C136.707899,9.49488586 137.34949,9.31692913 137.636488,9.13904361 L137.636488,9.73799087" id="path2979" fill="#000000">
						</path>
						<path d="M140.039784,6.26464406 C140.039784,5.89067448 140.039784,5.50798864 140,5.11467855 L140.60745,5.11467855 L140.60745,5.98666814 L140.627306,5.98666814 C140.835522,5.54599722 141.213506,5 142.269208,5 C143.523852,5 144,5.80466066 144,6.87734262 L144,10 L143.373998,10 L143.373998,7.03066855 C143.373998,6.11131813 143.035787,5.51728766 142.169752,5.51728766 C141.025204,5.51728766 140.66709,6.48466012 140.66709,7.29867584 L140.66709,10 L140.039784,10 L140.039784,6.26464406" id="path2981" fill="#000000">
						</path>
						<path d="M147.999994,9.49488586 C148.923857,9.49488586 149.419947,8.60529118 149.419947,7.5 C149.419947,6.39532508 148.923857,5.50568931 147.999994,5.50568931 C147.075027,5.50568931 146.578962,6.39532508 146.578962,7.5 C146.578962,8.60529118 147.075027,9.49488586 147.999994,9.49488586 Z M148,5 C149.386355,5 150,6.198519 150,7.5 C150,8.801481 149.386355,10 148,10 C146.613658,10 146,8.801481 146,7.5 C146,6.198519 146.613658,5 148,5" id="path2983" fill="#000000">
						</path>
						<path d="M151.056056,9.19509041 C151.410965,9.37301701 151.841859,9.49488586 152.298892,9.49488586 C152.859304,9.49488586 153.354922,9.18531789 153.354922,8.64241743 C153.354922,7.50974786 151.066019,7.68767447 151.066019,6.30149469 C151.066019,5.35582582 151.831882,5 152.616442,5 C152.869254,5 153.37361,5.05601941 153.793297,5.2156965 L153.738493,5.7305722 C153.429679,5.58981566 153.009976,5.50568931 152.682436,5.50568931 C152.074729,5.50568931 151.653814,5.69277491 151.653814,6.30149469 C151.653814,7.19108937 154,7.07896839 154,8.64241743 C154,9.65390561 153.056044,10 152.336236,10 C151.877961,10 151.420914,9.94389842 151,9.77577446 L151.056056,9.19509041" id="path2985" fill="#000000">
						</path>
						<path d="M155.056072,9.19509041 C155.410977,9.37301701 155.841851,9.49488586 156.298879,9.49488586 C156.859288,9.49488586 157.354915,9.18531789 157.354915,8.64241743 C157.354915,7.50974786 155.06478,7.68767447 155.06478,6.30149469 C155.06478,5.35582582 155.831874,5 156.616455,5 C156.869238,5 157.3736,5.05601941 157.793285,5.2156965 L157.737241,5.7305722 C157.429644,5.58981566 157.009972,5.50568931 156.682463,5.50568931 C156.074734,5.50568931 155.65381,5.69277491 155.65381,6.30149469 C155.65381,7.19108937 158,7.07896839 158,8.64241743 C158,9.65390561 157.056054,10 156.336252,10 C155.877969,10 155.420954,9.94389842 155,9.77577446 L155.056072,9.19509041" id="path2987" fill="#000000">
						</path>
						<path d="M163.339546,7.16305091 C163.339546,6.32951946 162.993944,5.50568931 162.095034,5.50568931 C161.204974,5.50568931 160.659228,6.37643465 160.659228,7.16305091 L163.339546,7.16305091 Z M163.635308,9.73799087 C163.214547,9.90678587 162.670072,10 162.219961,10 C160.603128,10 160,8.93249515 160,7.5 C160,6.03948556 160.822449,5 162.056756,5 C163.435122,5 164,6.08640076 164,7.36900228 L164,7.66878131 L160.659228,7.66878131 C160.659228,8.6802421 161.215175,9.49488586 162.26713,9.49488586 C162.70704,9.49488586 163.348435,9.31692913 163.635308,9.13904361 L163.635308,9.73799087" id="path2989" fill="#000000">
						</path>
						<path d="M166.039802,6.26464406 C166.039802,5.89067448 166.039802,5.50798864 166,5.11467855 L166.607413,5.11467855 L166.607413,5.98666814 L166.627313,5.98666814 C166.835578,5.54599722 167.213537,5 168.269248,5 C169.522554,5 170,5.80466066 170,6.87734262 L170,10 L169.374009,10 L169.374009,7.03066855 C169.374009,6.11131813 169.035805,5.51728766 168.169776,5.51728766 C167.025203,5.51728766 166.6671,6.48466012 166.6671,7.29867584 L166.6671,10 L166.039802,10 L166.039802,6.26464406" id="path2991" fill="#000000">
						</path>
						<path d="M171.057286,9.19509041 C171.412045,9.37301701 171.841503,9.49488586 172.299597,9.49488586 C172.859773,9.49488586 173.353957,9.18531789 173.353957,8.64241743 C173.353957,7.50974786 171.065991,7.68767447 171.065991,6.30149469 C171.065991,5.35582582 171.831531,5 172.616999,5 C172.868464,5 173.373845,5.05601941 173.793371,5.2156965 L173.737338,5.7305722 C173.429866,5.58981566 173.009116,5.50568931 172.681739,5.50568931 C172.075515,5.50568931 171.654778,5.69277491 171.654778,6.30149469 C171.654778,7.19108937 174,7.07896839 174,8.64241743 C174,9.65390561 173.055175,10 172.336939,10 C171.878844,10 171.42075,9.94389842 171,9.77577446 L171.057286,9.19509041" id="path2993" fill="#000000">
						</path>
						<path d="M180.947419,5.7488491 C180.584952,5.60870608 180.147144,5.50568931 179.784664,5.50568931 C178.472606,5.50568931 177.736303,6.3392235 177.736303,7.5 C177.736303,8.58640076 178.482593,9.49488586 179.709304,9.49488586 C180.137204,9.49488586 180.530923,9.41018708 180.93746,9.27918936 L181,9.83183495 C180.542296,9.97196428 180.114428,10 179.604155,10 C177.854304,10 177,8.82951946 177,7.5 C177,6.029724 178.077439,5 179.689424,5 C180.339041,5 180.808121,5.13100046 181,5.18705821 L180.947419,5.7488491" id="path2995" fill="#000000">
						</path>
						<path d="M181,3 L181.632281,3 L181.632281,6.04268075 L181.65238,6.04268075 C181.924293,5.52039716 182.497651,5.12805862 183.250473,5.12805862 C184.627598,5.12805862 185,5.9777014 185,7.15348033 L185,10 L184.36769,10 L184.36769,7.16255484 C184.36769,6.34148419 184.19623,5.63209765 183.151352,5.63209765 C182.024782,5.63209765 181.632281,6.62142609 181.632281,7.4522401 L181.632281,10 L181,10 L181,3" id="path2997" fill="#000000">
						</path>
						<path d="M190.308747,7.48110957 L190.127491,7.48110957 C189.01963,7.48110957 187.702031,7.58469878 187.702031,8.63328582 C187.702031,9.26025512 188.187674,9.49488586 188.776092,9.49488586 C190.279005,9.49488586 190.308747,8.28661899 190.308747,7.77175699 L190.308747,7.48110957 Z M190.36964,9.12016688 L190.350703,9.12016688 C190.066613,9.69108937 189.344258,10 188.705769,10 C187.233975,10 187,9.08236959 187,8.65160655 C187,7.05092992 188.847805,6.9759927 190.187007,6.9759927 L190.308747,6.9759927 L190.308747,6.73223309 C190.308747,5.91761671 189.99493,5.50568931 189.131866,5.50568931 C188.594837,5.50568931 188.087561,5.61785138 187.608685,5.8986989 L187.608685,5.32780379 C188.005085,5.14989088 188.674664,5 189.131866,5 C190.410249,5 190.948614,5.53375517 190.948614,6.77918936 L190.948614,8.88619347 C190.948614,9.27004406 190.948614,9.56007796 191,9.88789271 L190.36964,9.88789271 L190.36964,9.12016688" id="path2999" fill="#000000">
						</path>
						<path d="M193.039502,5.81076668 L192,5.81076668 L192,5.31459349 L193.039502,5.31459349 L193.039502,4.97506217 C193.039502,3.99230606 193.079897,3 194.404819,3 C194.605486,3 194.878822,3.02750516 195,3.09205202 L194.959608,3.59714369 C194.82764,3.53262371 194.636433,3.49615975 194.454674,3.49615975 C193.584831,3.49615975 193.676375,4.35038376 193.676375,4.91050188 L193.676375,5.31459349 L194.838427,5.31459349 L194.838427,5.81076668 L193.676375,5.81076668 L193.676375,10 L193.039502,10 L193.039502,5.81076668" id="path3001" fill="#000000">
						</path>
						<path d="M198.855394,4.79008031 L197.668466,4.79008031 L197.668466,7.75903507 C197.668466,8.17288125 197.843115,8.51473806 198.365626,8.51473806 C198.611184,8.51473806 198.774916,8.46966674 198.957731,8.40644744 L199,8.87413765 C198.845853,8.92800799 198.529331,9 198.211465,9 C197.065477,9 197.023193,8.30751895 197.023193,7.47099598 L197.023193,4.79008031 L196,4.79008031 L196,4.30421317 L197.023193,4.30421317 L197.023193,3.19788331 L197.668466,3 L197.668466,4.30421317 L198.855394,4.30421317 L198.855394,4.79008031" id="path3003" fill="#000000">
						</path>
						<path d="M42.96123,15.8725589 C42.531635,15.649807 41.9157715,15.5817106 41.4373227,15.5817106 C39.6700632,15.5817106 38.6735043,16.8226525 38.6735043,18.5003233 C38.6735043,20.2063177 39.6407543,21.4183035 41.4373227,21.4183035 C41.8866198,21.4183035 42.570405,21.3601815 42.96123,21.1274553 L43,21.7091943 C42.6288685,21.932468 41.8674747,22 41.4373227,22 C39.2887279,22 38,20.5943234 38,18.5003233 C38,16.4447262 39.3281377,15 41.4373227,15 C41.8376831,15 42.6484963,15.0681106 43,15.2523744 L42.96123,15.8725589" id="path3005" fill="#000000">
						</path>
						<path d="M47.9997874,22.4949026 C48.9244688,22.4949026 49.4199181,21.6053182 49.4199181,20.4999575 C49.4199181,19.3953638 48.9244688,18.5057821 47.9997874,18.5057821 C47.0756664,18.5057821 46.5796321,19.3953638 46.5796321,20.4999575 C46.5796321,21.6053182 47.0756664,22.4949026 47.9997874,22.4949026 Z M47.9997874,18 C49.3865355,18 50,19.1985764 50,20.4999575 C50,21.8014647 49.3865355,23 47.9997874,23 C46.6135653,23 46,21.8014647 46,20.4999575 C46,19.1985764 46.6135653,18 47.9997874,18" id="path3007" fill="#000000">
						</path>
						<path d="M51.0296212,19.2646223 C51.0296212,18.890739 51.0296212,18.5080443 51,18.1147507 L51.4550464,18.1147507 L51.4550464,18.9867209 L51.4701059,18.9867209 C51.6265451,18.5460919 51.9101212,18 52.7012837,18 C53.642002,18 54,18.8047285 54,19.877317 L54,23 L53.5298155,23 L53.5298155,20.030642 C53.5298155,19.1113393 53.2762864,18.5173853 52.626973,18.5173853 C51.7682742,18.5173853 51.4997271,19.484679 51.4997271,20.2987317 L51.4997271,23 L51.0296212,23 L51.0296212,19.2646223" id="path3009" fill="#000000">
						</path>
						<path d="M58.0404666,17.810736 L57,17.810736 L57,17.3146626 L58.0404666,17.3146626 L58.0404666,16.97505 C58.0404666,15.9923403 58.0806101,15 59.4038069,15 C59.6062235,15 59.879138,15.0275453 60,15.091463 L59.9598978,15.5971803 C59.8285198,15.5326473 59.6365395,15.496197 59.4543837,15.496197 C58.5860946,15.496197 58.6768416,16.3504426 58.6768416,16.9105305 L58.6768416,17.3146626 L59.8383356,17.3146626 L59.8383356,17.810736 L58.6768416,17.810736 L58.6768416,22 L58.0404666,22 L58.0404666,17.810736" id="path3011" fill="#000000">
						</path>
						<path d="M63.335064,15 L64.0908824,15 L62.8854216,16.4020613 L62.4452033,16.4020613 L63.335064,15 Z M64.3393856,19.050234 C64.3393856,18.1836038 63.9949759,17.327052 63.0959597,17.327052 C62.2054748,17.327052 61.6600658,18.2324126 61.6600658,19.050234 L64.3393856,19.050234 Z M64.6363977,21.7275429 C64.2154727,21.9029917 63.6700609,22 63.2197579,22 C61.6027682,22 61,20.8900516 61,19.4005336 C61,17.8819536 61.8231138,16.8011555 63.05732,16.8011555 C64.4352949,16.8011555 65,17.9307767 65,19.264399 L65,19.5760707 L61.6600658,19.5760707 C61.6600658,20.6276843 62.2153971,21.4748155 63.2677433,21.4748155 C63.7079253,21.4748155 64.3493695,21.289815 64.6363977,21.1047861 L64.6363977,21.7275429" id="path3013" fill="#000000">
						</path>
						<path d="M69.0276155,21.5044548 C70.0597114,21.5044548 70.418961,20.4015057 70.418961,19.5472374 C70.418961,18.6930792 70.0597114,17.590775 69.0276155,17.590775 C67.9217659,17.590775 67.6357039,18.638136 67.6357039,19.5472374 C67.6357039,20.4571073 67.9217659,21.5044548 69.0276155,21.5044548 Z M71,21.8899872 L70.418961,21.8899872 L70.418961,21.1457451 L70.4008939,21.1457451 C70.087211,21.7429193 69.6080884,22 68.9352906,22 C67.6452847,22 67,20.9346784 67,19.5472374 C67,18.1234398 67.5529113,17.0945581 68.9352906,17.0945581 C69.8570458,17.0945581 70.3176215,17.7653347 70.4008939,17.9948807 L70.418961,17.9948807 L70.418961,15 L71,15 L71,21.8899872" id="path3015" fill="#000000">
						</path>
						<path d="M74.3349931,15 L75.0909142,15 L73.8848501,16.4020613 L73.4451638,16.4020613 L74.3349931,15 Z M75.3393482,19.050234 C75.3393482,18.1836038 74.9950459,17.327052 74.0958934,17.327052 C73.2055435,17.327052 72.6600416,18.2324126 72.6600416,19.050234 L75.3393482,19.050234 Z M75.6363153,21.7275429 C75.2153985,21.9029917 74.6700002,22 74.2198431,22 C72.6027983,22 72,20.8900516 72,19.4005336 C72,17.8819536 72.8232517,16.8011555 74.0572685,16.8011555 C75.4352164,16.8011555 76,17.9307767 76,19.264399 L76,19.5760707 L72.6600416,19.5760707 C72.6600416,20.6276843 73.2155272,21.4748155 74.2678277,21.4748155 C74.707987,21.4748155 75.3492927,21.289815 75.6363153,21.1047861 L75.6363153,21.7275429" id="path3017" fill="#000000">
						</path>
						<path d="M78.0330965,19.2067048 C78.0330965,18.6706823 78.0330965,18.4693496 78,18.1147507 L78.5249997,18.1147507 L78.5249997,19.0539934 L78.5412152,19.0539934 C78.7332415,18.5080443 79.0916375,18 79.6333963,18 C79.7581084,18 79.9083844,18.0287374 80,18.0573319 L80,18.6899218 C79.8915034,18.6514008 79.7500006,18.6319903 79.6166372,18.6319903 C78.7831068,18.6319903 78.5580962,19.7047497 78.5580962,20.5860189 L78.5580962,23 L78.0330965,23 L78.0330965,19.2067048" id="path3019" fill="#000000">
						</path>
						<path d="M85.3097339,20.4817658 L85.1266788,20.4817658 C84.0202141,20.4817658 82.7002677,20.5846964 82.7002677,21.6332714 C82.7002677,22.2603184 83.1877516,22.4949026 83.7764246,22.4949026 C85.2786036,22.4949026 85.3097339,21.2866086 85.3097339,20.7717525 L85.3097339,20.4817658 Z M85.3704682,22.1201606 L85.3500403,22.1201606 C85.0659296,22.6910902 84.3452073,23 83.7051245,23 C82.2332236,23 82,22.0823637 82,21.6516193 C82,20.0509775 83.8477248,19.9759563 85.1875615,19.9759563 L85.3097339,19.9759563 L85.3097339,19.7322816 C85.3097339,18.9176774 84.9946146,18.5057821 84.1318622,18.5057821 C83.5933695,18.5057821 83.0860101,18.6178169 82.6090772,18.8987159 L82.6090772,18.3278274 C83.0048301,18.1498755 83.674695,18 84.1318622,18 C85.4108132,18 85.9491456,18.5338449 85.9491456,19.7792374 L85.9491456,21.8861899 C85.9491456,22.2700223 85.9491456,22.5600529 86,22.8878666 L85.3704682,22.8878666 L85.3704682,22.1201606" id="path3021" fill="#000000">
						</path>
						<path d="M89.8567249,18.789971 L88.6689127,18.789971 L88.6689127,21.758998 C88.6689127,22.1728495 88.8434015,22.5147454 89.3650112,22.5147454 C89.6108755,22.5147454 89.7747392,22.4696606 89.959341,22.4063725 L90,22.8741473 C89.8467645,22.9280049 89.5288599,23 89.2117638,23 C88.0652903,23 88.0239366,22.307446 88.0239366,21.4710254 L88.0239366,18.789971 L87,18.789971 L87,18.3041954 L88.0239366,18.3041954 L88.0239366,17.1978162 L88.6689127,17 L88.6689127,18.3041954 L89.8567249,18.3041954 L89.8567249,18.789971" id="path3023" fill="#000000">
						</path>
						<path d="M92,17.1091145 L93,17.1091145 L93,22 L92,22 L92,17.1091145 Z M93,15.804981 L92,15.804981 L92,15 L93,15 L93,15.804981" id="path3025" fill="#000000">
						</path>
						<path d="M96.9996534,22.4949026 C97.924342,22.4949026 98.4197886,21.6053182 98.4197886,20.4999575 C98.4197886,19.3953638 97.924342,18.5057821 96.9996534,18.5057821 C96.0755277,18.5057821 95.5796535,19.3953638 95.5796535,20.4999575 C95.5796535,21.6053182 96.0755277,22.4949026 96.9996534,22.4949026 Z M96.9996534,18 C98.3864283,18 99,19.1985764 99,20.4999575 C99,21.8014647 98.3864283,23 96.9996534,23 C95.6134636,23 95,21.8014647 95,20.4999575 C95,19.1985764 95.6134636,18 96.9996534,18" id="path3027" fill="#000000">
						</path>
						<path d="M101.039518,19.2646223 C101.039518,18.890739 101.039518,18.5080443 101,18.1147507 L101.60675,18.1147507 L101.60675,18.9867209 L101.626896,18.9867209 C101.835403,18.5460919 102.21348,18 103.268357,18 C104.522685,18 105,18.8047285 105,19.877317 L105,23 L104.373209,23 L104.373209,20.030642 C104.373209,19.1113393 104.035182,18.5173853 103.169277,18.5173853 C102.024508,18.5173853 101.666298,19.484679 101.666298,20.2987317 L101.666298,23 L101.039518,23 L101.039518,19.2646223" id="path3029" fill="#000000">
						</path>
						<path d="M110.056522,22.1950421 C110.411663,22.3729968 110.841519,22.4949026 111.29938,22.4949026 C111.859985,22.4949026 112.354856,22.1852971 112.354856,21.6424741 C112.354856,20.5098286 110.065599,20.6876572 110.065599,19.3014934 C110.065599,18.3558929 110.831819,18 111.616679,18 C111.869089,18 112.373784,18.0560462 112.793914,18.215149 L112.737879,18.7306213 C112.429682,18.5898637 112.009565,18.5057821 111.682441,18.5057821 C111.075002,18.5057821 110.654234,18.6928108 110.654234,19.3014934 C110.654234,20.1911189 113,20.0789308 113,21.6424741 C113,22.6538822 112.05575,23 111.336363,23 C110.878627,23 110.420754,22.9438689 110,22.7757743 L110.056522,22.1950421" id="path3031" fill="#000000">
						</path>
						<path d="M118.959833,21.735952 C118.959833,22.109295 118.959833,22.4926095 119,22.8852931 L118.392705,22.8852931 L118.392705,22.0139287 L118.373213,22.0139287 C118.164102,22.4539732 117.786047,23 116.731372,23 C115.477747,23 115,22.1953091 115,21.1226661 L115,18 L115.626801,18 L115.626801,20.9692529 C115.626801,21.8892223 115.965327,22.4833105 116.83106,22.4833105 C117.975146,22.4833105 118.333181,21.5153357 118.333181,20.7013177 L118.333181,18 L118.959833,18 L118.959833,21.735952" id="path3033" fill="#000000">
						</path>
						<path d="M120,17.1091145 L121,17.1091145 L121,22 L120,22 L120,17.1091145 Z M121,15.804981 L120,15.804981 L120,15 L121,15 L121,15.804981" id="path3035" fill="#000000">
						</path>
						<path d="M123.055921,22.1950421 C123.41121,22.3729968 123.84124,22.4949026 124.29931,22.4949026 C124.860158,22.4949026 125.355204,22.1852971 125.355204,21.6424741 C125.355204,20.5098286 123.065029,20.6876572 123.065029,19.3014934 C123.065029,18.3558929 123.831547,18 124.616715,18 C124.869239,18 125.374125,18.0560462 125.794465,18.215149 L125.738407,18.7306213 C125.430074,18.5898637 125.009759,18.5057821 124.682488,18.5057821 C124.074815,18.5057821 123.653879,18.6928108 123.653879,19.3014934 C123.653879,20.1911189 126,20.0789308 126,21.6424741 C126,22.6538822 125.055962,23 124.336436,23 C123.878363,23 123.420301,22.9438689 123,22.7757743 L123.055921,22.1950421" id="path3037" fill="#000000">
						</path>
						<path d="M129.056514,22.1950421 C129.412142,22.3729968 129.841582,22.4949026 130.299657,22.4949026 C130.859798,22.4949026 131.353969,22.1852971 131.353969,21.6424741 C131.353969,20.5098286 129.065612,20.6876572 129.065612,19.3014934 C129.065612,18.3558929 129.83164,18 130.617068,18 C130.868511,18 131.373897,18.0560462 131.79337,18.215149 L131.737356,18.7306213 C131.4299,18.5898637 131.009182,18.5057821 130.681809,18.5057821 C130.075609,18.5057821 129.65488,18.6928108 129.65488,19.3014934 C129.65488,20.1911189 132,20.0789308 132,21.6424741 C132,22.6538822 131.055237,23 130.336999,23 C129.878927,23 129.420866,22.9438689 129,22.7757743 L129.056514,22.1950421" id="path3039" fill="#000000">
						</path>
						<path d="M135.339512,20.1630562 C135.339512,19.3295726 134.995238,18.5057821 134.096296,18.5057821 C133.204988,18.5057821 132.660519,19.3765147 132.660519,20.1630562 L135.339512,20.1630562 Z M135.636619,22.7379638 C135.214543,22.906702 134.670065,23 134.219966,23 C132.603139,23 132,21.9325047 132,20.4999575 C132,19.0394599 132.823715,18 134.056761,18 C135.435178,18 136,19.0864156 136,20.3690298 L136,20.6687807 L132.660519,20.6687807 C132.660519,21.6801724 133.215176,22.4949026 134.267136,22.4949026 C134.708315,22.4949026 135.348446,22.3169781 135.636619,22.1390261 L135.636619,22.7379638" id="path3041" fill="#000000">
						</path>
						<path d="M42.96123,29.8725383 C42.531635,29.6498044 41.9157715,29.5816941 41.4373227,29.5816941 C39.6700632,29.5816941 38.6735043,30.8226593 38.6735043,32.5002949 C38.6735043,34.206325 39.6407543,35.4183059 41.4373227,35.4183059 C41.8866198,35.4183059 42.570405,35.3601416 42.96123,35.1274163 L43,35.7091529 C42.6288685,35.9324087 41.8674747,36 41.4373227,36 C39.2887279,36 38,34.5943291 38,32.5002949 C38,30.4447062 39.3281377,29 41.4373227,29 C41.8376831,29 42.6484963,29.0674722 43,29.2516785 L42.96123,29.8725383" id="path3043" fill="#000000">
						</path>
						<path d="M47.9997874,35.4948492 C48.9244688,35.4948492 49.4199181,34.6052672 49.4199181,33.4999233 C49.4199181,32.3953463 48.9244688,31.505767 47.9997874,31.505767 C47.0756664,31.505767 46.5796321,32.3953463 46.5796321,33.4999233 C46.5796321,34.6052672 47.0756664,35.4948492 47.9997874,35.4948492 Z M47.9997874,31 C49.3865355,31 50,32.1985321 50,33.4999233 C50,34.8014269 49.3865355,36 47.9997874,36 C46.6135653,36 46,34.8014269 46,33.4999233 C46,32.1985321 46.6135653,31 47.9997874,31" id="path3045" fill="#000000">
						</path>
						<path d="M51.0296212,32.2646153 C51.0296212,31.890716 51.0296212,31.5080192 51,31.1147205 L51.4550464,31.1147205 L51.4550464,31.9866984 L51.4701059,31.9866984 C51.6265451,31.546081 51.9101212,31 52.7012837,31 C53.642002,31 54,31.8046602 54,32.8773416 L54,36 L53.5298155,36 L53.5298155,33.0306254 C53.5298155,32.1112867 53.2762864,31.5173742 52.626973,31.5173742 C51.7682742,31.5173742 51.4997271,32.4846733 51.4997271,33.2986745 L51.4997271,36 L51.0296212,36 L51.0296212,32.2646153" id="path3047" fill="#000000">
						</path>
						<path d="M58.0404666,30.8107494 L57,30.8107494 L57,30.3146599 L58.0404666,30.3146599 L58.0404666,29.9750903 C58.0404666,28.9923806 58.0806101,28 59.4038069,28 C59.6062235,28 59.879138,28.0275319 60,28.0920649 L59.9598978,28.5972233 C59.8285198,28.5326903 59.6365395,28.496197 59.4543837,28.496197 C58.5860946,28.496197 58.6768416,29.3504561 58.6768416,29.9105708 L58.6768416,30.3146599 L59.8383356,30.3146599 L59.8383356,30.8107494 L58.6768416,30.8107494 L58.6768416,35 L58.0404666,35 L58.0404666,30.8107494" id="path3049" fill="#000000">
						</path>
						<path d="M64.3393856,33.162979 C64.3393856,32.3294156 63.9949759,31.505767 63.0959597,31.505767 C62.2054748,31.505767 61.6600658,32.3763712 61.6600658,33.162979 L64.3393856,33.162979 Z M64.6363977,35.7379645 C64.2154727,35.9067708 63.6700609,36 63.2197579,36 C61.6027682,36 61,34.9324391 61,33.4999233 C61,32.0394708 61.8231138,31 63.05732,31 C64.4352949,31 65,32.0863552 65,33.3690398 L65,33.6687871 L61.6600658,33.6687871 C61.6600658,34.6801486 62.2153971,35.4948492 63.2677433,35.4948492 C63.7079253,35.4948492 64.3493695,35.3169389 64.6363977,35.1389847 L64.6363977,35.7379645" id="path3051" fill="#000000">
						</path>
						<path d="M69.0276155,34.5044039 C70.0597114,34.5044039 70.418961,33.4015149 70.418961,32.5472112 C70.418961,31.6930714 70.0597114,30.5907735 69.0276155,30.5907735 C67.9217659,30.5907735 67.6357039,31.6380721 67.6357039,32.5472112 C67.6357039,33.4570759 67.9217659,34.5044039 69.0276155,34.5044039 Z M71,34.8899476 L70.418961,34.8899476 L70.418961,34.1457097 L70.4008939,34.1457097 C70.087211,34.7429208 69.6080884,35 68.9352906,35 C67.6452847,35 67,33.9346577 67,32.5472112 C67,31.123395 67.5529113,30.0945729 68.9352906,30.0945729 C69.8570458,30.0945729 70.3176215,30.7653188 70.4008939,30.9948634 L70.418961,30.9948634 L70.418961,28 L71,28 L71,34.8899476" id="path3053" fill="#000000">
						</path>
						<path d="M75.3393482,33.162979 C75.3393482,32.3294156 74.9950459,31.505767 74.0958934,31.505767 C73.2055435,31.505767 72.6600416,32.3763712 72.6600416,33.162979 L75.3393482,33.162979 Z M75.6363153,35.7379645 C75.2153985,35.9067708 74.6700002,36 74.2198431,36 C72.6027983,36 72,34.9324391 72,33.4999233 C72,32.0394708 72.8232517,31 74.0572685,31 C75.4352164,31 76,32.0863552 76,33.3690398 L76,33.6687871 L72.6600416,33.6687871 C72.6600416,34.6801486 73.2155272,35.4948492 74.2678277,35.4948492 C74.707987,35.4948492 75.3492927,35.3169389 75.6363153,35.1389847 L75.6363153,35.7379645" id="path3055" fill="#000000">
						</path>
						<path d="M78.0330965,32.2066555 C78.0330965,31.670658 78.0330965,31.469369 78,31.1147205 L78.5249997,31.1147205 L78.5249997,32.0533549 L78.5412152,32.0533549 C78.7332415,31.5080192 79.0916375,31 79.6333963,31 C79.7581084,31 79.9083844,31.0287236 80,31.0573182 L80,31.6899397 C79.8915034,31.6513764 79.7500006,31.6319799 79.6166372,31.6319799 C78.7831068,31.6319799 78.5580962,32.7053869 78.5580962,33.5860054 L78.5580962,36 L78.0330965,36 L78.0330965,32.2066555" id="path3057" fill="#000000">
						</path>
						<path d="M85.3097339,33.4810742 L85.1266788,33.4810742 C84.0202141,33.4810742 82.7002677,33.584662 82.7002677,34.6332204 C82.7002677,35.2602793 83.1877516,35.4948492 83.7764246,35.4948492 C85.2786036,35.4948492 85.3097339,34.2865722 85.3097339,33.7717175 L85.3097339,33.4810742 Z M85.3704682,35.1201356 L85.3500403,35.1201356 C85.0659296,35.6910089 84.3452073,36 83.7051245,36 C82.2332236,36 82,35.0823251 82,34.6515819 C82,33.0509445 83.8477248,32.9759646 85.1875615,32.9759646 L85.3097339,32.9759646 L85.3097339,32.7322906 C85.3097339,31.9176475 84.9946146,31.505767 84.1318622,31.505767 C83.5933695,31.505767 83.0860101,31.6178015 82.6090772,31.8987272 L82.6090772,31.3278128 C83.0048301,31.1498477 83.674695,31 84.1318622,31 C85.4108132,31 85.9491456,31.5338297 85.9491456,32.7791503 L85.9491456,34.8861655 C85.9491456,35.2700243 85.9491456,35.560013 86,35.8878258 L85.3704682,35.8878258 L85.3704682,35.1201356" id="path3059" fill="#000000">
						</path>
						<polyline id="path3061" fill="#000000" points="87 34.5846511 90.2321058 31.4235249 87.1260023 31.4235249 87.1260023 31 91 31 91 31.4235249 87.7685686 34.5763811 91 34.5763811 91 35 87 35 87 34.5846511">
						</polyline>
						<path d="M93,30.1091136 L94,30.1091136 L94,35 L93,35 L93,30.1091136 Z M94,28.8049554 L93,28.8049554 L93,28 L94,28 L94,28.8049554" id="path3063" fill="#000000">
						</path>
						<path d="M96.9996534,35.4948492 C97.9243396,35.4948492 98.4197984,34.6052672 98.4197984,33.4999233 C98.4197984,32.3953463 97.9243396,31.505767 96.9996534,31.505767 C96.0755351,31.505767 95.579651,32.3953463 95.579651,33.4999233 C95.579651,34.6052672 96.0755351,35.4948492 96.9996534,35.4948492 Z M96.9996534,31 C98.3864283,31 99,32.1985321 99,33.4999233 C99,34.8014269 98.3864283,36 96.9996534,36 C95.6134611,36 95,34.8014269 95,33.4999233 C95,32.1985321 95.6134611,31 96.9996534,31" id="path3065" fill="#000000">
						</path>
						<path d="M101.03955,32.2646153 C101.03955,31.890716 101.03955,31.5080192 101,31.1147205 L101.606755,31.1147205 L101.606755,31.9866984 L101.626925,31.9866984 C101.835405,31.546081 102.213493,31 103.268492,31 C104.522843,31 105,31.8046602 105,32.8773416 L105,36 L104.373235,36 L104.373235,33.0306254 C104.373235,32.1112867 104.035186,31.5173742 103.169423,31.5173742 C102.02451,31.5173742 101.666315,32.4846733 101.666315,33.2986745 L101.666315,36 L101.03955,36 L101.03955,32.2646153" id="path3067" fill="#000000">
						</path>
						<path d="M110.339292,33.162979 C110.339292,32.3294156 109.994995,31.505767 109.095819,31.505767 C108.205482,31.505767 107.659927,32.3763712 107.659927,33.162979 L110.339292,33.162979 Z M110.636303,35.7379645 C110.215339,35.9067708 109.669938,36 109.219772,36 C107.60266,36 107,34.9324391 107,33.4999233 C107,32.0394708 107.823144,31 109.057193,31 C110.435202,31 111,32.0863552 111,33.3690398 L111,33.6687871 L107.659927,33.6687871 C107.659927,34.6801486 108.215402,35.4948492 109.267732,35.4948492 C109.70794,35.4948492 110.349239,35.3169389 110.636303,35.1389847 L110.636303,35.7379645" id="path3069" fill="#000000">
						</path>
						<path d="M117.093062,35.0207189 C117.514562,35.2731943 118.007775,35.4183059 118.67611,35.4183059 C119.560676,35.4183059 120.290828,34.9917743 120.290828,34.03211 C120.290828,32.7034574 117,32.5387091 117,30.7646113 C117,29.6788624 118.007775,29 119.273033,29 C119.622345,29 120.187791,29.0485785 120.681524,29.2226205 L120.568454,29.8340675 C120.249993,29.6688002 119.745432,29.5816941 119.262373,29.5816941 C118.522217,29.5816941 117.709994,29.8725383 117.709994,30.745139 C117.709994,32.1027505 121,32.1122796 121,34.0901155 C121,35.4573411 119.756107,36 118.645415,36 C117.946109,36 117.401522,35.864358 117.020679,35.7091529 L117.093062,35.0207189" id="path3071" fill="#000000">
						</path>
						<polyline id="path3073" fill="#000000" points="124.31932 35 123.624635 35 122 31 122.64826 31 123.972221 34.4590366 123.990627 34.4590366 125.380506 31 126 31 124.31932 35">
						</polyline>
						<path d="M127,30.1091136 L128,30.1091136 L128,35 L127,35 L127,30.1091136 Z M128,28.8049554 L127,28.8049554 L127,28 L128,28 L128,28.8049554" id="path3075" fill="#000000">
						</path>
						<polyline id="path3077" fill="#000000" points="130 34.5846511 133.232557 31.4235249 130.126259 31.4235249 130.126259 31 134 31 134 31.4235249 130.768828 34.5763811 134 34.5763811 134 35 130 35 130 34.5846511">
						</polyline>
						<polyline id="path3079" fill="#000000" points="134 34.5846511 137.232552 31.4235249 134.126249 31.4235249 134.126249 31 138 31 138 31.4235249 134.768843 34.5763811 138 34.5763811 138 35 134 35 134 34.5846511">
						</polyline>
						<path d="M143.339262,33.162979 C143.339262,32.3294156 142.99489,31.505767 142.095653,31.505767 C141.205346,31.505767 140.659425,32.3763712 140.659425,33.162979 L143.339262,33.162979 Z M143.636504,35.7379645 C143.21558,35.9067708 142.670944,36 142.220675,36 C140.602039,36 140,34.9324391 140,33.4999233 C140,32.0394708 140.822699,31 142.057388,31 C143.436212,31 144,32.0863552 144,33.3690398 L144,33.6687871 L140.659425,33.6687871 C140.659425,34.6801486 141.215551,35.4948492 142.267857,35.4948492 C142.707908,35.4948492 143.34948,35.3169389 143.636504,35.1389847 L143.636504,35.7379645" id="path3081" fill="#000000">
						</path>
						<path d="M146.032226,32.2066555 C146.032226,31.670658 146.032226,31.469369 146,31.1147205 L146.524443,31.1147205 L146.524443,32.0533549 L146.541102,32.0533549 C146.733336,31.5080192 147.091094,31 147.633328,31 C147.758871,31 147.908883,31.0287236 148,31.0573182 L148,31.6899397 C147.892223,31.6513764 147.749994,31.6319799 147.616667,31.6319799 C146.783326,31.6319799 146.557774,32.7053869 146.557774,33.5860054 L146.557774,36 L146.032226,36 L146.032226,32.2066555" id="path3083" fill="#000000">
						</path>
						<path d="M152.309894,33.4810742 L152.1272,33.4810742 C151.020289,33.4810742 149.699598,33.584662 149.699598,34.6332204 C149.699598,35.2602793 150.188085,35.4948492 150.776714,35.4948492 C152.27875,35.4948492 152.309894,34.2865722 152.309894,33.7717175 L152.309894,33.4810742 Z M152.370793,35.1201356 L152.35049,35.1201356 C152.066305,35.6910089 151.345066,36 150.705004,36 C149.232749,36 149,35.0823251 149,34.6515819 C149,33.0509445 150.848451,32.9759646 152.188099,32.9759646 L152.309894,32.9759646 L152.309894,32.7322906 C152.309894,31.9176475 151.994594,31.505767 151.132606,31.505767 C150.594035,31.505767 150.086593,31.6178015 149.608933,31.8987272 L149.608933,31.3278128 C150.005406,31.1498477 150.675237,31 151.132606,31 C152.411371,31 152.949942,31.5338297 152.949942,32.7791503 L152.949942,34.8861655 C152.949942,35.2700243 152.949942,35.560013 153,35.8878258 L152.370793,35.8878258 L152.370793,35.1201356" id="path3085" fill="#000000">
						</path>
						<path d="M42.96123,42.872578 C42.531635,42.6498285 41.9157715,42.5817187 41.4373227,42.5817187 C39.6700632,42.5817187 38.6735043,43.8226503 38.6735043,45.500346 C38.6735043,47.2062941 39.6407543,48.4182501 41.4373227,48.4182501 C41.8866198,48.4182501 42.570405,48.3601316 42.96123,48.1274503 L43,48.7091095 C42.6288685,48.9324091 41.8674747,49 41.4373227,49 C39.2887279,49 38,47.5942928 38,45.500346 C38,43.4448414 39.3281377,42 41.4373227,42 C41.8376831,42 42.6484963,42.0674604 43,42.2517223 L42.96123,42.872578" id="path3087" fill="#000000">
						</path>
						<path d="M47.9997874,48.4948534 C48.9244688,48.4948534 49.4199181,47.6052787 49.4199181,46.4999439 C49.4199181,45.3953622 48.9244688,44.5057601 47.9997874,44.5057601 C47.0756664,44.5057601 46.5796321,45.3953622 46.5796321,46.4999439 C46.5796321,47.6052787 47.0756664,48.4948534 47.9997874,48.4948534 Z M47.9997874,44 C49.3865355,44 50,45.1985606 50,46.4999439 C50,47.8014367 49.3865355,49 47.9997874,49 C46.6135653,49 46,47.8014367 46,46.4999439 C46,45.1985606 46.6135653,44 47.9997874,44" id="path3089" fill="#000000">
						</path>
						<path d="M51.0296212,45.2647597 C51.0296212,44.890761 51.0296212,44.5080461 51,44.114805 L51.4550464,44.114805 L51.4550464,44.9867409 L51.4701059,44.9867409 C51.6265451,44.5460828 51.9101212,44 52.7012837,44 C53.642002,44 54,44.804733 54,45.8773451 L54,49 L53.5298155,49 L53.5298155,46.0306294 C53.5298155,45.1113605 53.2762864,44.5173732 52.626973,44.5173732 C51.7682742,44.5173732 51.4997271,45.4847063 51.4997271,46.2987075 L51.4997271,49 L51.0296212,49 L51.0296212,45.2647597" id="path3091" fill="#000000">
						</path>
						<path d="M58.0404666,44.8107172 L57,44.8107172 L57,44.3147207 L58.0404666,44.3147207 L58.0404666,43.9750679 C58.0404666,42.9923479 58.0806101,42 59.4038069,42 C59.6062235,42 59.879138,42.0275348 60,42.092028 L59.9598978,42.5971742 C59.8285198,42.5326541 59.6365395,42.4962008 59.4543837,42.4962008 C58.5860946,42.4962008 58.6768416,43.3504557 58.6768416,43.9105478 L58.6768416,44.3147207 L59.8383356,44.3147207 L59.8383356,44.8107172 L58.6768416,44.8107172 L58.6768416,49 L58.0404666,49 L58.0404666,44.8107172" id="path3093" fill="#000000">
						</path>
						<path d="M64.3393856,46.1630297 C64.3393856,45.3295992 63.9949759,44.5057601 63.0959597,44.5057601 C62.2054748,44.5057601 61.6600658,45.3765133 61.6600658,46.1630297 L64.3393856,46.1630297 Z M64.6363977,48.7379228 C64.2154727,48.9067715 63.6700609,49 63.2197579,49 C61.6027682,49 61,47.9324726 61,46.4999439 C61,45.0394595 61.8231138,44 63.05732,44 C64.4352949,44 65,45.0864147 65,46.3690176 L65,46.6687488 L61.6600658,46.6687488 C61.6600658,47.6801458 62.2153971,48.4948534 63.2677433,48.4948534 C63.7079253,48.4948534 64.3493695,48.3169006 64.6363977,48.1389917 L64.6363977,48.7379228" id="path3095" fill="#000000">
						</path>
						<path d="M69.0276155,48.504407 C70.0597114,48.504407 70.418961,47.4014683 70.418961,46.5472263 C70.418961,45.6930783 70.0597114,44.5907576 69.0276155,44.5907576 C67.9217659,44.5907576 67.6357039,45.6380927 67.6357039,46.5472263 C67.6357039,47.4570853 67.9217659,48.504407 69.0276155,48.504407 Z M71,48.8898918 L70.418961,48.8898918 L70.418961,48.145715 L70.4008939,48.145715 C70.087211,48.7428794 69.6080884,49 68.9352906,49 C67.6452847,49 67,47.9346508 67,46.5472263 C67,45.1234457 67.5529113,44.0945627 68.9352906,44.0945627 C69.8570458,44.0945627 70.3176215,44.7653421 70.4008939,44.9948853 L70.418961,44.9948853 L70.418961,42 L71,42 L71,48.8898918" id="path3097" fill="#000000">
						</path>
						<path d="M75.3393482,46.1630297 C75.3393482,45.3295992 74.9950459,44.5057601 74.0958934,44.5057601 C73.2055435,44.5057601 72.6600416,45.3765133 72.6600416,46.1630297 L75.3393482,46.1630297 Z M75.6363153,48.7379228 C75.2153985,48.9067715 74.6700002,49 74.2198431,49 C72.6027983,49 72,47.9324726 72,46.4999439 C72,45.0394595 72.8232517,44 74.0572685,44 C75.4352164,44 76,45.0864147 76,46.3690176 L76,46.6687488 L72.6600416,46.6687488 C72.6600416,47.6801458 73.2155272,48.4948534 74.2678277,48.4948534 C74.707987,48.4948534 75.3492927,48.3169006 75.6363153,48.1389917 L75.6363153,48.7379228" id="path3099" fill="#000000">
						</path>
						<path d="M78.0330965,45.2066848 C78.0330965,44.6706883 78.0330965,44.4693678 78,44.114805 L78.5249997,44.114805 L78.5249997,45.0533864 L78.5412152,45.0533864 C78.7332415,44.5080461 79.0916375,44 79.6333963,44 C79.7581084,44 79.9083844,44.0287377 80,44.0574585 L80,44.6900989 C79.8915034,44.6514206 79.7500006,44.6319652 79.6166372,44.6319652 C78.7831068,44.6319652 78.5580962,45.7053926 78.5580962,46.5860533 L78.5580962,49 L78.0330965,49 L78.0330965,45.2066848" id="path3101" fill="#000000">
						</path>
						<path d="M85.3097339,46.4810812 L85.1266788,46.4810812 C84.0202141,46.4810812 82.7002677,46.5846243 82.7002677,47.6332316 C82.7002677,48.2602827 83.1877516,48.4948534 83.7764246,48.4948534 C85.2786036,48.4948534 85.3097339,47.2865452 85.3097339,46.7717221 L85.3097339,46.4810812 Z M85.3704682,48.1201017 L85.3500403,48.1201017 C85.0659296,48.6910114 84.3452073,49 83.7051245,49 C82.2332236,49 82,48.082319 82,47.6515766 C82,46.0509249 83.8477248,45.9759483 85.1875615,45.9759483 L85.3097339,45.9759483 L85.3097339,45.7322763 C85.3097339,44.9176783 84.9946146,44.5057601 84.1318622,44.5057601 C83.5933695,44.5057601 83.0860101,44.61778 82.6090772,44.8987198 L82.6090772,44.3278375 C83.0048301,44.1498437 83.674695,44 84.1318622,44 C85.4108132,44 85.9491456,44.5338253 85.9491456,45.7791741 L85.9491456,47.8861336 C85.9491456,48.2699865 85.9491456,48.5599728 86,48.8877692 L85.3704682,48.8877692 L85.3704682,48.1201017" id="path3103" fill="#000000">
						</path>
						<polyline id="path3105" fill="#000000" points="87 48.5846769 90.2321058 45.423451 87.1260023 45.423451 87.1260023 45 91 45 91 45.423451 87.7685686 48.576409 91 48.576409 91 49 87 49 87 48.5846769">
						</polyline>
						<path d="M93,44.1091734 L94,44.1091734 L94,49 L93,49 L93,44.1091734 Z M94,42.8049622 L93,42.8049622 L93,42 L94,42 L94,42.8049622" id="path3107" fill="#000000">
						</path>
						<path d="M99.9598331,47.7358938 C99.9598331,48.1092535 99.9598331,48.492565 100,48.8851923 L99.3926999,48.8851923 L99.3926999,48.0138844 L99.3732233,48.0138844 C99.1641114,48.4539175 98.7859091,49 97.7312053,49 C96.4777479,49 96,48.1959231 96,47.1226672 L96,44 L96.6266458,44 L96.6266458,46.969212 C96.6266458,47.8891809 96.9653185,48.4832547 97.8309226,48.4832547 C98.9750117,48.4832547 99.3330302,47.5152945 99.3330302,46.701249 L99.3330302,44 L99.9598331,44 L99.9598331,47.7358938" id="path3109" fill="#000000">
						</path>
						<path d="M101.03955,45.2647597 C101.03955,44.890761 101.03955,44.5080461 101,44.114805 L101.606755,44.114805 L101.606755,44.9867409 L101.626925,44.9867409 C101.835405,44.5460828 102.213493,44 103.268492,44 C104.522843,44 105,44.804733 105,45.8773451 L105,49 L104.373235,49 L104.373235,46.0306294 C104.373235,45.1113605 104.035186,44.5173732 103.169423,44.5173732 C102.02451,44.5173732 101.666315,45.4847063 101.666315,46.2987075 L101.666315,49 L101.03955,49 L101.03955,45.2647597" id="path3111" fill="#000000">
						</path>
						<path d="M110.055935,48.1949661 C110.411234,48.3729599 110.841241,48.4948534 111.299316,48.4948534 C111.86014,48.4948534 112.355226,48.1852622 112.355226,47.6424452 C112.355226,46.50976 110.065163,46.6875977 110.065163,45.3014928 C110.065163,44.3559027 110.831523,44 111.616859,44 C111.869234,44 112.37416,44.0561688 112.794453,44.2157738 L112.738531,44.7306106 C112.430082,44.5898709 112.009781,44.5057601 111.682509,44.5057601 C111.07482,44.5057601 110.653893,44.6928004 110.653893,45.3014928 C110.653893,46.1910949 113,46.0789217 113,47.6424452 C113,48.6538011 112.055985,49 111.336453,49 C110.878392,49 110.420317,48.9438285 110,48.7757357 L110.055935,48.1949661" id="path3113" fill="#000000">
						</path>
						<polyline id="path3115" fill="#000000" points="118.31918 49 117.624641 49 116 45 116.648283 45 117.97221 48.4590391 117.990478 48.4590391 119.380496 45 120 45 118.31918 49">
						</polyline>
						<path d="M120,44.1091734 L121,44.1091734 L121,49 L120,49 L120,44.1091734 Z M121,42.8049622 L120,42.8049622 L120,42 L121,42 L121,42.8049622" id="path3117" fill="#000000">
						</path>
						<polyline id="path3119" fill="#000000" points="123 48.5846769 126.232048 45.423451 123.126086 45.423451 123.126086 45 127 45 127 45.423451 123.768666 48.576409 127 48.576409 127 49 123 49 123 48.5846769">
						</polyline>
						<path d="M129.033315,45.2066848 C129.033315,44.6706883 129.033315,44.4693678 129,44.114805 L129.525266,44.114805 L129.525266,45.0533864 L129.541923,45.0533864 C129.73293,44.5080461 130.091619,44 130.633533,44 C130.75791,44 130.907838,44.0287377 131,44.0574585 L131,44.6900989 C130.891181,44.6514206 130.750149,44.6319652 130.616875,44.6319652 C129.782902,44.6319652 129.558581,45.7053926 129.558581,46.5860533 L129.558581,49 L129.033315,49 L129.033315,45.2066848" id="path3121" fill="#000000">
						</path>
						<path d="M135.309868,46.4810895 L135.127187,46.4810895 C134.020277,46.4810895 132.699592,46.5846352 132.699592,47.6332304 C132.699592,48.2602808 133.186734,48.4948512 133.77676,48.4948512 C135.278744,48.4948512 135.309868,47.2865443 135.309868,46.7717246 L135.309868,46.4810895 Z M135.370745,48.1201 L135.350463,48.1201 C135.066295,48.6910117 134.345066,49 133.705015,49 C132.232759,49 132,48.0823282 132,47.6515863 C132,46.0509337 133.847083,45.9759516 135.18674,45.9759516 L135.309868,45.9759516 L135.309868,45.7322745 C135.309868,44.9176855 134.994562,44.5057623 134.131236,44.5057623 C133.592687,44.5057623 133.085247,44.617793 132.608916,44.8987188 L132.608916,44.3278454 C133.004054,44.1498545 133.673877,44 134.131236,44 C135.41134,44 135.948564,44.5338275 135.948564,45.7791803 L135.948564,47.8861293 C135.948564,48.26999 135.948564,48.559976 136,48.8877694 L135.370745,48.8877694 L135.370745,48.1201" id="path3131" fill="#000000">
						</path>
						<path d="M26.9534194,2.21089792 C26.9534194,2.21089792 21.9232485,0 13.5017626,0 L13.499215,0 C5.07766533,0 0.046289588,2.21089792 0.046289588,2.21089792 C0.046289588,2.21089792 -0.404207771,11.9997178 1.50557658,17.5345037 C4.87842462,27.2662281 13.4980616,30 13.4980616,30 L13.5004952,30 L13.5030047,30 C13.5030047,30 22.1213242,27.2662281 25.495376,17.5345037 C27.4051083,11.9997178 26.9534194,2.21089792 26.9534194,2.21089792" id="path3133" fill="#FF0000">
						</path>
						<polyline id="path3135" fill="#FFFFFF" points="22 9.64925129 22 15.3493472 15.349985 15.3493472 15.349985 22 9.65009381 22 9.65009381 15.3493472 3 15.3493472 3 9.64925129 9.65009381 9.64925129 9.65009381 3 15.3486408 3 15.349985 9.64925129 22 9.64925129">
						</polyline>
					</g>
				</g>
			</g>
		</g>
	</g>
</svg>
