<svg width="60px" height="52px" viewBox="0 0 60 52" version="1.1" xmlns="http://www.w3.org/2000/svg" xmlns:xlink="http://www.w3.org/1999/xlink">
	<g id="Startpage" stroke="none" stroke-width="1" fill="none" fill-rule="evenodd">
		<g id="Artboard" transform="translate(-1168.000000, -294.000000)" fill="#DB2631" fill-rule="nonzero">
			<g id="Group-5" transform="translate(132.000000, 284.000000)">
				<g id="LegalAnthology" transform="translate(927.000000, 0.000000)">
					<g id="anthology-logo-all-red" transform="translate(109.000000, 10.000000)">
						<g id="Group" transform="translate(30.000000, 26.000000) scale(-1, 1) rotate(-180.000000) translate(-30.000000, -26.000000) ">
							<path d="M27.1564776,50.9517443 L27.1564776,49.9034886 L25.8326182,49.9034886 C24.4808881,49.9034886 24.2402078,49.8942789 23.2680392,49.7969864 C19.3425186,49.4082888 15.5306066,48.0428879 12.2392631,45.8398743 C11.9985828,45.6802391 11.6745266,45.4556634 11.52171,45.3470359 L11.2439476,45.1456027 L11.237098,46.2703699 C11.2323741,47.246837 11.2278865,47.394901 11.1976538,47.3833299 C11.1097902,47.3509777 10.2741408,46.7284947 9.71625399,46.2795797 C8.4941936,45.2983897 7.28606857,44.1296991 6.25367083,42.9265311 C5.93882612,42.5609758 5.35330473,41.8343521 5.35330473,41.8112097 C5.35330473,41.7996385 5.85545014,41.7927903 6.46671653,41.7927903 L7.58225406,41.7927903 L7.52674881,41.7257246 C7.49675235,41.6886495 7.33236232,41.4943007 7.16324844,41.2931036 C4.60788096,38.261687 2.85131677,34.6238454 2.06904696,30.7432448 C1.80970751,29.4543555 1.66633862,28.1954569 1.61319529,26.735125 L1.596898,26.3117138 L0.798567098,26.3117138 L-5.4725338e-15,26.3117138 L0.013935362,25.4509587 C0.071802543,21.6766242 0.946659843,18.0503538 2.64323111,14.5516026 L2.83076802,14.162905 L3.82135968,14.162905 L4.80958942,14.162905 L4.93453529,13.9477752 C6.43223241,11.3945559 8.64488446,8.92776632 11.0937291,7.08345973 C11.649254,6.66453529 12.1190411,6.33841654 12.6329961,6.00970018 L13.0264929,5.75749539 L13.0380664,4.60037602 L13.0496398,3.44089518 L13.292682,3.30440232 C15.9843326,1.77251796 19.1991497,0.684825751 22.3192536,0.245356536 C23.154903,0.127283131 24.5621383,0 25.0458607,0 L25.1431721,0 L25.1431721,1.0992634 L25.1431721,2.19852681 L25.902295,2.19852681 C27.8558438,2.19852681 29.7281423,2.42995068 31.6469708,2.90436962 C34.8039208,3.68884933 37.674133,5.04716578 40.2987049,7.00269752 L40.7429831,7.33590067 L40.7429831,5.94735743 C40.7429831,5.18365864 40.747707,4.55881418 40.7545565,4.55881418 C40.7614061,4.55881418 40.9420935,4.68373584 41.154903,4.83652283 C42.3398811,5.68570676 43.3722789,6.56063069 44.4230996,7.61337318 C45.4323505,8.62006703 46.2469787,9.5733917 47.0986891,10.7373593 C47.3601543,11.0960663 48.0337755,12.0956758 48.0337755,12.1280279 C48.0337755,12.1395991 47.5269063,12.1488088 46.7932921,12.1488088 C45.6243751,12.1488088 45.5549345,12.1511703 45.5665079,12.1903707 C45.6175255,12.3592156 45.791127,13.8032534 45.8466323,14.5090962 C45.8650553,14.7568142 45.8860764,15.0297999 45.892926,15.1176465 L45.9044995,15.272795 L45.6059521,15.272795 L45.3050427,15.272795 L45.2934693,15.1986449 C45.2866197,15.157083 45.2750463,15.0135058 45.2679605,14.8793744 C45.2356021,14.2847567 45.112782,13.1762836 44.9994095,12.4680793 L44.9483919,12.1488088 L42.8467504,12.1488088 L40.7427469,12.1488088 L40.7427469,10.4941281 L40.7427469,8.84180888 L40.6685825,8.83023769 C40.2358777,8.76081053 38.0553478,8.73530667 37.2707161,8.78867585 C34.9352439,8.95303403 32.9077668,9.33252196 30.6974767,10.0244321 C30.3155533,10.1425055 29.52171,10.4154912 29.3041767,10.5012125 L29.2415856,10.5267164 L29.4914774,10.9269852 C30.1303783,11.9476117 30.6580325,12.9240788 31.1533283,14.0001998 C31.3895209,14.5093323 31.692556,15.2151752 31.692556,15.2498887 C31.692556,15.2638214 31.5583986,15.2730311 31.3708617,15.2730311 L31.0515293,15.2730311 L30.8942251,14.9074759 C30.5238751,14.053569 30.0817226,13.1625871 29.6374444,12.3688976 C29.2602449,11.6954069 28.681573,10.7605017 28.6421289,10.7605017 C28.6329174,10.7605017 28.4477424,10.8346518 28.232571,10.9248599 C25.9944101,11.8574037 23.8696217,13.0676561 21.9160729,14.5185421 C20.705586,15.4187337 19.7473527,16.2447753 18.6363028,17.3556098 C17.2845727,18.707078 16.2384758,19.956767 15.1737196,21.4954996 L14.8935952,21.8981299 L14.958312,22.0509169 C15.5046254,23.3721583 16.3934181,24.9342694 17.337716,26.2418143 C19.4601425,29.1782999 22.3858599,31.7239625 25.827422,33.6284866 C26.2903594,33.8854143 27.1141991,34.3180353 27.1397079,34.3180353 C27.1489194,34.3180353 27.1560052,33.0267845 27.1560052,31.4486154 L27.1560052,28.5791955 L30.2087942,28.5791955 L33.2594575,28.5791955 L33.2757548,28.3893334 C33.2826044,28.2828312 33.2965398,27.7368598 33.3057513,27.1743581 L33.3196867,26.1492448 L33.620596,26.1492448 L33.9215053,26.1492448 L33.90757,27.2090717 C33.8983585,27.7899928 33.8844231,28.3359643 33.8775735,28.424047 L33.8612762,28.5791955 L36.1457308,28.5791955 L38.4278235,28.5791955 L38.4325473,30.7890573 L38.4393969,32.9989192 L38.8444672,32.6123468 C39.2958312,32.1818512 39.7471952,31.7168781 40.0549541,31.3721038 L40.2564264,31.1430414 L40.2564264,29.8494292 L40.2564264,28.5558169 L41.2078101,28.551094 L42.1568319,28.5442457 L42.3675156,28.1855387 C42.6707869,27.669558 42.9969689,27.047075 43.221588,26.5655716 L43.4136126,26.1490086 L43.7329449,26.1490086 C43.9273314,26.1490086 44.0522773,26.1582184 44.0522773,26.172151 C44.0522773,26.2810147 43.1982049,27.9772572 42.890446,28.4816668 L42.8441523,28.5558169 L47.0866433,28.5558169 L51.3267724,28.5558169 L51.3128371,29.2453656 C51.2965398,29.9927703 51.2596937,30.513474 51.169232,31.2238036 C50.7849467,34.2623046 49.6878321,37.2797886 48.0862103,39.7165875 L47.8918238,40.0105903 L46.6142582,40.0129517 L45.3366925,40.0129517 L45.1467937,40.2722409 C44.1399047,41.6421286 42.7095225,43.1463838 41.2977995,44.3195611 C40.5455261,44.9467671 39.6938157,45.5692501 38.8560406,46.1060118 L38.4278235,46.3813589 L38.4278235,47.563746 L38.4278235,48.7463692 L38.1800575,48.8828621 C35.6757076,50.2643209 32.9167421,51.2200071 30.0954218,51.6828548 C29.2852813,51.8148609 28.2831162,51.9282114 27.6189426,51.962925 C27.4732118,51.9697732 27.3088218,51.9813444 27.2554423,51.9884288 L27.1560052,52 L27.1560052,50.9517443 L27.1564776,50.9517443 Z M26.8742275,49.2994251 L27.1567138,49.2854924 L27.1567138,48.170171 L27.1567138,47.0548496 L26.9783884,47.0132878 C26.8789513,46.9901454 26.5478093,46.8999373 26.2424123,46.8118546 C22.6409479,45.7867413 19.298823,43.9237791 16.4057001,41.3297064 C15.9311892,40.9039337 14.9916152,39.9643055 14.5678857,39.492248 C13.024131,37.7705016 11.7581388,35.9354048 10.7349526,33.9430341 L10.4524662,33.3923398 L10.3806637,33.8967493 C10.1723418,35.3060735 10.0797544,36.342758 10.026611,37.8007284 C9.98504114,38.9623346 10.0381845,40.8876395 10.1354958,41.6836904 L10.1494312,41.7925541 L10.6910207,41.7925541 L11.2326103,41.7925541 L11.2326103,43.0861663 L11.2326103,44.3774171 L11.5750896,44.6319834 C14.1165217,46.5272977 16.9541393,47.8671947 20.0324371,48.6306573 C22.2382396,49.1792263 24.6174074,49.4106502 26.8742275,49.2994251 Z M32.7925048,41.7925541 L38.4285321,41.7925541 L38.4332559,43.7270688 L38.4401055,45.6639449 L38.9030429,45.3538842 C40.9744518,43.9653409 42.7336141,42.3456099 44.2889423,40.3948011 L44.5874897,40.0221615 L42.4211314,40.0153132 L40.257135,40.0105903 L40.257135,36.0421431 L40.257135,32.0734598 L39.7086958,32.6241542 C39.4054246,32.9273667 38.9935047,33.3184258 38.7943944,33.4943552 L38.4287683,33.8159871 L38.4287683,36.9144694 L38.4287683,40.0108264 L32.792741,40.0108264 L27.1567138,40.0108264 L27.1567138,37.5671792 L27.1567138,35.123532 L27.0941227,35.1374647 C26.9483919,35.1674553 26.2584734,35.2694708 25.8257686,35.3226038 C22.1711609,35.7807286 18.5765461,35.5840183 15.176554,34.7440441 C13.9429201,34.4408316 12.5611936,33.9874297 11.4454198,33.524582 C11.2139511,33.429651 11.1397866,33.4065086 11.1513601,33.4343739 C11.1813565,33.5153722 11.6303586,34.3508597 11.8457662,34.7232632 C13.3271661,37.2941935 15.2875645,39.6315746 17.5396607,41.5127201 C20.2499705,43.7712282 23.3861355,45.4143377 26.7284966,46.3261006 L27.1451403,46.439451 L27.1519899,44.1160026 L27.1567138,41.7925541 L32.7925048,41.7925541 Z M9.53367712,41.6836904 C9.52682754,41.6211115 9.51053025,41.4059818 9.49659489,41.2024232 C9.48265953,40.9988647 9.46872417,40.7650793 9.46187458,40.6817195 C9.455025,40.5983597 9.43872771,40.1494446 9.42479235,39.6797486 C9.36692517,37.5924469 9.52659135,35.303712 9.87851829,33.230343 C9.91087667,33.0428425 9.93638547,32.876359 9.93638547,32.8624263 C9.93638547,32.8484937 9.77671929,32.7582856 9.58445853,32.6609931 C7.02909105,31.383675 4.47159784,29.3889429 2.65480455,27.2598432 C2.52749675,27.1117792 2.37704208,26.9358498 2.31681297,26.8664226 L2.2079282,26.7391395 L2.21950163,26.9937058 C2.28209267,28.3057375 2.41388812,29.3887067 2.65693028,30.6036821 C3.17537299,33.1909065 4.12439476,35.6345537 5.49927174,37.9277754 C6.2607566,39.1958838 7.33708617,40.6399215 8.24666378,41.6140271 L8.41341574,41.792318 L8.98051411,41.792318 L9.54761249,41.792318 L9.53367712,41.6836904 Z M34.1003031,36.8866041 L34.1003031,35.5906304 L35.396528,35.5906304 L36.6927528,35.5906304 L36.6927528,34.2946567 L36.6927528,32.998683 L35.396528,32.998683 L34.1003031,32.998683 L34.1003031,31.6911381 L34.1003031,30.3840655 L32.7925048,30.3840655 L31.4847065,30.3840655 L31.4847065,31.6916104 L31.4847065,32.9991553 L30.1884817,32.9991553 L28.8922568,32.9991553 L28.8922568,34.295129 L28.8922568,35.5911027 L30.1884817,35.5911027 L31.4847065,35.5911027 L31.4847065,36.8870764 L31.4847065,38.1830501 L32.7925048,38.1830501 L34.1003031,38.1830501 L34.1003031,36.8866041 Z M23.8930048,34.9105276 C24.7007834,34.8526716 25.9644137,34.7185402 26.3418494,34.6512384 C26.4160139,34.6373057 26.3997166,34.6257346 26.0293666,34.4290243 C21.5785537,32.0524428 18.0765264,28.8127447 15.7457781,24.9226982 C15.3591308,24.2770729 14.9217022,23.4439469 14.6231547,22.7891118 C14.5605637,22.6502575 14.5026965,22.5392685 14.4958469,22.5392685 C14.4889974,22.5392685 14.3501161,22.7614826 14.1902138,23.0321069 C12.7621934,25.4271078 11.6882258,28.0561303 10.9798843,30.8931981 C10.8362792,31.4601866 10.6534661,32.2838666 10.6534661,32.3556553 C10.6534661,32.3764362 10.6697634,32.4319307 10.6905484,32.4760901 C10.7252687,32.5478788 10.7647128,32.5710212 11.0793213,32.7122369 C13.6439003,33.8507007 16.5023029,34.5844089 19.414085,34.8481848 C19.8515136,34.8876214 20.1455734,34.9084023 20.9764988,34.9523256 C21.3678699,34.9728704 23.4092824,34.9428797 23.8930048,34.9105276 Z M9.86930677,32.0987275 C9.85537141,32.0755851 9.76278392,31.8488842 9.66098492,31.5966794 C9.21883242,30.4834833 8.85320631,29.3450196 8.55914656,28.1626325 C8.47128292,27.806287 8.24193993,26.7162333 8.1887966,26.3993243 L8.17486124,26.3114776 L5.42298154,26.3114776 C3.90686139,26.3114776 2.66873991,26.3183259 2.66873991,26.3254103 C2.66873991,26.3322586 2.73818053,26.4248281 2.82604417,26.5268435 C4.40003149,28.4197964 6.31649805,30.0581829 8.46655907,31.3494337 C8.9108373,31.6155712 9.83907413,32.1339134 9.88536787,32.1431231 C9.8877298,32.142887 9.88088021,32.1242314 9.86930677,32.0987275 Z M10.4108964,30.6917648 C11.1815927,27.6348444 12.3689328,24.7977766 13.9358344,22.2847022 C14.0839271,22.0485554 14.2020234,21.8405101 14.1996963,21.8218545 C14.1996963,21.803435 14.1302208,21.6112115 14.0492068,21.3937203 C12.8410818,18.2026685 12.4662441,14.6968329 12.959178,11.2233495 L13.0378302,10.656361 L13.0331063,9.29568305 L13.0262567,7.93500513 L12.7577058,8.31213159 C11.6003622,9.92973724 10.6329174,11.74854 9.93402354,13.6207119 C9.83458647,13.8936976 9.75121049,14.1251215 9.75121049,14.1390541 C9.75121049,14.1553483 9.9989765,14.1621965 10.4919104,14.1621965 L11.2326103,14.1621965 L11.2326103,20.2368371 L11.2326103,26.3112415 L10.0058261,26.3112415 L8.77904185,26.3112415 L8.79061528,26.3643745 C8.79533913,26.3922399 8.85320631,26.6767968 8.91556115,26.9937058 C9.12388301,28.0303903 9.40164547,29.0670748 9.74884856,30.0829784 C9.96402,30.7146711 10.2141479,31.3858003 10.232571,31.3695062 C10.2396567,31.3628941 10.3183089,31.0575562 10.4108964,30.6917648 Z M14.9474472,20.7688759 C17.2989804,17.4526662 20.4490808,14.5324747 23.9348108,12.4336019 L24.3861749,12.1606162 L18.9376845,12.1537679 C15.9404007,12.1514064 13.4776208,12.1537679 13.4636854,12.1584908 C13.4150297,12.1769103 13.3411014,13.3850374 13.3387279,14.1532229 C13.3363776,16.2960191 13.6927922,18.4806133 14.3827107,20.5263531 C14.5863087,21.1349034 14.6189033,21.2229862 14.6373263,21.2019691 C14.6465378,21.1925232 14.785419,20.9981744 14.9474472,20.7688759 Z M9.13309452,14.0651402 C9.15387946,14.0096457 9.2164705,13.8360778 9.27197575,13.6764425 C10.0889659,11.3669267 11.3665315,9.06213386 12.9289454,7.07188854 L13.0378302,6.93539568 L13.0378302,6.70633328 C13.0378302,6.58141161 13.0331063,6.47963234 13.0262567,6.47963234 C13.0194072,6.47963234 12.8247845,6.604554 12.5935519,6.75970246 C9.86245719,8.5855896 7.55698146,10.9366672 5.81199071,13.6764425 C5.67995906,13.8870855 5.55737511,14.0814343 5.54107783,14.111425 L5.5132071,14.1624327 L7.30472779,14.1624327 L9.09624847,14.1624327 L9.13309452,14.0651402 Z M26.3234264,11.126057 C26.8742275,10.8575581 27.3626737,10.6355801 27.8903279,10.4133659 L28.3114593,10.2374365 L28.0544818,9.87872953 C27.3324411,8.86967421 26.5223005,7.90950128 25.6474432,7.0232423 L25.1452978,6.51410977 L25.1429359,9.12211515 L25.1429359,11.732482 L25.5201354,11.5334102 C25.7260953,11.4245466 26.0872338,11.2417689 26.3234264,11.126057 Z M29.4688029,9.80245411 C32.9845294,8.5482784 36.641499,7.99522257 40.129591,8.19193286 C40.3471244,8.20586552 40.5717435,8.22192351 40.6340983,8.22900791 C40.7406212,8.24294057 40.7429831,8.24294057 40.7429831,8.17587488 C40.7429831,8.1295901 40.7198362,8.09251505 40.6666929,8.05095322 C38.329095,6.19035249 35.8639531,4.84833017 33.1512813,3.96183504 C31.3597607,3.37406563 29.529032,3.01063569 27.6309885,2.85808485 C26.8232099,2.79338062 25.3996772,2.75394411 25.2145022,2.79101916 L25.1426997,2.80731329 L25.1426997,4.24426663 L25.1426997,5.68121997 L25.5154116,6.02835578 C26.5709562,7.01875551 27.8785183,8.53906867 28.7186553,9.75876695 C28.8088808,9.88841155 28.8898949,9.99491376 28.9014683,9.99703908 C28.913278,9.99680294 29.1678936,9.90895632 29.4688029,9.80245411 Z" id="Shape">
							</path>
							<path d="M40.3934181,25.422621 C40.23139,25.3647651 40.1319529,25.2606243 40.0299177,25.0454946 L39.9673267,24.9113632 L39.9604771,23.7311014 C39.9557533,22.9095467 39.9604771,22.5092778 39.9789001,22.4119854 C40.0507027,22.0393457 40.3029563,21.8218545 40.6617329,21.8218545 C41.0181475,21.8218545 41.2727631,22.0417072 41.3445656,22.4119854 C41.3629886,22.5092778 41.3677125,22.9095467 41.3629886,23.7311014 L41.356139,24.9113632 L41.2890603,25.0570658 C41.2104082,25.2282722 41.0483801,25.3857821 40.9094989,25.427344 C40.7892769,25.4641829 40.499941,25.4620576 40.3934181,25.422621 Z M40.7777034,24.8695652 C40.8076999,24.8280034 40.8124237,24.6405028 40.8124237,23.6477416 C40.8124237,22.4977067 40.8124237,22.4745643 40.7637681,22.4143468 C40.7358973,22.3796332 40.6943274,22.3541294 40.6619691,22.3541294 C40.6296107,22.3541294 40.5878046,22.3796332 40.5601701,22.4143468 C40.5115144,22.4745643 40.5115144,22.4977067 40.5115144,23.6293222 C40.5115144,24.330442 40.5207259,24.804861 40.5346613,24.841936 C40.5741054,24.9482021 40.7129867,24.9621348 40.7777034,24.8695652 Z" id="Shape">
							</path>
							<path d="M43.5180097,25.422621 C43.3559816,25.3647651 43.2565445,25.2606243 43.1545093,25.0454946 L43.0919183,24.9113632 L43.0850687,23.7311014 C43.0803448,22.9095467 43.0850687,22.5092778 43.1034917,22.4119854 C43.1752943,22.0393457 43.4275479,21.8218545 43.7863244,21.8218545 C44.142739,21.8218545 44.3973546,22.0417072 44.4691572,22.4119854 C44.4875802,22.5092778 44.4923041,22.9095467 44.4875802,23.7311014 L44.4807306,24.9113632 L44.4136519,25.0570658 C44.3349998,25.2282722 44.1729717,25.3857821 44.0340905,25.427344 C43.9138684,25.4641829 43.6245325,25.4620576 43.5180097,25.422621 Z M43.902295,24.8695652 C43.9322915,24.8280034 43.9370153,24.6405028 43.9370153,23.6477416 C43.9370153,22.4977067 43.9370153,22.4745643 43.8883596,22.4143468 C43.8604889,22.3796332 43.818919,22.3541294 43.7865606,22.3541294 C43.7542023,22.3541294 43.7123962,22.3796332 43.6847616,22.4143468 C43.636106,22.4745643 43.636106,22.4977067 43.636106,23.6293222 C43.636106,24.330442 43.6453175,24.804861 43.6592528,24.841936 C43.698697,24.9482021 43.8375782,24.9621348 43.902295,24.8695652 Z" id="Shape">
							</path>
							<path d="M45.2795339,25.4341922 C45.091997,25.3763363 44.9439043,25.2282722 44.8584026,25.0176293 C44.8052592,24.8879847 44.8052592,24.8834979 44.8052592,23.5922471 L44.8052592,22.2962734 L44.8607645,22.1758385 C44.9162697,22.0485554 45.0759359,21.8818358 45.1779711,21.8449969 C45.2103295,21.8310642 45.3100028,21.8218545 45.3978664,21.8218545 C45.5622564,21.8218545 45.6987757,21.8681393 45.7634925,21.9467761 C45.8097862,21.9999092 45.8305712,21.9930609 45.8468685,21.914424 L45.8631658,21.8449969 L46.0344054,21.8449969 L46.205645,21.8449969 L46.205645,22.74755 L46.205645,23.6501031 L45.8237216,23.6501031 L45.4417982,23.6501031 L45.4417982,23.407108 L45.4417982,23.164113 L45.5459591,23.164113 L45.6501201,23.164113 L45.6501201,22.800683 C45.6501201,22.3725488 45.6338228,22.3239026 45.506515,22.3123314 C45.3468488,22.2983987 45.3492107,22.2868275 45.3492107,23.6127919 C45.3492107,24.8485482 45.3515726,24.8877485 45.4557336,24.9132524 C45.6153998,24.9526889 45.6501201,24.8693291 45.6501201,24.4480432 L45.6501201,24.1124785 L45.9302445,24.1124785 L46.2103689,24.1124785 L46.2011573,24.5011762 C46.1919458,24.8367408 46.1848601,24.906168 46.1364406,25.0242414 C46.0693619,25.2025322 45.9096957,25.3645289 45.7545172,25.4153005 C45.6383104,25.4549732 45.3836948,25.4641829 45.2795339,25.4341922 Z" id="Path">
							</path>
							<polygon id="Path" points="27.1796245 25.1425509 27.1796245 24.8532711 27.4226666 24.8532711 27.6657088 24.8532711 27.6657088 23.3605871 27.6657088 21.8679031 27.9318978 21.8679031 28.1980868 21.8679031 28.1980868 23.3605871 28.1980868 24.8532711 28.441129 24.8532711 28.6841712 24.8532711 28.6841712 25.1425509 28.6841712 25.4318308 27.9318978 25.4318308 27.1796245 25.4318308">
							</polygon>
							<polygon id="Path" points="28.892493 23.6501031 28.892493 21.8681393 29.1702555 21.8681393 29.448018 21.8681393 29.448018 22.631838 29.448018 23.3955368 29.6331929 23.3955368 29.8183679 23.3955368 29.8183679 22.631838 29.8183679 21.8681393 30.0845569 21.8681393 30.350746 21.8681393 30.350746 23.6501031 30.350746 25.4320669 30.0845569 25.4320669 29.8183679 25.4320669 29.8183679 24.6915105 29.8183679 23.9509541 29.6331929 23.9509541 29.448018 23.9509541 29.448018 24.6915105 29.448018 25.4320669 29.1702555 25.4320669 28.892493 25.4320669">
							</polygon>
							<polygon id="Path" points="30.7210959 23.6385319 30.7210959 21.8449969 31.3229146 21.8449969 31.9247333 21.8449969 31.9247333 22.1342767 31.9247333 22.4235566 31.6006771 22.4235566 31.2766209 22.4235566 31.2766209 22.8864043 31.2766209 23.3492521 31.5080896 23.3492521 31.7395583 23.3492521 31.7395583 23.6501031 31.7395583 23.9509541 31.5080896 23.9509541 31.2766209 23.9509541 31.2766209 24.4022307 31.2766209 24.8535072 31.6006771 24.8535072 31.9247333 24.8535072 31.9247333 25.1427871 31.9247333 25.4320669 31.3229146 25.4320669 30.7210959 25.4320669">
							</polygon>
							<path d="M33.3248829,25.3810592 C33.3064599,25.2976994 32.8040783,21.9514991 32.8040783,21.9075758 C32.8040783,21.8728622 32.8340747,21.8681393 33.0655434,21.8681393 L33.3293705,21.8681393 L33.3733024,22.2221233 L33.4172342,22.5739821 L33.6510648,22.5808303 C33.9264654,22.5876786 33.8917451,22.6363248 33.9496123,22.1758385 L33.9911821,21.8681393 L34.2526473,21.8681393 C34.3983781,21.8681393 34.5164744,21.877349 34.5164744,21.8889202 C34.5164744,21.9097011 34.0188167,25.2188264 33.9956698,25.3576807 L33.9817344,25.4318308 L33.6600402,25.4318308 C33.3433059,25.4318308 33.3364563,25.4318308 33.3248829,25.3810592 Z M33.7415266,23.7426726 C33.773885,23.4812581 33.8062434,23.2451113 33.8133291,23.2174821 C33.8225406,23.1664744 33.818053,23.1643491 33.6581506,23.1643491 L33.4937606,23.1643491 L33.505334,23.2406245 C33.5145455,23.280061 33.5469039,23.5367526 33.5839861,23.8099745 C33.6210684,24.1016158 33.6534268,24.2843934 33.6650002,24.261251 C33.6744479,24.235511 33.7091682,24.0040872 33.7415266,23.7426726 Z" id="Shape">
							</path>
							<path d="M34.7481793,23.6501031 L34.7481793,21.8681393 L35.0027949,21.8681393 L35.2574105,21.8681393 L35.2597725,22.8469678 L35.2597725,23.8234348 L35.4796678,23.0250225 C35.600126,22.5853171 35.720348,22.1456118 35.7458568,22.0485554 L35.7945125,21.8681393 L36.0351927,21.8681393 L36.2758729,21.8681393 L36.2758729,23.6501031 L36.2758729,25.4320669 L36.0328308,25.4320669 L35.7897886,25.4320669 L35.7850648,24.4253731 L35.7782152,23.4163177 L35.5722552,24.1752936 C35.4588828,24.5918566 35.3339369,25.0454946 35.2968547,25.1843489 L35.2274141,25.4320669 L34.9890958,25.4320669 L34.7484155,25.4320669 L34.7484155,23.6501031 L34.7481793,23.6501031 Z" id="Path">
							</path>
							<polygon id="Path" points="36.4610479 25.1425509 36.4610479 24.8532711 36.7040901 24.8532711 36.9471322 24.8532711 36.9471322 23.3605871 36.9471322 21.8679031 37.2133213 21.8679031 37.4795103 21.8679031 37.4795103 23.3605871 37.4795103 24.8532711 37.7225525 24.8532711 37.9655946 24.8532711 37.9655946 25.1425509 37.9655946 25.4318308 37.2133213 25.4318308 36.4610479 25.4318308">
							</polygon>
							<polygon id="Path" points="38.1739165 23.6501031 38.1739165 21.8681393 38.4516789 21.8681393 38.7294414 21.8681393 38.7294414 22.631838 38.7294414 23.3955368 38.9146164 23.3955368 39.0997914 23.3955368 39.0997914 22.631838 39.0997914 21.8681393 39.3659804 21.8681393 39.6321694 21.8681393 39.6321694 23.6501031 39.6321694 25.4320669 39.3659804 25.4320669 39.0997914 25.4320669 39.0997914 24.6915105 39.0997914 23.9509541 38.9146164 23.9509541 38.7294414 23.9509541 38.7294414 24.6915105 38.7294414 25.4320669 38.4516789 25.4320669 38.1739165 25.4320669">
							</polygon>
							<polygon id="Path" points="41.7151518 23.6501031 41.7151518 21.8681393 42.3285439 21.8681393 42.941936 21.8681393 42.941936 22.1111343 42.941936 22.3541294 42.5947329 22.3541294 42.2475298 22.3541294 42.2475298 23.8930982 42.2475298 25.4320669 41.9813408 25.4320669 41.7151518 25.4320669">
							</polygon>
							<path d="M46.4229422,25.3926304 C46.427666,25.369488 46.55025,24.9066403 46.6891312,24.3651556 L46.9461087,23.3792427 L46.9461087,22.6247536 L46.9461087,21.8681393 L47.2238712,21.8681393 L47.5016337,21.8681393 L47.5016337,22.6363248 L47.5016337,23.4023851 L47.7562493,24.3788521 C47.8974924,24.9156138 48.0108649,25.3716133 48.0108649,25.3923943 C48.0108649,25.4271078 47.9785065,25.4318308 47.7515254,25.4318308 L47.4900602,25.4318308 L47.3651144,24.8811364 C47.2980357,24.5802854 47.2330827,24.3257191 47.2262331,24.3165094 C47.2170216,24.3072997 47.1520687,24.5502947 47.082628,24.8603555 L46.9529583,25.4202596 L46.6820454,25.4271078 C46.4297918,25.4318308 46.4113687,25.4294693 46.4229422,25.3926304 Z" id="Path">
							</path>
							<path d="M49.4039287,19.6698486 C49.2095422,19.6282868 49.068299,19.5054904 48.9665,19.2879992 L48.9017833,19.1491449 L48.9017833,17.8531712 C48.9017833,16.5666434 48.9017833,16.5571975 48.9528009,16.4485699 C49.0246034,16.2912962 49.1750581,16.1385092 49.3023659,16.0898629 C49.462032,16.027284 49.749006,16.0343684 49.8902492,16.1037956 C50.1843089,16.2450114 50.2998071,16.5248454 50.302169,17.0965568 L50.302169,17.3327036 L50.03598,17.3327036 L49.769791,17.3327036 L49.769791,17.0134331 C49.769791,16.6662973 49.7534937,16.6108028 49.6424832,16.5829375 C49.5614691,16.5621566 49.4943904,16.6037184 49.4549463,16.696288 C49.4062906,16.8119999 49.4062906,18.917721 49.4549463,19.0334329 C49.4943904,19.1260025 49.5614691,19.1675643 49.6424832,19.1467834 C49.7442822,19.1212796 49.769791,19.0334329 49.769791,18.6978683 L49.769791,18.3970173 L50.03598,18.3970173 L50.302169,18.3970173 L50.302169,18.6352894 C50.2998071,19.1073469 50.2258788,19.3595517 50.03598,19.5262713 C49.8831634,19.6606389 49.6309097,19.7161334 49.4039287,19.6698486 Z" id="Path">
							</path>
							<path d="M27.7559343,19.6374965 C27.5939062,19.5796405 27.4944692,19.4754998 27.392434,19.26037 L27.3298429,19.1262386 L27.3229933,17.9459769 C27.3182695,17.1244221 27.3229933,16.7241533 27.3414164,16.6268608 C27.4132189,16.2542211 27.6654726,16.0367299 28.0242491,16.0367299 C28.3806637,16.0367299 28.6352793,16.2565826 28.7070818,16.6268608 C28.7255049,16.7241533 28.7302287,17.1244221 28.7255049,17.9459769 L28.7186553,19.1262386 L28.6515766,19.2719412 C28.5729245,19.4431477 28.4108964,19.6006576 28.2720151,19.6422194 C28.1517931,19.6790583 27.8624572,19.6766969 27.7559343,19.6374965 Z M28.1402197,19.0842045 C28.1702161,19.0426427 28.17494,18.8551421 28.17494,17.8623809 C28.17494,16.7123459 28.17494,16.6892035 28.1262843,16.6289861 C28.0984136,16.5942725 28.0568437,16.5687687 28.0244853,16.5687687 C27.9921269,16.5687687 27.9503208,16.5942725 27.9226863,16.6289861 C27.8740306,16.6892035 27.8740306,16.7123459 27.8740306,17.8439615 C27.8740306,18.5450813 27.8832421,19.0195003 27.8971775,19.0565753 C27.9366217,19.1630775 28.0755029,19.1767741 28.1402197,19.0842045 Z" id="Shape">
							</path>
							<path d="M31.6838169,19.6467062 C31.5010038,19.5888502 31.3297642,19.3968629 31.2648112,19.1746487 C31.209306,18.9895096 31.2185175,18.6794489 31.2879581,18.4758903 C31.3689722,18.2305338 31.4084163,18.1587452 31.7069637,17.714553 C31.8505688,17.4970618 32.0010235,17.2493438 32.0425934,17.1638586 C32.1073102,17.0250043 32.1143959,16.9879293 32.1051844,16.8467135 C32.0983348,16.7310015 32.0843995,16.6684226 32.0496792,16.6221379 C31.991812,16.543501 31.8713538,16.52272 31.8089989,16.580576 C31.7419202,16.6407935 31.6932646,16.8167228 31.6932646,16.9924161 C31.6932646,17.1475645 31.6909026,17.1520513 31.642247,17.1404801 C31.6122505,17.1336318 31.4870685,17.1196992 31.3597607,17.1126148 L31.1330158,17.0941953 L31.1493131,16.9066948 C31.1793095,16.5316936 31.2511121,16.3352195 31.4039287,16.2032134 C31.5243869,16.0967112 31.6330355,16.0575108 31.8460812,16.0435782 C32.1191198,16.0251587 32.2719364,16.0735688 32.4223911,16.2287173 C32.4918317,16.3005059 32.5565484,16.3975622 32.5820572,16.4648641 C32.6352006,16.6129281 32.6583474,16.997139 32.6215014,17.1751937 C32.5820572,17.3579713 32.4386883,17.6288317 32.1330552,18.0845951 C31.9894501,18.3020863 31.8460812,18.5335101 31.8182104,18.6005758 C31.7208991,18.8157056 31.7534937,19.1328507 31.8784396,19.1720511 C31.9941739,19.2091262 32.0891233,19.0679104 32.1051844,18.8296382 L32.1167579,18.670003 L32.3158682,18.6839357 C32.424753,18.6931454 32.544975,18.7047166 32.5820572,18.7139263 L32.6491359,18.7254975 L32.6352006,18.9153595 C32.6120537,19.2369915 32.4915955,19.4799866 32.3019328,19.593337 C32.2046215,19.6488315 32.1654135,19.6580413 31.971027,19.6627642 C31.8505688,19.6651257 31.7208991,19.6582774 31.6838169,19.6467062 Z" id="Path">
							</path>
							<path d="M36.6833051,19.6467062 C36.5004921,19.5888502 36.3292525,19.3968629 36.2642995,19.1746487 C36.2087942,18.9895096 36.2180057,18.6794489 36.2874464,18.4758903 C36.3684604,18.2305338 36.4079046,18.1587452 36.706452,17.714553 C36.8500571,17.4970618 37.0005118,17.2493438 37.0420816,17.1638586 C37.1067984,17.0250043 37.1138842,16.9879293 37.1046727,16.8467135 C37.0978231,16.7310015 37.0838877,16.6684226 37.0491674,16.6221379 C36.9913002,16.543501 36.870842,16.52272 36.8084872,16.580576 C36.7414085,16.6407935 36.6927528,16.8167228 36.6927528,16.9924161 C36.6927528,17.1475645 36.6903909,17.1520513 36.6417352,17.1404801 C36.6117388,17.1336318 36.4865567,17.1196992 36.3592489,17.1126148 L36.132504,17.0941953 L36.1488013,16.9066948 C36.1787978,16.5316936 36.2506003,16.3352195 36.4034169,16.2032134 C36.5238751,16.0967112 36.6325237,16.0575108 36.8455694,16.0435782 C37.118608,16.0251587 37.2714246,16.0735688 37.4218793,16.2287173 C37.4913199,16.3005059 37.5560367,16.3975622 37.5815455,16.4648641 C37.6346888,16.6129281 37.6578357,16.997139 37.6209896,17.1751937 C37.5815455,17.3579713 37.4381766,17.6288317 37.1325434,18.0845951 C36.9889383,18.3020863 36.8455694,18.5335101 36.8176987,18.6005758 C36.7203874,18.8157056 36.7529819,19.1328507 36.8779278,19.1720511 C36.9936622,19.2091262 37.0886116,19.0679104 37.1046727,18.8296382 L37.1162461,18.670003 L37.3153565,18.6839357 C37.4242412,18.6931454 37.5444633,18.7047166 37.5815455,18.7139263 L37.6486242,18.7254975 L37.6346888,18.9153595 C37.6115419,19.2369915 37.4910837,19.4799866 37.3014211,19.593337 C37.2041098,19.6488315 37.1649018,19.6580413 36.9705153,19.6627642 C36.8498209,19.6651257 36.7203874,19.6582774 36.6833051,19.6467062 Z" id="Path">
							</path>
							<path d="M38.3496437,19.6467062 C38.1668307,19.5888502 37.9955911,19.3968629 37.9306381,19.1746487 C37.8751329,18.9895096 37.8843444,18.6794489 37.953785,18.4758903 C38.034799,18.2305338 38.0742432,18.1587452 38.3727906,17.714553 C38.5163957,17.4970618 38.6668504,17.2493438 38.7084203,17.1638586 C38.773137,17.0250043 38.7802228,16.9879293 38.7710113,16.8467135 C38.7641617,16.7310015 38.7502264,16.6684226 38.715506,16.6221379 C38.6576389,16.543501 38.5371806,16.52272 38.4748258,16.580576 C38.4077471,16.6407935 38.3590914,16.8167228 38.3590914,16.9924161 C38.3590914,17.1475645 38.3567295,17.1520513 38.3080738,17.1404801 C38.2780774,17.1336318 38.1528953,17.1196992 38.0255875,17.1126148 L37.7988427,17.0941953 L37.8151399,16.9066948 C37.8451364,16.5316936 37.9169389,16.3352195 38.0697555,16.2032134 C38.1902138,16.0967112 38.2988623,16.0575108 38.511908,16.0435782 C38.7849467,16.0251587 38.9377633,16.0735688 39.0882179,16.2287173 C39.1576585,16.3005059 39.2223753,16.3975622 39.2478841,16.4648641 C39.3010274,16.6129281 39.3241743,16.997139 39.2873283,17.1751937 C39.2478841,17.3579713 39.1045152,17.6288317 38.798882,18.0845951 C38.6552769,18.3020863 38.511908,18.5335101 38.4840373,18.6005758 C38.386726,18.8157056 38.4193206,19.1328507 38.5442664,19.1720511 C38.6600008,19.2091262 38.7549502,19.0679104 38.7710113,18.8296382 L38.7825847,18.670003 L38.9816951,18.6839357 C39.0905799,18.6931454 39.2108019,18.7047166 39.2478841,18.7139263 L39.3149628,18.7254975 L39.3010274,18.9153595 C39.2778806,19.2369915 39.1574224,19.4799866 38.9677597,19.593337 C38.8704484,19.6488315 38.8312404,19.6580413 38.6368539,19.6627642 C38.5163957,19.6651257 38.386726,19.6582774 38.3496437,19.6467062 Z" id="Path">
							</path>
							<path d="M43.6592528,19.6490677 C43.4717159,19.5912117 43.3236232,19.4431477 43.2381215,19.2325047 C43.1849782,19.1028601 43.1849782,19.0983733 43.1849782,17.8071226 L43.1849782,16.5111489 L43.2404834,16.390714 C43.2959887,16.2634308 43.4556548,16.0967112 43.55769,16.0598723 C43.5900484,16.0459396 43.6897217,16.0367299 43.7775853,16.0367299 C43.9419754,16.0367299 44.0784947,16.0830147 44.1432114,16.1616516 C44.1895052,16.2147846 44.2102901,16.2079363 44.2265874,16.1292995 L44.2428847,16.0598723 L44.4141243,16.0598723 L44.5853639,16.0598723 L44.5853639,16.9624254 L44.5853639,17.8649785 L44.2034405,17.8649785 L43.8215171,17.8649785 L43.8215171,17.6219835 L43.8215171,17.3789884 L43.9256781,17.3789884 L44.029839,17.3789884 L44.029839,17.0155584 C44.029839,16.5874243 44.0135417,16.538778 43.8862339,16.5272068 C43.7265677,16.5132742 43.7289297,16.501703 43.7289297,17.8276673 C43.7289297,19.0634236 43.7312916,19.102624 43.8354525,19.1281278 C43.9951187,19.1675643 44.029839,19.0842045 44.029839,18.6629186 L44.029839,18.327354 L44.3099634,18.327354 L44.5900878,18.327354 L44.5808763,18.7160516 C44.5716648,19.0516162 44.564579,19.1210434 44.5161595,19.2391168 C44.4490808,19.4174077 44.2894146,19.5794044 44.1342361,19.6301759 C44.0180294,19.6698486 43.7634138,19.6790583 43.6592528,19.6490677 Z" id="Path">
							</path>
							<polygon id="Path" points="29.077668 17.8531712 29.077668 16.0596362 29.343857 16.0596362 29.6100461 16.0596362 29.6100461 16.8349061 29.6100461 17.6101761 29.8530882 17.6101761 30.0961304 17.6101761 30.0961304 17.8878848 30.0961304 18.1655934 29.8530882 18.1655934 29.6100461 18.1655934 29.6100461 18.61687 29.6100461 19.0681465 29.9688226 19.0681465 30.3275991 19.0681465 30.3275991 19.3574264 30.3275991 19.6467062 29.7026335 19.6467062 29.077668 19.6467062">
							</polygon>
							<path d="M32.7925048,19.5725561 C32.7993544,19.5309943 32.9035153,18.7580858 33.0239735,17.8531712 C33.1465575,16.9506181 33.2507184,16.1824325 33.2578042,16.1477189 L33.2717396,16.0830147 L33.4824233,16.0830147 L33.695469,16.0830147 L33.8227768,16.9624254 C33.8922175,17.4460541 33.9548085,17.8418361 33.9616581,17.8418361 C33.9685077,17.8418361 34.0310987,17.4460541 34.0981774,16.9624254 L34.2231233,16.0830147 L34.4406566,16.0830147 C34.5587529,16.0830147 34.6558281,16.0877376 34.6558281,16.0922244 C34.6558281,16.0969473 34.759989,16.8719812 34.8872968,17.8163323 C35.0146046,18.7604472 35.1187655,19.5564981 35.1187655,19.5888502 L35.1187655,19.6467062 L34.8780853,19.6467062 C34.6674015,19.6467062 34.6350431,19.6419833 34.6234697,19.6072697 C34.6187458,19.5841273 34.5703263,19.1652029 34.5169468,18.6747259 C34.4638035,18.184249 34.4127859,17.7653246 34.4035744,17.7421822 C34.3967248,17.7166783 34.3364957,18.1332413 34.2739047,18.6678777 L34.1581703,19.635135 L33.9614219,19.6419833 L33.7623115,19.6488315 L33.651301,18.7162878 C33.5910719,18.2026685 33.5355667,17.7582402 33.5263552,17.725888 C33.5195056,17.6935359 33.4637641,18.1100989 33.4037712,18.6515835 C33.3411802,19.1930682 33.2903988,19.6374965 33.2903988,19.6419833 C33.2903988,19.6443447 33.1746644,19.6467062 33.0357832,19.6467062 L32.7788057,19.6467062 L32.7925048,19.5725561 Z" id="Path">
							</path>
							<polygon id="Path" points="35.349998 17.8647424 35.349998 16.0830147 35.6161871 16.0830147 35.8823761 16.0830147 35.8823761 17.8649785 35.8823761 19.6469424 35.6161871 19.6469424 35.349998 19.6469424">
							</polygon>
							<polygon id="Path" points="40.3031925 17.8647424 40.3031925 16.0830147 40.9165847 16.0830147 41.5299768 16.0830147 41.5299768 16.3260098 41.5299768 16.5690048 41.1827737 16.5690048 40.8355706 16.5690048 40.8355706 18.1079736 40.8355706 19.6469424 40.5693816 19.6469424 40.3031925 19.6469424">
							</polygon>
							<polygon id="Path" points="41.7382986 17.8531712 41.7382986 16.0596362 42.3401173 16.0596362 42.941936 16.0596362 42.941936 16.348916 42.941936 16.6381958 42.6178798 16.6381958 42.2938236 16.6381958 42.2938236 17.1010436 42.2938236 17.5638913 42.5252923 17.5638913 42.756761 17.5638913 42.756761 17.8647424 42.756761 18.1655934 42.5252923 18.1655934 42.2938236 18.1655934 42.2938236 18.61687 42.2938236 19.0681465 42.6178798 19.0681465 42.941936 19.0681465 42.941936 19.3574264 42.941936 19.6467062 42.3401173 19.6467062 41.7382986 19.6467062">
							</polygon>
							<path d="M45.3374011,19.5956985 C45.3189781,19.5123387 44.8165965,16.1661384 44.8165965,16.1222151 C44.8165965,16.0875015 44.8465929,16.0827785 45.0780616,16.0827785 L45.3418888,16.0827785 L45.3858206,16.4367626 L45.4297524,16.7886214 L45.663583,16.7954696 C45.9389836,16.8023179 45.9042633,16.8509641 45.9621305,16.3904778 L46.0037004,16.0827785 L46.2651655,16.0827785 C46.4108964,16.0827785 46.5289926,16.0919883 46.5289926,16.1035595 C46.5289926,16.1243404 46.0313349,19.4334656 46.008188,19.57232 L45.9942526,19.6464992 L45.6725584,19.6464992 C45.3558241,19.6467062 45.3489745,19.6467062 45.3374011,19.5956985 Z M45.7540448,17.9573119 C45.7864032,17.6958974 45.8187616,17.4597506 45.8258473,17.4321214 C45.8350589,17.3811137 45.8305712,17.3789884 45.6706688,17.3789884 L45.5062788,17.3789884 L45.5178522,17.4552638 C45.5270637,17.4947003 45.5594221,17.7513919 45.5965043,18.0246138 C45.6335866,18.3162551 45.665945,18.4990327 45.6775184,18.4758903 C45.6867299,18.4501503 45.7214502,18.2189626 45.7540448,17.9573119 Z" id="Shape">
							</path>
							<polygon id="Path" points="46.7606976 17.8647424 46.7606976 16.0830147 47.3740897 16.0830147 47.9874818 16.0830147 47.9874818 16.3260098 47.9874818 16.5690048 47.6402787 16.5690048 47.2930756 16.5690048 47.2930756 18.1079736 47.2930756 19.6469424 47.0268866 19.6469424 46.7606976 19.6469424">
							</polygon>
							<polygon id="Path" points="52.3620045 17.8647424 52.3620045 16.0830147 52.9753966 16.0830147 53.5887887 16.0830147 53.5887887 16.3260098 53.5887887 16.5690048 53.2415856 16.5690048 52.8943826 16.5690048 52.8943826 18.1079736 52.8943826 19.6469424 52.6281935 19.6469424 52.3620045 19.6469424">
							</polygon>
							<polygon id="Path" points="53.5887887 19.3574264 53.5887887 19.0681465 53.8318309 19.0681465 54.074873 19.0681465 54.074873 17.5754625 54.074873 16.0830147 54.3410621 16.0830147 54.6072511 16.0830147 54.6072511 17.5754625 54.6072511 19.0681465 54.8502933 19.0681465 55.0933354 19.0681465 55.0933354 19.3574264 55.0933354 19.6467062 54.3408259 19.6467062 53.5885525 19.6467062 53.5885525 19.3574264">
							</polygon>
							<path d="M57.0605834,17.8671038 L57.0605834,16.0830147 L57.3383459,16.0830147 L57.6161083,16.0830147 L57.6161083,16.8235711 L57.6161083,17.5641275 L57.6692517,17.5641275 C57.7179073,17.5641275 57.7247569,17.5362622 57.8520647,16.8327808 C57.9262292,16.4301505 57.988584,16.0945859 57.9933079,16.0898629 C58.0001575,16.08514 58.1229776,16.08514 58.2687084,16.0875015 L58.5348975,16.0943497 L58.3775932,16.9043333 C58.2897296,17.3508869 58.217927,17.7327363 58.217927,17.7535172 C58.217927,17.7742981 58.2502854,17.8276673 58.2873676,17.8692292 C58.4425462,18.0380741 58.5235602,18.4501503 58.4772665,18.8272768 C58.4217612,19.2622592 58.2736685,19.4776251 57.9496123,19.5886141 C57.8685982,19.6164794 57.7249931,19.6325374 57.4495926,19.6396218 L57.0608196,19.6535545 L57.0608196,17.8671038 L57.0605834,17.8671038 Z M57.7918356,19.0473656 C57.8312798,19.0242232 57.8820612,18.9640058 57.905208,18.9153595 C57.9583514,18.8020091 57.9793725,18.4943098 57.9399284,18.3554554 C57.90757,18.2281723 57.7894737,18.1008892 57.6921623,18.0824697 L57.6158721,18.0685371 L57.6158721,18.5800311 L57.6158721,19.0915251 L57.6690155,19.0915251 C57.6971224,19.0912889 57.7526276,19.070508 57.7918356,19.0473656 Z" id="Shape">
							</path>
							<polygon id="Path" points="58.7963626 17.8531712 58.7963626 16.0596362 59.3981813 16.0596362 60 16.0596362 60 16.348916 60 16.6381958 59.6759438 16.6381958 59.3518876 16.6381958 59.3518876 17.1010436 59.3518876 17.5638913 59.5833563 17.5638913 59.814825 17.5638913 59.814825 17.8647424 59.814825 18.1655934 59.5833563 18.1655934 59.3518876 18.1655934 59.3518876 18.61687 59.3518876 19.0681465 59.6759438 19.0681465 60 19.0681465 60 19.3574264 60 19.6467062 59.3981813 19.6467062 58.7963626 19.6467062">
							</polygon>
							<path d="M50.5844192,18.1032507 L50.5912687,16.580576 L50.6583474,16.4348734 C50.7417234,16.2565826 50.9037515,16.1016703 51.0518443,16.0598723 C51.2022989,16.0183105 51.4916348,16.0390914 51.6097311,16.0993088 C51.7394009,16.168736 51.8388379,16.279725 51.9153643,16.4417217 L51.9800811,16.580576 L51.9869307,18.1032507 L51.9937803,19.6235638 L51.7136559,19.6235638 L51.4358934,19.6235638 L51.4358934,18.1655934 C51.4358934,17.1034051 51.4290438,16.6939265 51.4080227,16.649767 C51.359367,16.5432648 51.2112743,16.5432648 51.1626186,16.6521285 C51.1418336,16.6936903 51.1347479,17.1173377 51.1347479,18.1655934 L51.1347479,19.6235638 L50.8569854,19.6235638 L50.576861,19.6235638 L50.5844192,18.1032507 Z" id="Path">
							</path>
							<path d="M55.3061449,18.1032507 L55.3129945,16.580576 L55.3800732,16.4348734 C55.4634492,16.2565826 55.6254773,16.1016703 55.7735701,16.0598723 C55.9240247,16.0183105 56.2133606,16.0390914 56.3314569,16.0993088 C56.4611266,16.168736 56.5605637,16.279725 56.6370901,16.4417217 L56.7018069,16.580576 L56.7086565,18.1032507 L56.715506,19.6235638 L56.4353816,19.6235638 L56.1576192,19.6235638 L56.1576192,18.1655934 C56.1576192,17.1034051 56.1507696,16.6939265 56.1297485,16.649767 C56.0810928,16.5432648 55.933,16.5432648 55.8843444,16.6521285 C55.8635594,16.6936903 55.8564736,17.1173377 55.8564736,18.1655934 L55.8564736,19.6235638 L55.5787112,19.6235638 L55.2985868,19.6235638 L55.3061449,18.1032507 Z" id="Path">
							</path>
						</g>
					</g>
				</g>
			</g>
		</g>
	</g>
</svg>
