<svg width="178px" height="50px" viewBox="0 0 178 50" version="1.1" xmlns="http://www.w3.org/2000/svg" xmlns:xlink="http://www.w3.org/1999/xlink">
	<defs>
		<rect id="path-khu7m_i_ht-1" x="9.33472025e-16" y="5.46422649e-16" width="49" height="49">
		</rect>
	</defs>
	<g id="Startpage" stroke="none" stroke-width="1" fill="none" fill-rule="evenodd">
		<g id="Artboard" transform="translate(-492.000000, -301.000000)">
			<g id="Group-5" transform="translate(132.000000, 284.000000)">
				<g id="Onlinekommentar" transform="translate(309.000000, 2.000000)">
					<g id="ok-logo-text_de" transform="translate(51.000000, 15.000000)">
						<rect id="Rectangle" x="0" y="0" width="178" height="50">
						</rect>
						<path d="M59,14.55997 C59,13.7578711 59.2313312,13.131934 59.6980519,12.6784108 C60.1647727,12.2248876 60.7654221,12 61.5040584,12 C61.987013,12 62.4212662,12.1049475 62.8108766,12.3185907 C63.200487,12.5322339 63.4926948,12.8283358 63.6956169,13.2106447 C63.898539,13.5929535 64,14.023988 64,14.5074963 C64,14.9910045 63.8944805,15.4370315 63.6793831,15.8230885 C63.4642857,16.2091454 63.163961,16.5014993 62.7702922,16.7001499 C62.3766234,16.8988006 61.9545455,17 61.5,17 C61.0089286,17 60.5665584,16.8913043 60.1810065,16.6701649 C59.7954545,16.4490255 59.4991883,16.1491754 59.3003247,15.7706147 C59.101461,15.392054 59,14.9872564 59,14.5637181 L59,14.55997 Z M59.7142857,14.5712144 C59.7142857,15.1521739 59.8847403,15.6131934 60.2215909,15.9467766 C60.5625,16.2803598 60.9845779,16.4490255 61.4959416,16.4490255 C62.0073052,16.4490255 62.4456169,16.2803598 62.7824675,15.9430285 C63.1193182,15.6056972 63.2857143,15.125937 63.2857143,14.5037481 C63.2857143,14.1101949 63.2126623,13.7691154 63.0706169,13.4730135 C62.924513,13.1806597 62.7175325,12.952024 62.4375,12.7908546 C62.161526,12.6296852 61.849026,12.5472264 61.5040584,12.5472264 C61.012987,12.5472264 60.5909091,12.7046477 60.2378247,13.011994 C59.8847403,13.3230885 59.7102273,13.8403298 59.7102273,14.5674663 L59.7142857,14.5712144 Z" id="Shape" fill="#000000" fill-rule="nonzero">
						</path>
						<polygon id="Path" fill="#000000" fill-rule="nonzero" points="66 17 66 12 66.6896552 12 69.3576355 15.9285714 69.3576355 12 70 12 70 17 69.3103448 17 66.6423645 13.0714286 66.6423645 17">
						</polygon>
						<polygon id="Path" fill="#000000" fill-rule="nonzero" points="71 17 71 12 71.6364764 12 71.6364764 16.4099379 74 16.4099379 74 17 71.0037221 17">
						</polygon>
						<polygon id="Path" fill="#000000" fill-rule="nonzero" points="76 17 76 12 77 12 77 17">
						</polygon>
						<polygon id="Path" fill="#000000" fill-rule="nonzero" points="78 17 78 12 78.6896552 12 81.3576355 15.9285714 81.3576355 12 82 12 82 17 81.3103448 17 78.6423645 13.0714286 78.6423645 17">
						</polygon>
						<polygon id="Path" fill="#000000" fill-rule="nonzero" points="84 16.996121 84 12 87.8752599 12 87.8752599 12.5896043 84.7110187 12.5896043 84.7110187 14.1217998 87.6756757 14.1217998 87.6756757 14.7075252 84.7110187 14.7075252 84.7110187 16.4103957 88 16.4103957 88 17 84 17">
						</polygon>
						<polygon id="Path" fill="#000000" fill-rule="nonzero" points="90.0037523 17 90.0037523 12 90.6454034 12 90.6454034 14.4805901 93.0469043 12 93.9136961 12 91.8836773 14.0263975 94 17 93.1557223 17 91.4333959 14.4689441 90.641651 15.2686335 90.641651 17 90 17">
						</polygon>
						<path d="M95,14.55997 C95,13.7578711 95.2313312,13.131934 95.6980519,12.6784108 C96.1647727,12.2248876 96.7654221,12 97.5040584,12 C97.987013,12 98.4212662,12.1049475 98.8108766,12.3185907 C99.200487,12.5322339 99.4926948,12.8283358 99.6956169,13.2106447 C99.898539,13.5929535 100,14.023988 100,14.5074963 C100,14.9910045 99.8944805,15.4370315 99.6793831,15.8230885 C99.4642857,16.2091454 99.163961,16.5014993 98.7702922,16.7001499 C98.3766234,16.8988006 97.9545455,17 97.5,17 C97.0089286,17 96.5665584,16.8913043 96.1810065,16.6701649 C95.7954545,16.4490255 95.4991883,16.1491754 95.3003247,15.7706147 C95.101461,15.392054 95,14.9872564 95,14.5637181 L95,14.55997 Z M95.7142857,14.5712144 C95.7142857,15.1521739 95.8847403,15.6131934 96.2215909,15.9467766 C96.5625,16.2803598 96.9845779,16.4490255 97.4959416,16.4490255 C98.0073052,16.4490255 98.4456169,16.2803598 98.7824675,15.9430285 C99.1193182,15.6056972 99.2857143,15.125937 99.2857143,14.5037481 C99.2857143,14.1101949 99.2126623,13.7691154 99.0706169,13.4730135 C98.924513,13.1806597 98.7175325,12.952024 98.4375,12.7908546 C98.161526,12.6296852 97.849026,12.5472264 97.5040584,12.5472264 C97.012987,12.5472264 96.5909091,12.7046477 96.2378247,13.011994 C95.8847403,13.3230885 95.7102273,13.8403298 95.7102273,14.5674663 L95.7142857,14.5712144 Z" id="Shape" fill="#000000" fill-rule="nonzero">
						</path>
						<path d="M101,17 L101,12 L102.044715,12 L103.284553,15.5403727 C103.398374,15.8703416 103.48374,16.1187888 103.536585,16.2818323 C103.597561,16.0993789 103.691057,15.8315217 103.817073,15.4782609 L105.069106,12 L106,12 L106,17 L105.333333,17 L105.333333,12.8152174 L103.813008,17 L103.186992,17 L101.670732,12.7414596 L101.670732,17 L101.004065,17 L101,17 Z" id="Path" fill="#000000" fill-rule="nonzero">
						</path>
						<path d="M108,17 L108,12 L109.044715,12 L110.284553,15.5403727 C110.398374,15.8703416 110.48374,16.1187888 110.536585,16.2818323 C110.597561,16.0993789 110.691057,15.8315217 110.817073,15.4782609 L112.069106,12 L113,12 L113,17 L112.333333,17 L112.333333,12.8152174 L110.813008,17 L110.186992,17 L108.670732,12.7414596 L108.670732,17 L108.004065,17 L108,17 Z" id="Path" fill="#000000" fill-rule="nonzero">
						</path>
						<polygon id="Path" fill="#000000" fill-rule="nonzero" points="115 16.996121 115 12 118.87526 12 118.87526 12.5896043 115.711019 12.5896043 115.711019 14.1217998 118.675676 14.1217998 118.675676 14.7075252 115.711019 14.7075252 115.711019 16.4103957 119 16.4103957 119 17 115 17">
						</polygon>
						<polygon id="Path" fill="#000000" fill-rule="nonzero" points="120 17 120 12 120.689655 12 123.357635 15.9285714 123.357635 12 124 12 124 17 123.310345 17 120.642365 13.0714286 120.642365 17">
						</polygon>
						<polygon id="Path" fill="#000000" fill-rule="nonzero" points="127.661117 17 127.661117 12.5900621 126 12.5900621 126 12 130 12 130 12.5900621 128.331048 12.5900621 128.331048 17">
						</polygon>
						<path d="M130,17 L132.052239,12 L132.815091,12 L135,17 L134.195688,17 L133.573798,15.4860248 L131.339138,15.4860248 L130.754561,17 L130.004146,17 L130,17 Z M131.542289,14.9464286 L133.354063,14.9464286 L132.794362,13.560559 C132.624378,13.1413043 132.5,12.7958075 132.417081,12.5240683 C132.350746,12.8462733 132.25539,13.1645963 132.131012,13.4790373 L131.542289,14.9464286 L131.542289,14.9464286 Z" id="Shape" fill="#000000" fill-rule="nonzero">
						</path>
						<path d="M136.004398,16.996121 L136.004398,12 L138.515391,12 C139.021108,12 139.403694,12.0465477 139.667546,12.1357642 C139.931398,12.2249806 140.14248,12.3840186 140.296394,12.6128782 C140.450308,12.8417378 140.533861,13.0899922 140.533861,13.3653995 C140.533861,13.7183863 140.401935,14.0170675 140.14248,14.261443 C139.883026,14.5058185 139.478452,14.6609775 138.937555,14.7269201 C139.135444,14.8122576 139.28496,14.8937161 139.390501,14.9751746 C139.610378,15.1536074 139.817062,15.3747091 140.014952,15.6384794 L141,17 L140.058927,17 L139.306948,15.9604344 C139.087071,15.6617533 138.906772,15.4290147 138.766051,15.2699767 C138.62533,15.1109387 138.497801,14.9984484 138.383465,14.9363848 C138.269129,14.8743212 138.159191,14.8277735 138.040457,14.8044996 C137.956904,14.7889837 137.816183,14.7812258 137.622691,14.7812258 L136.751979,14.7812258 L136.751979,17 L136,17 L136.004398,16.996121 Z M136.756376,14.2032583 L138.370273,14.2032583 C138.713281,14.2032583 138.98153,14.1722265 139.175022,14.1101629 C139.368514,14.0480993 139.513632,13.9472459 139.614776,13.8114818 C139.715919,13.6757176 139.764292,13.5244375 139.764292,13.3615206 C139.764292,13.124903 139.667546,12.9309542 139.474055,12.7796742 C139.280563,12.6283941 138.972735,12.5508146 138.550572,12.5508146 L136.756376,12.5508146 L136.756376,14.2032583 L136.756376,14.2032583 Z" id="Shape" fill="#000000" fill-rule="nonzero">
						</path>
						<path d="M59,25 L59,20 L60.6676056,20 C61.0431925,20 61.3323944,20.0232919 61.5276995,20.0698758 C61.8056338,20.1358696 62.0422535,20.2562112 62.2375587,20.4270186 C62.4929577,20.6482919 62.684507,20.935559 62.8122066,21.2810559 C62.9399061,21.6265528 63,22.0263975 63,22.4689441 C63,22.8493789 62.9586854,23.1871118 62.8723005,23.4782609 C62.7859155,23.7694099 62.6769953,24.0139752 62.541784,24.2080745 C62.4065728,24.4021739 62.2600939,24.5535714 62.1023474,24.6622671 C61.9446009,24.7709627 61.7492958,24.8563665 61.5239437,24.9145963 C61.2985915,24.9728261 61.0394366,25 60.7464789,25 L59,25 L59,25 Z M59.6422535,24.4099379 L60.6751174,24.4099379 C60.9943662,24.4099379 61.2460094,24.378882 61.4262911,24.3167702 C61.6065728,24.2546584 61.7530516,24.1692547 61.8619718,24.056677 C62.0122066,23.9013975 62.1323944,23.6878882 62.2150235,23.423913 C62.3014085,23.1599379 62.342723,22.8377329 62.342723,22.4611801 C62.342723,21.9371118 62.2600939,21.5372671 62.0948357,21.253882 C61.9295775,20.9743789 61.7267606,20.7841615 61.4901408,20.6909938 C61.3173709,20.621118 61.0431925,20.5900621 60.6600939,20.5900621 L59.6422535,20.5900621 L59.6422535,24.4099379 L59.6422535,24.4099379 Z" id="Shape" fill="#000000" fill-rule="nonzero">
						</path>
						<polygon id="Path" fill="#000000" fill-rule="nonzero" points="65 24.996121 65 20 68.8752599 20 68.8752599 20.5896043 65.7110187 20.5896043 65.7110187 22.1217998 68.6756757 22.1217998 68.6756757 22.7075252 65.7110187 22.7075252 65.7110187 24.4103957 69 24.4103957 69 25 65 25">
						</polygon>
						<path d="M70.0087951,24.996121 L70.0087951,20 L72.5197889,20 C73.0255057,20 73.4080915,20.0465477 73.6719437,20.1357642 C73.935796,20.2249806 74.1424802,20.3840186 74.3007916,20.6128782 C74.4591029,20.8417378 74.5382586,21.0899922 74.5382586,21.3653995 C74.5382586,21.7183863 74.4063325,22.0170675 74.1468777,22.261443 C73.887423,22.5058185 73.4828496,22.6609775 72.9419525,22.7269201 C73.1398417,22.8122576 73.289358,22.8937161 73.3948989,22.9751746 C73.6147757,23.1536074 73.82146,23.3747091 74.0149516,23.6384794 L75,25 L74.058927,25 L73.3069481,23.9604344 C73.0870712,23.6617533 72.9067722,23.4290147 72.766051,23.2699767 C72.6253298,23.1109387 72.4978012,22.9984484 72.3834653,22.9363848 C72.2691293,22.8743212 72.1591909,22.8277735 72.0404573,22.8044996 C71.9569041,22.7889837 71.8161829,22.7812258 71.6226913,22.7812258 L70.7519789,22.7812258 L70.7519789,25 L70,25 L70.0087951,24.996121 Z M70.760774,22.2032583 L72.3702726,22.2032583 C72.7132806,22.2032583 72.9815303,22.1722265 73.175022,22.1101629 C73.3685136,22.0480993 73.5136324,21.9472459 73.6147757,21.8114818 C73.7159191,21.6757176 73.764292,21.5244375 73.764292,21.3615206 C73.764292,21.124903 73.6675462,20.9309542 73.4740545,20.7796742 C73.2805629,20.6283941 72.9727353,20.5508146 72.5505717,20.5508146 L70.7563764,20.5508146 L70.7563764,22.2032583 L70.760774,22.2032583 Z" id="Shape" fill="#000000" fill-rule="nonzero">
						</path>
						<polygon id="Path" fill="#000000" fill-rule="nonzero" points="79.0034483 25 79.0034483 20 82 20 82 20.5900621 79.5896552 20.5900621 79.5896552 22.1389752 81.6758621 22.1389752 81.6758621 22.7290373 79.5896552 22.7290373 79.5896552 25 79 25">
						</polygon>
						<path d="M84.0043975,24.996121 L84.0043975,20 L86.5153914,20 C87.0211082,20 87.4036939,20.0465477 87.6675462,20.1357642 C87.9313984,20.2249806 88.1424802,20.3840186 88.296394,20.6128782 C88.4503078,20.8417378 88.533861,21.0899922 88.533861,21.3653995 C88.533861,21.7183863 88.4063325,22.0170675 88.1424802,22.261443 C87.878628,22.5058185 87.4784521,22.6609775 86.937555,22.7269201 C87.1354442,22.8122576 87.2849604,22.8937161 87.3905013,22.9751746 C87.6103782,23.1536074 87.8170624,23.3747091 88.0149516,23.6384794 L89,25 L88.058927,25 L87.3069481,23.9604344 C87.0870712,23.6617533 86.9067722,23.4290147 86.766051,23.2699767 C86.6253298,23.1109387 86.4978012,22.9984484 86.3834653,22.9363848 C86.2691293,22.8743212 86.1591909,22.8277735 86.0404573,22.8044996 C85.9569041,22.7889837 85.8161829,22.7812258 85.6226913,22.7812258 L84.7519789,22.7812258 L84.7519789,25 L84,25 L84.0043975,24.996121 Z M84.7563764,22.2032583 L86.3702726,22.2032583 C86.7132806,22.2032583 86.9815303,22.1722265 87.175022,22.1101629 C87.3685136,22.0480993 87.5136324,21.9472459 87.6147757,21.8114818 C87.7159191,21.6757176 87.764292,21.5244375 87.764292,21.3615206 C87.764292,21.124903 87.6675462,20.9309542 87.4740545,20.7796742 C87.2805629,20.6283941 86.9727353,20.5508146 86.5505717,20.5508146 L84.7563764,20.5508146 L84.7563764,22.2032583 L84.7563764,22.2032583 Z" id="Shape" fill="#000000" fill-rule="nonzero">
						</path>
						<polygon id="Path" fill="#000000" fill-rule="nonzero" points="90 24.996121 90 20 93.8752599 20 93.8752599 20.5896043 90.7110187 20.5896043 90.7110187 22.1217998 93.6756757 22.1217998 93.6756757 22.7075252 90.7110187 22.7075252 90.7110187 24.4103957 94 24.4103957 94 25 90 25">
						</polygon>
						<polygon id="Path" fill="#000000" fill-rule="nonzero" points="95 25 95 20 96 20 96 25">
						</polygon>
						<path d="M100,24.996121 L100,24.3832428 L102.588235,21.1830877 C102.772549,20.9542281 102.945098,20.7564003 103.113725,20.5896043 L100.294118,20.5896043 L100.294118,20 L103.913725,20 L103.913725,20.5896043 L101.078431,24.0574088 L100.772549,24.4103957 L104,24.4103957 L104,25 L100.003922,25 L100,24.996121 Z" id="Path" fill="#000000" fill-rule="nonzero">
						</path>
						<path d="M108.324778,20 L109,20 L109,22.8396947 C109,23.3320611 108.94077,23.7251908 108.826259,24.0152672 C108.711747,24.3053435 108.502468,24.5419847 108.198421,24.7251908 C107.894373,24.9083969 107.499506,25 107.009872,25 C106.520237,25 106.141165,24.9198473 105.841066,24.7633588 C105.540967,24.6068702 105.323791,24.3740458 105.193485,24.0725191 C105.063179,23.7709924 105,23.3625954 105,22.8396947 L105,20 L105.675222,20 L105.675222,22.8396947 C105.675222,23.2671756 105.714709,23.5801527 105.797631,23.7824427 C105.880553,23.9847328 106.022705,24.1412214 106.220138,24.2519084 C106.417572,24.3625954 106.666338,24.4160305 106.95459,24.4160305 C107.448174,24.4160305 107.803554,24.3091603 108.012833,24.0916031 C108.222113,23.8740458 108.328727,23.4580153 108.328727,22.8396947 L108.328727,20 L108.324778,20 Z" id="Path" fill="#000000" fill-rule="nonzero">
						</path>
						<path d="M113.707809,23.0217718 L113.707809,22.454955 L116,22.454955 L116,24.2454955 C115.647355,24.496997 115.286314,24.6846847 114.912678,24.8123123 C114.539043,24.9399399 114.157011,25 113.762385,25 C113.229219,25 112.746432,24.8986486 112.314022,24.6959459 C111.881612,24.4932432 111.549958,24.1966967 111.331654,23.8138138 C111.11335,23.4309309 111,22.9992492 111,22.5225225 C111,22.0457958 111.109152,21.6141141 111.331654,21.204955 C111.549958,20.7957958 111.869018,20.4954955 112.280437,20.2965465 C112.691856,20.0975976 113.170445,20 113.707809,20 C114.098237,20 114.450882,20.0563063 114.769941,20.1689189 C115.084803,20.2815315 115.332494,20.4391892 115.513014,20.6418919 C115.693535,20.8445946 115.827876,21.1073574 115.920235,21.4339339 L115.27372,21.5915916 C115.193955,21.3438438 115.093199,21.1524024 114.971453,21.0097598 C114.849706,20.8671171 114.677582,20.7582583 114.45508,20.6719219 C114.232578,20.5855856 113.984887,20.5442943 113.707809,20.5442943 C113.380353,20.5442943 113.099076,20.5893393 112.859782,20.6794294 C112.620487,20.7695195 112.427372,20.8858859 112.280437,21.0322823 C112.133501,21.1786787 112.020151,21.3363363 111.940386,21.509009 C111.801847,21.8093093 111.734677,22.1321321 111.734677,22.4812312 C111.734677,22.9129129 111.81864,23.2732733 111.982368,23.5623123 C112.146096,23.8513514 112.389589,24.0690691 112.708648,24.207958 C113.027708,24.3468468 113.36356,24.4181682 113.720403,24.4181682 C114.031066,24.4181682 114.333333,24.3656156 114.627204,24.2567568 C114.921075,24.1478979 115.147775,24.0352853 115.298908,23.9151652 L115.298908,23.0142643 L113.707809,23.0142643 L113.707809,23.0217718 Z" id="Path" fill="#000000" fill-rule="nonzero">
						</path>
						<path d="M117,26 L119.052239,21.0077519 L119.815091,21.0077519 L122,26 L121.195688,26 L120.573798,24.4883721 L118.339138,24.4883721 L117.754561,26 L117.004146,26 L117,26 Z M118.393035,20.6976744 L118.393035,20 L119.077114,20 L119.077114,20.6976744 L118.393035,20.6976744 Z M118.542289,23.9457364 L120.354063,23.9457364 L119.794362,22.5620155 C119.624378,22.1434109 119.5,21.7984496 119.417081,21.5271318 C119.350746,21.8488372 119.25539,22.1666667 119.131012,22.4806202 L118.542289,23.9457364 L118.542289,23.9457364 Z M119.752902,20.6976744 L119.752902,20 L120.436982,20 L120.436982,20.6976744 L119.752902,20.6976744 Z" id="Shape" fill="#000000" fill-rule="nonzero">
						</path>
						<polygon id="Path" fill="#000000" fill-rule="nonzero" points="123 25 123 20 123.689655 20 126.357635 23.9285714 126.357635 20 127 20 127 25 126.310345 25 123.642365 21.0714286 123.642365 25">
						</polygon>
						<path d="M131.707809,23.0217718 L131.707809,22.454955 L134,22.454955 L134,24.2454955 C133.647355,24.496997 133.286314,24.6846847 132.912678,24.8123123 C132.539043,24.9399399 132.157011,25 131.762385,25 C131.229219,25 130.746432,24.8986486 130.314022,24.6959459 C129.877414,24.4932432 129.549958,24.1966967 129.331654,23.8138138 C129.11335,23.4309309 129,22.9992492 129,22.5225225 C129,22.0457958 129.109152,21.6141141 129.331654,21.204955 C129.554156,20.7957958 129.869018,20.4954955 130.280437,20.2965465 C130.691856,20.0975976 131.170445,20 131.707809,20 C132.098237,20 132.450882,20.0563063 132.769941,20.1689189 C133.084803,20.2815315 133.332494,20.4391892 133.513014,20.6418919 C133.693535,20.8445946 133.827876,21.1073574 133.924433,21.4339339 L133.277918,21.5915916 C133.198153,21.3438438 133.097397,21.1524024 132.975651,21.0097598 C132.853904,20.8671171 132.68178,20.7582583 132.459278,20.6719219 C132.236776,20.5855856 131.989085,20.5442943 131.712007,20.5442943 C131.384551,20.5442943 131.103275,20.5893393 130.86398,20.6794294 C130.624685,20.7695195 130.43157,20.8858859 130.284635,21.0322823 C130.137699,21.1786787 130.024349,21.3363363 129.944584,21.509009 C129.806045,21.8093093 129.738875,22.1321321 129.738875,22.4812312 C129.738875,22.9129129 129.822838,23.2732733 129.986566,23.5623123 C130.154492,23.8513514 130.393787,24.0690691 130.712846,24.207958 C131.031906,24.3468468 131.367758,24.4181682 131.724601,24.4181682 C132.035264,24.4181682 132.337531,24.3656156 132.631402,24.2567568 C132.925273,24.1478979 133.151973,24.0352853 133.303107,23.9151652 L133.303107,23.0142643 L131.712007,23.0142643 L131.707809,23.0217718 Z" id="Path" fill="#000000" fill-rule="nonzero">
						</path>
						<polygon id="Path" fill="#000000" fill-rule="nonzero" points="135 25 135 20 135.636476 20 135.636476 24.4099379 138 24.4099379 138 25 135.003722 25">
						</polygon>
						<polygon id="Path" fill="#000000" fill-rule="nonzero" points="140 25 140 20 141 20 141 25">
						</polygon>
						<path d="M146.25,23.2258065 L147,23.3870968 C146.842105,23.9122281 146.561404,24.3135784 146.153509,24.5873968 C145.745614,24.8649662 145.25,25 144.657895,25 C144.065789,25 143.552632,24.8949737 143.171053,24.6811703 C142.789474,24.4711178 142.5,24.1635409 142.298246,23.7584396 C142.100877,23.3570893 142,22.9257314 142,22.4643661 C142,21.9617404 142.114035,21.5228807 142.337719,21.1477869 C142.561404,20.7726932 142.881579,20.4876219 143.298246,20.2925731 C143.714912,20.0975244 144.171053,20 144.666667,20 C145.232456,20 145.70614,20.1237809 146.092105,20.3675919 C146.47807,20.6114029 146.745614,20.9602401 146.899123,21.4066017 L146.162281,21.5566392 C146.030702,21.204051 145.842105,20.9489872 145.592105,20.7876969 C145.342105,20.6264066 145.030702,20.5476369 144.653509,20.5476369 C144.219298,20.5476369 143.855263,20.6376594 143.565789,20.8139535 C143.276316,20.9902476 143.070175,21.2303076 142.951754,21.5303826 C142.833333,21.8304576 142.776316,22.1380345 142.776316,22.4568642 C142.776316,22.8694674 142.846491,23.2258065 142.986842,23.5333833 C143.127193,23.8409602 143.346491,24.0697674 143.640351,24.219805 C143.934211,24.3698425 144.254386,24.4486122 144.600877,24.4486122 C145.02193,24.4486122 145.372807,24.3435859 145.666667,24.1372843 C145.960526,23.9309827 146.153509,23.6234059 146.254386,23.2183046 L146.25,23.2258065 Z" id="Path" fill="#000000" fill-rule="nonzero">
						</path>
						<polygon id="Path" fill="#000000" fill-rule="nonzero" points="148 25 148 20 148.675889 20 148.675889 22.0535714 151.324111 22.0535714 151.324111 20 152 20 152 25 151.324111 25 151.324111 22.6436335 148.675889 22.6436335 148.675889 25">
						</polygon>
						<polygon id="Path" fill="#000000" fill-rule="nonzero" points="154 24.996121 154 20 157.87526 20 157.87526 20.5896043 154.711019 20.5896043 154.711019 22.1217998 157.675676 22.1217998 157.675676 22.7075252 154.711019 22.7075252 154.711019 24.4103957 158 24.4103957 158 25 154 25">
						</polygon>
						<path d="M59.0043975,33.996121 L59.0043975,29 L61.5153914,29 C62.0211082,29 62.4036939,29.0465477 62.6675462,29.1357642 C62.9313984,29.2249806 63.1424802,29.3840186 63.296394,29.6128782 C63.4503078,29.8417378 63.533861,30.0899922 63.533861,30.3653995 C63.533861,30.7183863 63.4019349,31.0170675 63.1424802,31.261443 C62.8830255,31.5058185 62.4784521,31.6609775 61.937555,31.7269201 C62.1354442,31.8122576 62.2849604,31.8937161 62.3905013,31.9751746 C62.6103782,32.1536074 62.8170624,32.3747091 63.0149516,32.6384794 L64,34 L63.058927,34 L62.3069481,32.9604344 C62.0870712,32.6617533 61.9067722,32.4290147 61.766051,32.2699767 C61.6253298,32.1109387 61.4978012,31.9984484 61.3834653,31.9363848 C61.2691293,31.8743212 61.1591909,31.8277735 61.0404573,31.8044996 C60.9569041,31.7889837 60.8161829,31.7812258 60.6226913,31.7812258 L59.7519789,31.7812258 L59.7519789,34 L59,34 L59.0043975,33.996121 Z M59.7563764,31.2032583 L61.3702726,31.2032583 C61.7132806,31.2032583 61.9815303,31.1722265 62.175022,31.1101629 C62.3685136,31.0480993 62.5136324,30.9472459 62.6147757,30.8114818 C62.7159191,30.6757176 62.764292,30.5244375 62.764292,30.3615206 C62.764292,30.124903 62.6675462,29.9309542 62.4740545,29.7796742 C62.2805629,29.6283941 61.9727353,29.5508146 61.5505717,29.5508146 L59.7563764,29.5508146 L59.7563764,31.2032583 L59.7563764,31.2032583 Z" id="Shape" fill="#000000" fill-rule="nonzero">
						</path>
						<polygon id="Path" fill="#000000" fill-rule="nonzero" points="65 33.996121 65 29 68.8752599 29 68.8752599 29.5896043 65.7110187 29.5896043 65.7110187 31.1217998 68.6756757 31.1217998 68.6756757 31.7075252 65.7110187 31.7075252 65.7110187 33.4103957 69 33.4103957 69 34 65 34">
						</polygon>
						<path d="M74.25,32.2258065 L75,32.3870968 C74.8421053,32.9122281 74.5614035,33.3135784 74.1535088,33.5873968 C73.745614,33.8612153 73.25,34 72.6578947,34 C72.0657895,34 71.5526316,33.8949737 71.1710526,33.6811703 C70.7894737,33.4711178 70.5,33.1635409 70.2982456,32.7584396 C70.0964912,32.3533383 70,31.9257314 70,31.4643661 C70,30.9617404 70.1140351,30.5228807 70.3377193,30.1477869 C70.5614035,29.7726932 70.8815789,29.4876219 71.2982456,29.2925731 C71.7149123,29.0975244 72.1710526,29 72.6666667,29 C73.2324561,29 73.7061404,29.1237809 74.0921053,29.3675919 C74.4780702,29.6114029 74.745614,29.9602401 74.8991228,30.4066017 L74.1622807,30.5566392 C74.0307018,30.204051 73.8421053,29.9489872 73.5921053,29.7876969 C73.3421053,29.6264066 73.0307018,29.5476369 72.6535088,29.5476369 C72.2192982,29.5476369 71.8552632,29.6376594 71.5657895,29.8139535 C71.2763158,29.9902476 71.0701754,30.2303076 70.9517544,30.5303826 C70.8333333,30.8304576 70.7763158,31.1380345 70.7763158,31.4568642 C70.7763158,31.8694674 70.8464912,32.2258065 70.9868421,32.5333833 C71.127193,32.8409602 71.3464912,33.0697674 71.6403509,33.219805 C71.9342105,33.3698425 72.254386,33.4486122 72.6008772,33.4486122 C73.0219298,33.4486122 73.372807,33.3435859 73.6666667,33.1372843 C73.9605263,32.9309827 74.1535088,32.6234059 74.254386,32.2183046 L74.25,32.2258065 Z" id="Path" fill="#000000" fill-rule="nonzero">
						</path>
						<polygon id="Path" fill="#000000" fill-rule="nonzero" points="76 34 76 29 76.6758893 29 76.6758893 31.0535714 79.3241107 31.0535714 79.3241107 29 80 29 80 34 79.3241107 34 79.3241107 31.6436335 76.6758893 31.6436335 76.6758893 34">
						</polygon>
						<polygon id="Path" fill="#000000" fill-rule="nonzero" points="83.6650343 34 83.6650343 29.5900621 82 29.5900621 82 29 86 29 86 29.5900621 84.331048 29.5900621 84.331048 34 83.6611166 34">
						</polygon>
						<path d="M87,32.3596096 L87.6270691,32.3070571 C87.6582278,32.5472973 87.7244401,32.7462462 87.8334956,32.9039039 C87.9425511,33.0578078 88.1100292,33.1854354 88.3398247,33.2792793 C88.5696203,33.3731231 88.8266796,33.4219219 89.1110029,33.4219219 C89.3641675,33.4219219 89.5861733,33.3843844 89.7809153,33.3130631 C89.9756573,33.2417417 90.1197663,33.1403904 90.2132425,33.0165165 C90.3067186,32.8926426 90.3573515,32.75 90.3573515,32.6036036 C90.3573515,32.4572072 90.3106134,32.3183183 90.2210321,32.2057057 C90.1314508,32.0930931 89.9795521,31.9954955 89.7692308,31.9204204 C89.6329114,31.8716216 89.3369036,31.7927928 88.8773126,31.6839339 C88.4177215,31.5788288 88.0944499,31.4774775 87.9074976,31.3836336 C87.6660175,31.2635135 87.4907498,31.1133634 87.3700097,30.9331832 C87.2492697,30.753003 87.194742,30.5540541 87.194742,30.3325826 C87.194742,30.0885886 87.2648491,29.8596096 87.4089581,29.6493994 C87.5530672,29.4391892 87.7633885,29.274024 88.0399221,29.1651652 C88.3164557,29.0563063 88.624148,29 88.962999,29 C89.3369036,29 89.6640701,29.0563063 89.9483934,29.1726727 C90.2327167,29.289039 90.4508277,29.457958 90.6027264,29.6831832 C90.7546251,29.9084084 90.8364167,30.1599099 90.8481013,30.4451952 L90.2132425,30.4902402 C90.1781889,30.1861862 90.0652386,29.9534535 89.8666018,29.7957958 C89.6679649,29.6381381 89.3797468,29.5630631 88.9902629,29.5630631 C88.600779,29.5630631 88.2969815,29.6343844 88.1139241,29.777027 C87.9308666,29.9196697 87.8373905,30.0885886 87.8373905,30.2912913 C87.8373905,30.463964 87.9036027,30.6066066 88.0321324,30.7192192 C88.1606621,30.8318318 88.4917235,30.9481982 89.0331061,31.0645646 C89.5744888,31.1809309 89.9444985,31.286036 90.1431353,31.3723724 C90.4352483,31.5037538 90.6494645,31.6651652 90.7896787,31.8641141 C90.9298929,32.0630631 91,32.292042 91,32.5510511 C91,32.8100601 90.9221032,33.0503003 90.7702045,33.2792793 C90.6183057,33.5082583 90.3962999,33.6846847 90.1119766,33.8123123 C89.8237585,33.9399399 89.5043817,34 89.1460565,34 C88.6903603,34 88.3125609,33.9361862 88.0048685,33.8085586 C87.6971762,33.6809309 87.4556962,33.4894895 87.2843233,33.2342342 C87.1090555,32.978979 87.0194742,32.6899399 87.0077897,32.3633634 L87,32.3596096 Z" id="Path" fill="#000000" fill-rule="nonzero">
						</path>
						<polygon id="Path" fill="#000000" fill-rule="nonzero" points="93.0037523 34 93.0037523 29 93.6454034 29 93.6454034 31.4805901 96.0469043 29 96.9136961 29 94.8836773 31.0263975 97 34 96.1557223 34 94.4333959 31.4689441 93.641651 32.2686335 93.641651 34 93 34">
						</polygon>
						<path d="M98,31.55997 C98,30.7578711 98.2313312,30.131934 98.6980519,29.6784108 C99.1647727,29.2248876 99.7654221,29 100.504058,29 C100.987013,29 101.421266,29.1049475 101.810877,29.3185907 C102.200487,29.5322339 102.492695,29.8283358 102.695617,30.2106447 C102.898539,30.5929535 103,31.023988 103,31.5074963 C103,31.9910045 102.894481,32.4370315 102.679383,32.8230885 C102.464286,33.2091454 102.163961,33.5014993 101.770292,33.7001499 C101.376623,33.8988006 100.954545,34 100.5,34 C100.008929,34 99.5665584,33.8913043 99.1810065,33.6701649 C98.7954545,33.4490255 98.4991883,33.1491754 98.3003247,32.7706147 C98.101461,32.392054 98,31.9872564 98,31.5637181 L98,31.55997 Z M98.7142857,31.5712144 C98.7142857,32.1521739 98.8847403,32.6131934 99.2215909,32.9467766 C99.5584416,33.2803598 99.9845779,33.4490255 100.495942,33.4490255 C101.007305,33.4490255 101.445617,33.2803598 101.782468,32.9430285 C102.119318,32.6056972 102.285714,32.125937 102.285714,31.5037481 C102.285714,31.1101949 102.212662,30.7691154 102.070617,30.4730135 C101.928571,30.1806597 101.717532,29.952024 101.441558,29.7908546 C101.165584,29.6296852 100.853084,29.5472264 100.508117,29.5472264 C100.017045,29.5472264 99.5949675,29.7046477 99.2418831,30.011994 C98.8887987,30.3230885 98.7102273,30.8403298 98.7102273,31.5674663 L98.7142857,31.5712144 Z" id="Shape" fill="#000000" fill-rule="nonzero">
						</path>
						<path d="M105,34 L105,29 L106.044715,29 L107.284553,32.5403727 C107.398374,32.8703416 107.48374,33.1187888 107.536585,33.2818323 C107.597561,33.0993789 107.691057,32.8315217 107.817073,32.4782609 L109.069106,29 L110,29 L110,34 L109.333333,34 L109.333333,29.8152174 L107.813008,34 L107.186992,34 L105.670732,29.7414596 L105.670732,34 L105.004065,34 L105,34 Z" id="Path" fill="#000000" fill-rule="nonzero">
						</path>
						<path d="M111,34 L111,29 L112.044715,29 L113.284553,32.5403727 C113.398374,32.8703416 113.48374,33.1187888 113.536585,33.2818323 C113.597561,33.0993789 113.691057,32.8315217 113.817073,32.4782609 L115.069106,29 L116,29 L116,34 L115.333333,34 L115.333333,29.8152174 L113.813008,34 L113.186992,34 L111.670732,29.7414596 L111.670732,34 L111.004065,34 L111,34 Z" id="Path" fill="#000000" fill-rule="nonzero">
						</path>
						<polygon id="Path" fill="#000000" fill-rule="nonzero" points="118 33.996121 118 29 121.87526 29 121.87526 29.5896043 118.711019 29.5896043 118.711019 31.1217998 121.675676 31.1217998 121.675676 31.7075252 118.711019 31.7075252 118.711019 33.4103957 122 33.4103957 122 34 118 34">
						</polygon>
						<polygon id="Path" fill="#000000" fill-rule="nonzero" points="123 34 123 29 123.689655 29 126.357635 32.9285714 126.357635 29 127 29 127 34 126.310345 34 123.642365 30.0714286 123.642365 34">
						</polygon>
						<polygon id="Path" fill="#000000" fill-rule="nonzero" points="129.665034 34 129.665034 29.5900621 128 29.5900621 128 29 132 29 132 29.5900621 130.331048 29.5900621 130.331048 34 129.661117 34">
						</polygon>
						<path d="M133,34 L135.052239,29 L135.815091,29 L138,34 L137.195688,34 L136.573798,32.4860248 L134.339138,32.4860248 L133.750415,34 L133,34 L133,34 Z M134.542289,31.9464286 L136.354063,31.9464286 L135.798507,30.560559 C135.628524,30.1413043 135.504146,29.7958075 135.421227,29.5240683 C135.354892,29.8462733 135.25539,30.1645963 135.131012,30.4790373 L134.546434,31.9464286 L134.542289,31.9464286 Z" id="Shape" fill="#000000" fill-rule="nonzero">
						</path>
						<path d="M139.004398,33.996121 L139.004398,29 L141.515391,29 C142.021108,29 142.403694,29.0465477 142.667546,29.1357642 C142.931398,29.2249806 143.14248,29.3840186 143.296394,29.6128782 C143.450308,29.8417378 143.533861,30.0899922 143.533861,30.3653995 C143.533861,30.7183863 143.401935,31.0170675 143.14248,31.261443 C142.883026,31.5058185 142.478452,31.6609775 141.937555,31.7269201 C142.135444,31.8122576 142.28496,31.8937161 142.390501,31.9751746 C142.610378,32.1536074 142.817062,32.3747091 143.014952,32.6384794 L144,34 L143.058927,34 L142.306948,32.9604344 C142.087071,32.6617533 141.906772,32.4290147 141.766051,32.2699767 C141.62533,32.1109387 141.497801,31.9984484 141.383465,31.9363848 C141.273527,31.8743212 141.159191,31.8277735 141.040457,31.8044996 C140.956904,31.7889837 140.816183,31.7812258 140.622691,31.7812258 L139.751979,31.7812258 L139.751979,34 L139,34 L139.004398,33.996121 Z M139.756376,31.2032583 L141.370273,31.2032583 C141.713281,31.2032583 141.98153,31.1722265 142.175022,31.1101629 C142.368514,31.0480993 142.513632,30.9472459 142.614776,30.8114818 C142.715919,30.6757176 142.764292,30.5244375 142.764292,30.3615206 C142.764292,30.124903 142.667546,29.9309542 142.474055,29.7796742 C142.280563,29.6283941 141.972735,29.5508146 141.550572,29.5508146 L139.756376,29.5508146 L139.756376,31.2032583 L139.756376,31.2032583 Z" id="Shape" fill="#000000" fill-rule="nonzero">
						</path>
						<g id="Clipped" transform="translate(0.000000, 1.000000)">
							<mask id="mask-khu7m_i_ht-2" fill="white">
								<use xlink:href="#path-khu7m_i_ht-1">
								</use>
							</mask>
							<g id="Rectangle">
							</g>
							<g id="Group" mask="url(#mask-khu7m_i_ht-2)" fill="#000000" fill-rule="nonzero">
								<g transform="translate(0.000000, -0.000002)">
									<path d="M24.4979493,1.14891964e-06 C10.9672721,1.14891964e-06 0,10.9672744 0,24.4979516 C0,38.0286287 10.9672721,48.9959009 24.4979493,48.9959009 C38.0204235,48.9794951 48.9835942,38.0204258 48.9958986,24.4979516 L48.9958986,24.4979516 C48.9958986,10.9672744 38.0286264,-0.00409914958 24.4979493,1.14891964e-06 L24.4979493,1.14891964e-06 Z M47.7941743,24.502053 C47.7941743,37.3682956 37.3600904,47.798278 24.4938478,47.7941778 C11.6276053,47.7941778 1.19762283,37.3600927 1.20172307,24.4979516 C1.20172307,11.631709 11.6358082,1.20172658 24.4979493,1.20582682 C37.355989,1.22223382 47.7777685,11.6440133 47.7941743,24.502053 L47.7941743,24.502053 Z" id="Shape">
									</path>
									<path d="M26.8931949,31.3596742 L26.8931949,16.1679106 L24.8998912,15.7495629 L24.8998912,15.2368818 L31.1915125,15.2368818 L31.1915125,15.7495629 L29.218716,16.172012 L29.218716,24.1001111 L35.4857286,17.078432 C35.6825981,16.9061712 35.8056416,16.6723887 35.8384532,16.4139974 C35.8384532,16.2212294 35.690801,16.0735773 35.3954968,15.9710411 C34.9320331,15.8397947 34.4562652,15.7659686 33.9763957,15.7495629 L33.9763957,15.2409833 L39.8250607,15.2409833 L39.8250607,15.7536643 C39.1073073,15.8562005 38.3977568,16.0243599 37.7087135,16.2622439 C37.27396,16.4591134 36.8884239,16.7544176 36.5890182,17.1276494 L32.2045702,22.131416 L39.3123797,31.3678771 L41.7691471,31.7903262 L41.7691471,32.2989058 L36.9622499,32.2989058 L30.6501214,23.9032416 L29.2105131,25.5438208 L29.2105131,31.3678771 L31.1833096,31.7903262 L31.1833096,32.2989058 L24.8916883,32.2989058 L24.8916883,31.7862248 L26.884992,31.3678771 L26.8931949,31.3596742 Z" id="Pfad_48">
									</path>
									<path d="M22.0452833,19.4039531 C21.3685444,18.0832868 20.3472838,16.9676929 19.0840378,16.1843164 C17.8248933,15.4050412 16.3688792,14.9989979 14.8882565,15.0154037 C13.4076337,14.9989979 11.9516197,15.4050412 10.6924751,16.1843164 C9.43333054,16.9676929 8.40796853,18.0832868 7.7312296,19.4039531 C7.00117184,20.8148512 6.63204152,22.3857058 6.65254876,23.9770677 C6.63204152,25.5643281 7.00117184,27.1351827 7.7312296,28.5501823 C8.40796853,29.87495 9.4292291,30.9864424 10.6924751,31.769819 C11.0493011,31.9912972 11.4225329,32.1799638 11.8121704,32.3399203 L12.1074747,31.0274569 C12.0787645,31.0069496 12.0500544,30.9864424 12.0213443,30.9659352 C11.1518373,30.2440803 10.5079099,29.2925444 10.1633883,28.2220664 C9.70402612,26.8480813 9.48664937,25.4043716 9.5153595,23.9565604 C9.48254792,22.5128507 9.70402612,21.0732424 10.1633883,19.7033588 C10.5120114,18.6369823 11.1559387,17.6936492 12.0213443,16.9799973 C12.8498368,16.3442728 13.8710973,16.0120555 14.9128652,16.0366642 C16.5001256,15.9874468 17.9971541,16.7831278 18.8502553,18.1243013 C19.7935883,19.5146922 20.2693563,21.4423728 20.2693563,23.9073431 C20.3021679,25.3674586 20.0806897,26.8193712 19.6213275,28.2056606 C19.2768059,29.28024 18.63698,30.2358774 17.7715745,30.9618337 C17.7387629,30.9864424 17.7059513,31.0069496 17.6772411,31.0315583 L17.9725454,32.3358188 C18.3580815,32.1758623 18.7313133,31.9871957 19.0881393,31.7657175 C20.3472838,30.982341 21.3726459,29.8667471 22.0493848,28.5460808 C22.7794425,27.1351827 23.1485729,25.5643281 23.1280656,23.9729662 C23.1485729,22.3857058 22.7794425,20.8148512 22.0493848,19.3998516" id="Pfad_49">
									</path>
								</g>
							</g>
						</g>
					</g>
				</g>
			</g>
		</g>
	</g>
</svg>
