<svg width="221px" height="44px" viewBox="0 0 221 44" version="1.1" xmlns="http://www.w3.org/2000/svg" xmlns:xlink="http://www.w3.org/1999/xlink">
	<g id="Startpage" stroke="none" stroke-width="1" fill="none" fill-rule="evenodd">
		<g id="Artboard" transform="translate(-779.000000, -456.000000)" fill="#1F1F1F">
			<g id="Group-5" transform="translate(132.000000, 284.000000)">
				<g id="Repositorium" transform="translate(618.000000, 153.000000)">
					<g id="Group-4" transform="translate(29.000000, 19.000000)">
						<g id="logo">
							<g id="Group" transform="translate(14.235294, 10.352941)">
								<path d="M4.5081585,16.1585137 L4.5081585,23.2941176 L0,23.2941176 L0,0 L7.24846302,0 C12.5522153,0 15.2041152,2.27927605 15.2041152,6.83773319 C15.2041152,8.21186014 14.9168241,9.37870249 14.3422418,10.3384027 C13.7676595,11.2981028 12.7584768,12.0723578 11.3146937,12.6612626 L16.1764706,23.2941176 L11.4030507,23.2941176 L7.20426072,13.3483023 L7.19541075,13.3483023 L7.19541075,10.4031613 C7.93319419,10.3950427 8.52542884,10.3134772 8.97216229,10.1584648 C9.44363759,9.99490653 9.81195835,9.76041761 10.0771246,9.45504551 C10.3128384,9.14972089 10.4748976,8.77346563 10.5633022,8.3263272 C10.6517068,7.87923624 10.6959091,7.36121464 10.6959091,6.77230988 C10.6959091,6.18340511 10.6517068,5.66543099 10.5633022,5.21829255 C10.4748976,4.77115412 10.298136,4.38402663 10.0329223,4.05686259 C9.47308993,3.4461184 8.41232996,3.14079378 6.85068993,3.14079378 L4.5081585,3.14079378 L4.5081585,7.87249451 L4.49526418,7.87249451 L4.49526418,16.1585137 L4.5081585,16.1585137 Z" id="Path">
								</path>
							</g>
							<g id="Group">
								<path d="M25.299269,40.9730608 L33.564636,40.9730608 L40.9730608,33.564636 L40.9730608,3.02693919 C40.9730608,3.02693919 3.02693919,3.02693919 3.02693919,3.02693919 C3.02693919,3.02693919 3.02693919,40.9730608 3.02693919,40.9730608 L18.3862584,40.9730608 L18.3862584,44 L0,44 L0,0 L44,0 L44,34.8061309 L40.9730608,37.8330701 L40.9730608,37.8228304 L37.8228304,40.9730608 L37.8330701,40.9730608 L34.8061309,44 L25.299269,44 L25.299269,40.9730608 Z" id="Path">
								</path>
							</g>
						</g>
						<g id="Repositorium.ch" transform="translate(60.000000, 13.000000)" fill-rule="nonzero">
							<path d="M14.8880562,16.3192771 L10.7728337,16.3192771 C9.8607338,14.9206827 9.03661202,13.7118474 8.30046838,12.6927711 C7.56432475,11.6736948 6.76533958,10.622992 5.90351288,9.54066265 L4.34145199,9.54066265 L4.34145199,14.2846386 C4.34145199,14.5306225 4.38095238,14.7467369 4.45995316,14.9329819 C4.53895394,15.1192269 4.70772834,15.2615462 4.96627635,15.3599398 C5.09555035,15.4091365 5.32177986,15.4548193 5.64496487,15.496988 C5.96814988,15.5391566 6.24106167,15.563755 6.46370023,15.5707831 L6.46370023,16.3192771 L0,16.3192771 L0,15.5707831 C0.17236534,15.5567269 0.421935988,15.5321285 0.748711944,15.496988 C1.0754879,15.4618474 1.30351288,15.4161647 1.43278689,15.3599398 C1.64824356,15.2685743 1.80444965,15.1350402 1.90140515,14.9593373 C1.99836066,14.7836345 2.04683841,14.5587349 2.04683841,14.2846386 L2.04683841,3.46837349 C2.04683841,3.22238956 2.01092896,3.00451807 1.93911007,2.81475904 C1.86729118,2.625 1.69851678,2.48092369 1.43278689,2.38253012 C1.25323966,2.31927711 1.01982826,2.26129518 0.732552693,2.20858434 C0.445277127,2.15587349 0.201092896,2.12248996 0,2.10843373 L0,1.35993976 L7.05620609,1.35993976 C7.70257611,1.35993976 8.30944575,1.4249498 8.87681499,1.55496988 C9.44418423,1.68498996 9.95768931,1.89407631 10.4173302,2.18222892 C10.8626073,2.46335341 11.2181109,2.83057229 11.4838407,3.28388554 C11.7495706,3.7371988 11.8824356,4.28363454 11.8824356,4.92319277 C11.8824356,5.49949799 11.792662,6.00903614 11.6131148,6.45180723 C11.4335675,6.89457831 11.1678376,7.27761044 10.8159251,7.60090361 C10.49274,7.90311245 10.104918,8.16490964 9.65245902,8.38629518 C9.2,8.60768072 8.7008587,8.79568273 8.15503513,8.9503012 C8.90913349,9.92720884 9.53575332,10.749498 10.0348946,11.4171687 C10.5340359,12.0848394 11.146292,12.8965863 11.8716628,13.8524096 C12.1876659,14.2740964 12.473146,14.5850904 12.728103,14.7853916 C12.9830601,14.9856928 13.2362217,15.1490964 13.4875878,15.2756024 C13.6743169,15.3669679 13.9077283,15.437249 14.187822,15.4864458 C14.4679157,15.5356426 14.7013271,15.563755 14.8880562,15.5707831 L14.8880562,16.3192771 Z M9.22154567,5.16566265 C9.22154567,4.25903614 8.95581577,3.54041165 8.42435597,3.00978916 C7.89289617,2.47916667 7.14238876,2.21385542 6.17283372,2.21385542 L4.34145199,2.21385542 L4.34145199,8.63403614 L5.75269321,8.63403614 C6.74379391,8.63403614 7.56971116,8.32304217 8.23044496,7.70105422 C8.89117877,7.07906627 9.22154567,6.23393574 9.22154567,5.16566265 Z" id="Shape">
							</path>
							<path d="M24.6374707,13.873494 C24.1921936,14.7028112 23.5960968,15.3634538 22.8491803,15.8554217 C22.1022639,16.3473896 21.2440281,16.5933735 20.2744731,16.5933735 C19.4198283,16.5933735 18.6711163,16.4457831 18.0283372,16.1506024 C17.3855582,15.8554217 16.8558938,15.4548193 16.4393443,14.9487952 C16.0227947,14.4427711 15.712178,13.8524096 15.5074941,13.1777108 C15.3028103,12.503012 15.2004684,11.7896586 15.2004684,11.0376506 C15.2004684,10.3629518 15.3099922,9.70055221 15.5290398,9.05045181 C15.7480874,8.40035141 16.069477,7.81526104 16.4932084,7.29518072 C16.9025761,6.79618474 17.4106948,6.3938253 18.0175644,6.08810241 C18.624434,5.78237952 19.304918,5.62951807 20.0590164,5.62951807 C20.8346604,5.62951807 21.4989852,5.74899598 22.0519906,5.98795181 C22.6049961,6.22690763 23.0538642,6.55371486 23.3985948,6.96837349 C23.7289617,7.36194779 23.9749415,7.82580321 24.136534,8.35993976 C24.2981265,8.89407631 24.3789227,9.47389558 24.3789227,10.0993976 L24.3789227,10.7951807 L17.3442623,10.7951807 C17.3442623,11.4769076 17.4106948,12.0953815 17.5435597,12.6506024 C17.6764247,13.2058233 17.8864949,13.6942771 18.1737705,14.1159639 C18.4538642,14.5235944 18.8201405,14.8451305 19.2725995,15.0805723 C19.7250585,15.3160141 20.2637002,15.4337349 20.8885246,15.4337349 C21.5277127,15.4337349 22.0789227,15.2879016 22.5421546,14.9962349 C23.0053864,14.7045683 23.452459,14.1792169 23.8833724,13.4201807 L24.6374707,13.873494 Z M22.2566745,9.90963855 C22.2566745,9.51606426 22.2225605,9.09437751 22.1543326,8.64457831 C22.0861046,8.19477912 21.9765808,7.8187751 21.8257611,7.51656627 C21.6605777,7.19327309 21.4343482,6.92971888 21.1470726,6.72590361 C20.859797,6.52208835 20.4899297,6.42018072 20.0374707,6.42018072 C19.2833724,6.42018072 18.6567525,6.72766064 18.1576112,7.34262048 C17.6584699,7.95758032 17.3873536,8.81325301 17.3442623,9.90963855 L22.2566745,9.90963855 Z" id="Shape">
							</path>
							<path d="M35.571897,7.15813253 C35.9956284,7.6501004 36.3241998,8.22113454 36.5576112,8.87123494 C36.7910226,9.52133534 36.9077283,10.2645582 36.9077283,11.1009036 C36.9077283,11.9231928 36.7676815,12.6734438 36.4875878,13.3516566 C36.2074941,14.0298695 35.8376269,14.6079317 35.3779859,15.0858434 C34.8967994,15.5707831 34.3617486,15.9432731 33.7728337,16.2033133 C33.1839188,16.4633534 32.5590945,16.5933735 31.8983607,16.5933735 C31.2591725,16.5933735 30.7348946,16.5230924 30.3255269,16.3825301 C29.9161593,16.2419679 29.5822014,16.0768072 29.3236534,15.8870482 L29.2374707,15.8870482 L29.2374707,19.0075301 C29.2374707,19.2605422 29.287744,19.4713855 29.3882904,19.6400602 C29.4888368,19.8087349 29.6432475,19.9317269 29.8515222,20.0090361 C30.0238876,20.0722892 30.2698673,20.1337851 30.5894614,20.1935241 C30.9090554,20.2532631 31.1729899,20.2866466 31.3812646,20.2936747 L31.3812646,21 L25.4454333,21 L25.4454333,20.2936747 C25.6680718,20.2796185 25.8835285,20.2620482 26.0918033,20.2409639 C26.3000781,20.2198795 26.4868072,20.184739 26.6519906,20.1355422 C26.8674473,20.065261 27.018267,19.9422691 27.1044496,19.7665663 C27.1906323,19.5908635 27.2337237,19.3835341 27.2337237,19.1445783 L27.2337237,8.08584337 C27.2337237,7.875 27.1798595,7.67118474 27.0721311,7.47439759 C26.9644028,7.27761044 26.824356,7.11947791 26.6519906,7 C26.5227166,6.91566265 26.3431694,6.85065261 26.1133489,6.80496988 C25.8835285,6.75928715 25.6608899,6.72941767 25.4454333,6.71536145 L25.4454333,6.03012048 L29.0651054,5.79819277 L29.2159251,5.9246988 L29.2159251,7.09487952 L29.3021077,7.11596386 C29.675566,6.69427711 30.1387978,6.34287149 30.6918033,6.06174699 C31.2448087,5.78062249 31.7942233,5.64006024 32.3400468,5.64006024 C33.0007806,5.64006024 33.6058548,5.77710843 34.1552693,6.05120482 C34.7046838,6.3253012 35.1768931,6.69427711 35.571897,7.15813253 Z M33.8159251,14.6325301 C34.1032006,14.1967871 34.3150664,13.6907631 34.4515222,13.1144578 C34.5879781,12.5381526 34.6562061,11.8950803 34.6562061,11.185241 C34.6562061,10.6651606 34.598751,10.1345382 34.4838407,9.59337349 C34.3689305,9.05220884 34.1893833,8.5813253 33.9451991,8.18072289 C33.7010148,7.77309237 33.3814208,7.44277108 32.9864169,7.18975904 C32.591413,6.93674699 32.1174083,6.81024096 31.5644028,6.81024096 C31.032943,6.81024096 30.580484,6.92444779 30.2070258,7.15286145 C29.8335675,7.3812751 29.5103825,7.65361446 29.2374707,7.96987952 L29.2374707,14.1159639 C29.3021077,14.3057229 29.4080406,14.50251 29.5552693,14.7063253 C29.702498,14.9101406 29.865886,15.0858434 30.0454333,15.2334337 C30.2680718,15.4091365 30.5086651,15.5514558 30.7672131,15.6603916 C31.0257611,15.7693273 31.3417642,15.8237952 31.7152225,15.8237952 C32.1174083,15.8237952 32.5052303,15.7201305 32.8786885,15.5128012 C33.2521468,15.3054719 33.5645589,15.0120482 33.8159251,14.6325301 Z" id="Shape">
							</path>
							<path d="M48.8224824,11.0165663 C48.8224824,11.74749 48.7039813,12.4661145 48.4669789,13.1724398 C48.2299766,13.8787651 47.8924278,14.4779116 47.4543326,14.9698795 C46.9587822,15.5321285 46.3842311,15.9503012 45.7306792,16.2243976 C45.0771272,16.498494 44.3445746,16.6355422 43.5330211,16.6355422 C42.8579235,16.6355422 42.2151444,16.5107932 41.6046838,16.2612952 C40.9942233,16.0117972 40.4519906,15.6480924 39.9779859,15.1701807 C39.5111632,14.6992972 39.1395004,14.124749 38.8629977,13.4465361 C38.5864949,12.7683233 38.4482436,12.0075301 38.4482436,11.1641566 C38.4482436,9.54066265 38.9312256,8.2123494 39.8971897,7.17921687 C40.8631538,6.14608434 42.1289617,5.62951807 43.6946136,5.62951807 C45.1812646,5.62951807 46.4075722,6.11972892 47.3735363,7.1001506 C48.3395004,8.08057229 48.8224824,9.38604418 48.8224824,11.0165663 Z M46.5925059,11.0376506 C46.5925059,10.5105422 46.5386417,9.95356426 46.4309133,9.36671687 C46.323185,8.77986948 46.1615925,8.28263052 45.9461358,7.875 C45.7163154,7.43925703 45.414676,7.08960843 45.0412178,6.82605422 C44.6677596,6.5625 44.2117096,6.43072289 43.6730679,6.43072289 C43.1200625,6.43072289 42.6478532,6.56425703 42.2564403,6.8313253 C41.8650273,7.09839357 41.5472287,7.46385542 41.3030445,7.92771084 C41.073224,8.3564257 40.9116315,8.84487952 40.818267,9.39307229 C40.7249024,9.94126506 40.6782201,10.4718876 40.6782201,10.9849398 C40.6782201,11.6596386 40.7338798,12.2833835 40.8451991,12.8561747 C40.9565183,13.4289659 41.1342701,13.940261 41.3784543,14.3900602 C41.6226386,14.8398594 41.9296643,15.1930221 42.2995316,15.4495482 C42.6693989,15.7060743 43.1272443,15.8343373 43.6730679,15.8343373 C44.5708041,15.8343373 45.2818111,15.4091365 45.806089,14.5587349 C46.3303669,13.7083333 46.5925059,12.5346386 46.5925059,11.0376506 Z" id="Shape">
							</path>
							<path d="M57.3761124,11.2274096 C57.6705699,11.4804217 57.8967994,11.7720884 58.0548009,12.1024096 C58.2128025,12.4327309 58.2918033,12.8368474 58.2918033,13.314759 C58.2918033,14.2776104 57.9237315,15.064759 57.1875878,15.6762048 C56.4514442,16.2876506 55.4980484,16.5933735 54.3274005,16.5933735 C53.709758,16.5933735 53.1405933,16.4844378 52.6199063,16.2665663 C52.0992194,16.0486948 51.7275566,15.8483936 51.504918,15.6656627 L51.2894614,16.3509036 L50.4814988,16.3509036 L50.3737705,12.7349398 L51.117096,12.7349398 C51.1745511,13.0090361 51.2966432,13.3288153 51.4833724,13.6942771 C51.6701015,14.059739 51.896331,14.3900602 52.1620609,14.685241 C52.4421546,14.9944779 52.7779079,15.2545181 53.1693208,15.4653614 C53.5607338,15.6762048 54.0006245,15.7816265 54.488993,15.7816265 C55.1784543,15.7816265 55.7099141,15.6287651 56.0833724,15.3230422 C56.4568306,15.0173193 56.6435597,14.5798193 56.6435597,14.0105422 C56.6435597,13.7153614 56.5843091,13.4605924 56.465808,13.2462349 C56.3473068,13.0318775 56.173146,12.8438755 55.9433255,12.6822289 C55.7063232,12.5205823 55.4154567,12.374749 55.070726,12.2447289 C54.7259953,12.1147088 54.3417642,11.9864458 53.9180328,11.8599398 C53.580484,11.7615462 53.2052303,11.626255 52.7922717,11.4540663 C52.379313,11.2818775 52.025605,11.0798193 51.7311475,10.8478916 C51.4151444,10.6019076 51.1565964,10.2996988 50.9555035,9.94126506 C50.7544106,9.58283133 50.6538642,9.16114458 50.6538642,8.67620482 C50.6538642,7.82580321 50.9770492,7.10542169 51.6234192,6.51506024 C52.2697892,5.9246988 53.1352069,5.62951807 54.2196721,5.62951807 C54.6362217,5.62951807 55.0617486,5.68222892 55.4962529,5.7876506 C55.9307572,5.89307229 56.2844653,6.01957831 56.557377,6.16716867 L56.8051522,5.6189759 L57.5807963,5.6189759 L57.7423888,8.96084337 L56.9990632,8.96084337 C56.8482436,8.21586345 56.5232631,7.60968876 56.0241218,7.14231928 C55.5249805,6.6749498 54.9163154,6.44126506 54.1981265,6.44126506 C53.6092116,6.44126506 53.1459797,6.58534137 52.8084309,6.87349398 C52.4708821,7.16164659 52.3021077,7.50953815 52.3021077,7.91716867 C52.3021077,8.23343373 52.3577674,8.49698795 52.4690867,8.70783133 C52.5804059,8.9186747 52.7473849,9.09789157 52.9700234,9.24548193 C53.1854801,9.38604418 53.4565964,9.51782129 53.7833724,9.64081325 C54.1101483,9.76380522 54.5141296,9.90261044 54.9953162,10.0572289 C55.4693208,10.2048193 55.9163934,10.377008 56.336534,10.5737952 C56.7566745,10.7705823 57.1032006,10.9884538 57.3761124,11.2274096 Z" id="Path">
							</path>
							<path d="M65.0571429,16.3192771 L59.9185012,16.3192771 L59.9185012,15.623494 C60.0836846,15.6094378 60.2542545,15.5953815 60.4302108,15.5813253 C60.6061671,15.5672691 60.7587822,15.5391566 60.8880562,15.496988 C61.0891491,15.4337349 61.2381733,15.3230422 61.3351288,15.1649096 C61.4320843,15.0067771 61.4805621,14.8012048 61.4805621,14.5481928 L61.4805621,8.12801205 C61.4805621,7.90311245 61.4284934,7.69754016 61.324356,7.51129518 C61.2202186,7.3250502 61.0747853,7.1686747 60.8880562,7.04216867 C60.7516003,6.95783133 60.5540984,6.88579317 60.2955504,6.82605422 C60.0370023,6.76631526 59.8,6.72941767 59.5845433,6.71536145 L59.5845433,6.03012048 L63.3334895,5.79819277 L63.4843091,5.94578313 L63.4843091,14.4216867 C63.4843091,14.6676707 63.5327869,14.8714859 63.6297424,15.0331325 C63.7266979,15.1947791 63.879313,15.314257 64.0875878,15.3915663 C64.2455894,15.4548193 64.4,15.5057731 64.5508197,15.5444277 C64.7016393,15.5830823 64.8704137,15.6094378 65.0571429,15.623494 L65.0571429,16.3192771 Z M63.6997658,1.69728916 C63.6997658,2.09789157 63.5651054,2.44754016 63.2957845,2.74623494 C63.0264637,3.04492972 62.6943013,3.19427711 62.2992974,3.19427711 C61.9330211,3.19427711 61.6152225,3.05195783 61.3459016,2.76731928 C61.0765808,2.48268072 60.9419204,2.15763052 60.9419204,1.79216867 C60.9419204,1.40562249 61.0765808,1.06827309 61.3459016,0.780120482 C61.6152225,0.491967871 61.9330211,0.347891566 62.2992974,0.347891566 C62.7086651,0.347891566 63.0444184,0.483182731 63.3065574,0.75376506 C63.5686963,1.02434739 63.6997658,1.33885542 63.6997658,1.69728916 Z" id="Shape">
							</path>
							<path d="M72.9213115,15.8659639 C72.4544887,16.0557229 72.0128025,16.2156124 71.5962529,16.3456325 C71.1797034,16.4756526 70.6697892,16.5406627 70.0665105,16.5406627 C69.1759563,16.5406627 68.5493365,16.3210341 68.1866511,15.8817771 C67.8239657,15.4425201 67.642623,14.8222892 67.642623,14.0210843 L67.642623,6.97891566 L65.7250585,6.97891566 L65.7250585,5.96686747 L67.6857143,5.96686747 L67.6857143,2.73042169 L69.64637,2.73042169 L69.64637,5.96686747 L72.695082,5.96686747 L72.695082,6.97891566 L69.6679157,6.97891566 L69.6679157,12.7876506 C69.6679157,13.2233936 69.6840749,13.5870984 69.7163934,13.8787651 C69.7487119,14.1704317 69.8259173,14.4252008 69.9480094,14.6430723 C70.0629196,14.8468876 70.2352849,15.001506 70.4651054,15.1069277 C70.6949258,15.2123494 71.0037471,15.2650602 71.3915691,15.2650602 C71.5711163,15.2650602 71.8350507,15.249247 72.1833724,15.2176205 C72.531694,15.185994 72.7776737,15.1455823 72.9213115,15.0963855 L72.9213115,15.8659639 Z" id="Path">
							</path>
							<path d="M84.3297424,11.0165663 C84.3297424,11.74749 84.2112412,12.4661145 83.9742389,13.1724398 C83.7372365,13.8787651 83.3996877,14.4779116 82.9615925,14.9698795 C82.4660422,15.5321285 81.891491,15.9503012 81.2379391,16.2243976 C80.5843872,16.498494 79.8518345,16.6355422 79.040281,16.6355422 C78.3651835,16.6355422 77.7224044,16.5107932 77.1119438,16.2612952 C76.5014832,16.0117972 75.9592506,15.6480924 75.4852459,15.1701807 C75.0184231,14.6992972 74.6467603,14.124749 74.3702576,13.4465361 C74.0937549,12.7683233 73.9555035,12.0075301 73.9555035,11.1641566 C73.9555035,9.54066265 74.4384856,8.2123494 75.4044496,7.17921687 C76.3704137,6.14608434 77.6362217,5.62951807 79.2018735,5.62951807 C80.6885246,5.62951807 81.9148322,6.11972892 82.8807963,7.1001506 C83.8467603,8.08057229 84.3297424,9.38604418 84.3297424,11.0165663 Z M82.0997658,11.0376506 C82.0997658,10.5105422 82.0459016,9.95356426 81.9381733,9.36671687 C81.830445,8.77986948 81.6688525,8.28263052 81.4533958,7.875 C81.2235753,7.43925703 80.921936,7.08960843 80.5484778,6.82605422 C80.1750195,6.5625 79.7189696,6.43072289 79.1803279,6.43072289 C78.6273224,6.43072289 78.1551132,6.56425703 77.7637002,6.8313253 C77.3722873,7.09839357 77.0544887,7.46385542 76.8103044,7.92771084 C76.580484,8.3564257 76.4188915,8.84487952 76.3255269,9.39307229 C76.2321624,9.94126506 76.1854801,10.4718876 76.1854801,10.9849398 C76.1854801,11.6596386 76.2411397,12.2833835 76.352459,12.8561747 C76.4637783,13.4289659 76.6415301,13.940261 76.8857143,14.3900602 C77.1298985,14.8398594 77.4369243,15.1930221 77.8067916,15.4495482 C78.1766589,15.7060743 78.6345043,15.8343373 79.1803279,15.8343373 C80.078064,15.8343373 80.789071,15.4091365 81.3133489,14.5587349 C81.8376269,13.7083333 82.0997658,12.5346386 82.0997658,11.0376506 Z" id="Shape">
							</path>
							<path d="M94.0037471,7.26355422 C94.0037471,7.62198795 93.9139735,7.94001004 93.7344262,8.21762048 C93.554879,8.49523092 93.2783763,8.63403614 92.904918,8.63403614 C92.5027322,8.63403614 92.1957065,8.53212851 91.9838407,8.32831325 C91.771975,8.12449799 91.6660422,7.89959839 91.6660422,7.65361446 C91.6660422,7.49899598 91.6786105,7.35843373 91.7037471,7.23192771 C91.7288837,7.10542169 91.7522248,6.97891566 91.7737705,6.85240964 C91.4362217,6.85240964 91.0412178,6.98594378 90.5887588,7.25301205 C90.1362998,7.52008032 89.7520687,7.89959839 89.4360656,8.39156627 L89.4360656,14.4427711 C89.4360656,14.688755 89.4845433,14.8890562 89.5814988,15.0436747 C89.6784543,15.1982932 89.8310695,15.314257 90.0393443,15.3915663 C90.2188915,15.4618474 90.4505074,15.5145582 90.734192,15.5496988 C91.0178767,15.5848394 91.2638564,15.6094378 91.4721311,15.623494 L91.4721311,16.3192771 L85.8702576,16.3192771 L85.8702576,15.623494 C86.0354411,15.6094378 86.2060109,15.5953815 86.3819672,15.5813253 C86.5579235,15.5672691 86.7105386,15.5391566 86.8398126,15.496988 C87.0409055,15.4337349 87.1899297,15.3230422 87.2868852,15.1649096 C87.3838407,15.0067771 87.4323185,14.8012048 87.4323185,14.5481928 L87.4323185,8.12801205 C87.4323185,7.91014056 87.3802498,7.69578313 87.2761124,7.48493976 C87.171975,7.27409639 87.0265418,7.10542169 86.8398126,6.97891566 C86.7033568,6.89457831 86.5417642,6.83308233 86.3550351,6.79442771 C86.168306,6.75577309 85.9672131,6.72941767 85.7517564,6.71536145 L85.7517564,6.03012048 L89.2852459,5.79819277 L89.4360656,5.94578313 L89.4360656,7.41114458 L89.4899297,7.41114458 C89.9352069,6.84186747 90.4307572,6.40963855 90.9765808,6.11445783 C91.5224044,5.81927711 92.0215457,5.67168675 92.4740047,5.67168675 C92.9264637,5.67168675 93.2945355,5.81576305 93.5782201,6.10391566 C93.8619048,6.39206827 94.0037471,6.77861446 94.0037471,7.26355422 Z" id="Path">
							</path>
							<path d="M100.068852,16.3192771 L94.9302108,16.3192771 L94.9302108,15.623494 C95.0953942,15.6094378 95.2659641,15.5953815 95.4419204,15.5813253 C95.6178767,15.5672691 95.7704918,15.5391566 95.8997658,15.496988 C96.1008587,15.4337349 96.2498829,15.3230422 96.3468384,15.1649096 C96.4437939,15.0067771 96.4922717,14.8012048 96.4922717,14.5481928 L96.4922717,8.12801205 C96.4922717,7.90311245 96.440203,7.69754016 96.3360656,7.51129518 C96.2319282,7.3250502 96.0864949,7.1686747 95.8997658,7.04216867 C95.7633099,6.95783133 95.565808,6.88579317 95.30726,6.82605422 C95.0487119,6.76631526 94.8117096,6.72941767 94.5962529,6.71536145 L94.5962529,6.03012048 L98.3451991,5.79819277 L98.4960187,5.94578313 L98.4960187,14.4216867 C98.4960187,14.6676707 98.5444965,14.8714859 98.641452,15.0331325 C98.7384075,15.1947791 98.8910226,15.314257 99.0992974,15.3915663 C99.257299,15.4548193 99.4117096,15.5057731 99.5625293,15.5444277 C99.7133489,15.5830823 99.8821233,15.6094378 100.068852,15.623494 L100.068852,16.3192771 Z M98.7114754,1.69728916 C98.7114754,2.09789157 98.576815,2.44754016 98.3074941,2.74623494 C98.0381733,3.04492972 97.7060109,3.19427711 97.311007,3.19427711 C96.9447307,3.19427711 96.6269321,3.05195783 96.3576112,2.76731928 C96.0882904,2.48268072 95.95363,2.15763052 95.95363,1.79216867 C95.95363,1.40562249 96.0882904,1.06827309 96.3576112,0.780120482 C96.6269321,0.491967871 96.9447307,0.347891566 97.311007,0.347891566 C97.7203747,0.347891566 98.056128,0.483182731 98.318267,0.75376506 C98.5804059,1.02434739 98.7114754,1.33885542 98.7114754,1.69728916 Z" id="Shape">
							</path>
							<path d="M112.759251,16.1295181 L109.301171,16.3614458 L109.139578,16.2138554 L109.139578,14.8960843 L109.074941,14.8960843 C108.902576,15.0717871 108.708665,15.2597892 108.493208,15.4600904 C108.277752,15.6603916 108.029977,15.8413655 107.749883,16.003012 C107.426698,16.1927711 107.114286,16.3368474 106.812646,16.435241 C106.511007,16.5336345 106.083685,16.5828313 105.530679,16.5828313 C104.589852,16.5828313 103.873458,16.2823795 103.381499,15.6814759 C102.889539,15.0805723 102.64356,14.2073293 102.64356,13.061747 L102.64356,8.08584337 C102.64356,7.83283133 102.595082,7.62023092 102.498126,7.44804217 C102.401171,7.27585341 102.259329,7.12650602 102.0726,7 C101.943326,6.91566265 101.781733,6.85416667 101.587822,6.81551205 C101.393911,6.77685743 101.189227,6.75050201 100.97377,6.73644578 L100.97377,6.05120482 L104.518033,5.79819277 L104.679625,5.94578313 L104.679625,13.1671687 C104.679625,13.9191767 104.851991,14.4849398 105.196721,14.8644578 C105.541452,15.2439759 105.954411,15.4337349 106.435597,15.4337349 C106.830601,15.4337349 107.182514,15.373996 107.491335,15.2545181 C107.800156,15.1350402 108.058704,14.9944779 108.266979,14.8328313 C108.46089,14.685241 108.63146,14.5288655 108.778689,14.3637048 C108.925917,14.1985442 109.039032,14.0456827 109.118033,13.9051205 L109.118033,8.01204819 C109.118033,7.78012048 109.06776,7.57454819 108.967213,7.39533133 C108.866667,7.21611446 108.72662,7.06325301 108.547073,6.93674699 C108.417799,6.85240964 108.225683,6.80145582 107.970726,6.78388554 C107.715769,6.76631526 107.430289,6.75050201 107.114286,6.73644578 L107.114286,6.05120482 L110.97096,5.79819277 L111.132553,5.94578313 L111.132553,14.2003012 C111.132553,14.439257 111.182826,14.6430723 111.283372,14.811747 C111.383919,14.9804217 111.523966,15.124498 111.703513,15.2439759 C111.832787,15.3212851 111.987198,15.372239 112.166745,15.3968373 C112.346292,15.4214357 112.543794,15.437249 112.759251,15.4442771 L112.759251,16.1295181 Z" id="Path">
							</path>
							<path d="M132.25808,16.3192771 L127.076347,16.3192771 L127.076347,15.623494 C127.24153,15.6094378 127.408509,15.5953815 127.577283,15.5813253 C127.746058,15.5672691 127.895082,15.5391566 128.024356,15.496988 C128.225449,15.4337349 128.374473,15.3230422 128.471429,15.1649096 C128.568384,15.0067771 128.616862,14.8012048 128.616862,14.5481928 L128.616862,9.18222892 C128.616862,8.45130522 128.446292,7.8872992 128.105152,7.49021084 C127.764012,7.09312249 127.338486,6.89457831 126.828571,6.89457831 C126.476659,6.89457831 126.146292,6.94728916 125.837471,7.05271084 C125.528649,7.15813253 125.244965,7.30572289 124.986417,7.49548193 C124.778142,7.6501004 124.603981,7.81701807 124.463934,7.99623494 C124.323888,8.17545181 124.217955,8.3247992 124.146136,8.44427711 L124.146136,14.4427711 C124.146136,14.688755 124.189227,14.8908133 124.27541,15.0489458 C124.361593,15.2070783 124.508821,15.3283133 124.717096,15.4126506 C124.882279,15.4759036 125.031304,15.5233434 125.164169,15.5549699 C125.297034,15.5865964 125.471194,15.6094378 125.686651,15.623494 L125.686651,16.3192771 L120.612646,16.3192771 L120.612646,15.623494 C120.77783,15.6094378 120.937627,15.5953815 121.092037,15.5813253 C121.246448,15.5672691 121.38829,15.5391566 121.517564,15.496988 C121.718657,15.4337349 121.867681,15.3230422 121.964637,15.1649096 C122.061593,15.0067771 122.11007,14.8012048 122.11007,14.5481928 L122.11007,9.18222892 C122.11007,8.45130522 121.9395,7.8872992 121.598361,7.49021084 C121.257221,7.09312249 120.831694,6.89457831 120.32178,6.89457831 C119.969867,6.89457831 119.6395,6.94904618 119.330679,7.05798193 C119.021858,7.16691767 118.738173,7.31626506 118.479625,7.5060241 C118.271351,7.66064257 118.095394,7.83458835 117.951756,8.02786145 C117.808119,8.22113454 117.70039,8.36696787 117.628571,8.46536145 L117.628571,14.4216867 C117.628571,14.6606426 117.678845,14.8609438 117.779391,15.0225904 C117.879938,15.1842369 118.030757,15.3072289 118.23185,15.3915663 C118.38267,15.4618474 118.53708,15.5145582 118.695082,15.5496988 C118.853084,15.5848394 119.02904,15.6094378 119.222951,15.623494 L119.222951,16.3192771 L114.062763,16.3192771 L114.062763,15.623494 C114.227947,15.6094378 114.398517,15.5953815 114.574473,15.5813253 C114.750429,15.5672691 114.903044,15.5391566 115.032319,15.496988 C115.233411,15.4337349 115.382436,15.3230422 115.479391,15.1649096 C115.576347,15.0067771 115.624824,14.8012048 115.624824,14.5481928 L115.624824,8.08584337 C115.624824,7.86094378 115.572756,7.65888554 115.468618,7.47966867 C115.364481,7.30045181 115.219048,7.14759036 115.032319,7.02108434 C114.895863,6.93674699 114.727088,6.86822289 114.525995,6.81551205 C114.324902,6.7628012 114.116628,6.72941767 113.901171,6.71536145 L113.901171,6.03012048 L117.456206,5.79819277 L117.607026,5.94578313 L117.607026,7.43222892 L117.682436,7.43222892 C117.861983,7.2565261 118.08103,7.04919679 118.339578,6.81024096 C118.598126,6.57128514 118.83872,6.37801205 119.061358,6.23042169 C119.312724,6.06174699 119.626932,5.92118474 120.003981,5.80873494 C120.38103,5.69628514 120.788603,5.64006024 121.226698,5.64006024 C121.916159,5.64006024 122.508665,5.82103414 123.004215,6.18298193 C123.499766,6.54492972 123.855269,6.98242972 124.070726,7.49548193 C124.329274,7.24949799 124.557299,7.03338353 124.754801,6.84713855 C124.952303,6.66089357 125.212646,6.4623494 125.535831,6.25150602 C125.808743,6.0687751 126.130133,5.92118474 126.5,5.80873494 C126.869867,5.69628514 127.28103,5.64006024 127.733489,5.64006024 C128.631226,5.64006024 129.342233,5.92821285 129.866511,6.50451807 C130.390788,7.08082329 130.652927,7.96636546 130.652927,9.16114458 L130.652927,14.4427711 C130.652927,14.688755 130.696019,14.8908133 130.782201,15.0489458 C130.868384,15.2070783 131.015613,15.3283133 131.223888,15.4126506 C131.389071,15.4759036 131.552459,15.5233434 131.714052,15.5549699 C131.875644,15.5865964 132.056987,15.6094378 132.25808,15.623494 L132.25808,16.3192771 Z" id="Path">
							</path>
							<path d="M137.192037,15.1069277 C137.192037,15.500502 137.046604,15.8360944 136.755738,16.1137048 C136.464871,16.3913153 136.118345,16.5301205 135.716159,16.5301205 C135.313973,16.5301205 134.967447,16.3913153 134.676581,16.1137048 C134.385714,15.8360944 134.240281,15.500502 134.240281,15.1069277 C134.240281,14.7133534 134.385714,14.374247 134.676581,14.0896084 C134.967447,13.8049699 135.313973,13.6626506 135.716159,13.6626506 C136.118345,13.6626506 136.464871,13.8049699 136.755738,14.0896084 C137.046604,14.374247 137.192037,14.7133534 137.192037,15.1069277 Z" id="Path">
							</path>
							<path d="M144.355972,16.5933735 C142.819048,16.5933735 141.616081,16.0943775 140.747073,15.0963855 C139.878064,14.0983936 139.44356,12.7595382 139.44356,11.0798193 C139.44356,10.3488956 139.560265,9.66541165 139.793677,9.02936747 C140.027088,8.39332329 140.366432,7.81526104 140.81171,7.29518072 C141.235441,6.79618474 141.766901,6.3938253 142.406089,6.08810241 C143.045277,5.78237952 143.74192,5.62951807 144.496019,5.62951807 C145.537393,5.62951807 146.384856,5.87374498 147.038407,6.3621988 C147.691959,6.85065261 148.018735,7.51656627 148.018735,8.35993976 C148.018735,8.71134538 147.932553,9.02233936 147.760187,9.29292169 C147.587822,9.56350402 147.304137,9.69879518 146.909133,9.69879518 C146.485402,9.69879518 146.156831,9.59337349 145.923419,9.38253012 C145.690008,9.17168675 145.573302,8.93624498 145.573302,8.67620482 C145.573302,8.35993976 145.616393,8.03488956 145.702576,7.70105422 C145.788759,7.36721888 145.839032,7.12299197 145.853396,6.96837349 C145.724122,6.75050201 145.532006,6.60466867 145.277049,6.53087349 C145.022092,6.45707831 144.747385,6.42018072 144.452927,6.42018072 C144.108197,6.42018072 143.779625,6.49221888 143.467213,6.63629518 C143.154801,6.78037149 142.851366,7.04568273 142.556909,7.43222892 C142.291179,7.78363454 142.075722,8.25803213 141.910539,8.85542169 C141.745355,9.45281124 141.662763,10.1661647 141.662763,10.9954819 C141.662763,12.3027108 141.959016,13.3692269 142.551522,14.1950301 C143.144028,15.0208333 143.921468,15.4337349 144.883841,15.4337349 C145.580484,15.4337349 146.164012,15.2685743 146.634426,14.938253 C147.10484,14.6079317 147.54114,14.1124498 147.943326,13.4518072 L148.632787,13.8945783 C148.158782,14.7238956 147.533958,15.3810241 146.758314,15.8659639 C145.98267,16.3509036 145.181889,16.5933735 144.355972,16.5933735 Z" id="Path">
							</path>
							<path d="M161,16.3192771 L155.785948,16.3192771 L155.785948,15.623494 C155.951132,15.6094378 156.13427,15.5953815 156.335363,15.5813253 C156.536456,15.5672691 156.701639,15.5391566 156.830913,15.496988 C157.032006,15.4337349 157.18103,15.3230422 157.277986,15.1649096 C157.374941,15.0067771 157.423419,14.8012048 157.423419,14.5481928 L157.423419,9.20331325 C157.423419,8.46536145 157.245667,7.89608434 156.890164,7.49548193 C156.53466,7.09487952 156.101952,6.89457831 155.592037,6.89457831 C155.218579,6.89457831 154.872053,6.95256024 154.552459,7.0685241 C154.232865,7.18448795 153.947385,7.32680723 153.696019,7.49548193 C153.451835,7.67118474 153.265105,7.84688755 153.135831,8.02259036 C153.006557,8.19829317 152.906011,8.34588353 152.834192,8.46536145 L152.834192,14.4427711 C152.834192,14.6817269 152.88267,14.8785141 152.979625,15.0331325 C153.076581,15.187751 153.225605,15.3072289 153.426698,15.3915663 C153.584699,15.4618474 153.748087,15.5145582 153.916862,15.5496988 C154.085636,15.5848394 154.27057,15.6094378 154.471663,15.623494 L154.471663,16.3192771 L149.257611,16.3192771 L149.257611,15.623494 C149.422795,15.6094378 149.59516,15.5936245 149.774707,15.5760542 C149.954254,15.5584839 150.105074,15.5321285 150.227166,15.496988 C150.428259,15.4337349 150.579079,15.3230422 150.679625,15.1649096 C150.780172,15.0067771 150.830445,14.8012048 150.830445,14.5481928 L150.830445,2.44578313 C150.830445,2.20682731 150.774785,1.96787149 150.663466,1.72891566 C150.552147,1.48995984 150.406714,1.31074297 150.227166,1.19126506 C150.097892,1.0998996 149.869867,1.03488956 149.543091,0.99623494 C149.216315,0.957580321 148.952381,0.9312249 148.751288,0.917168675 L148.751288,0.24246988 L152.683372,0 L152.834192,0.15813253 L152.834192,7.41114458 L152.877283,7.41114458 C153.114286,7.17921687 153.329742,6.97364458 153.523653,6.79442771 C153.717564,6.61521084 153.972521,6.42720884 154.288525,6.23042169 C154.561436,6.06174699 154.882826,5.92118474 155.252693,5.80873494 C155.62256,5.69628514 156.037315,5.64006024 156.496956,5.64006024 C157.444965,5.64006024 158.173927,5.93348394 158.683841,6.52033133 C159.193755,7.10717871 159.448712,7.95230924 159.448712,9.05572289 L159.448712,14.4638554 C159.448712,14.7098394 159.493599,14.9083835 159.583372,15.059488 C159.673146,15.2105924 159.82217,15.3283133 160.030445,15.4126506 C160.195628,15.4759036 160.344653,15.5233434 160.477518,15.5549699 C160.610383,15.5865964 160.784543,15.6094378 161,15.623494 L161,16.3192771 Z" id="Path">
							</path>
						</g>
					</g>
				</g>
			</g>
		</g>
	</g>
</svg>
