<svg width="203px" height="33px" viewBox="0 0 203 33" version="1.1" xmlns="http://www.w3.org/2000/svg" xmlns:xlink="http://www.w3.org/1999/xlink">
	<g id="Startpage" stroke="none" stroke-width="1" fill="none" fill-rule="evenodd">
		<g id="Artboard" transform="translate(-479.000000, -466.000000)" fill="#000000" fill-rule="nonzero">
			<g id="Group-5" transform="translate(132.000000, 284.000000)">
				<g id="Swisscovery" transform="translate(309.000000, 153.000000)">
					<g id="thumbnail_41SLSP_NETWORK-VU1_UNION" transform="translate(38.000000, 29.000000)">
						<polygon id="Path" points="0 30 15 30 15 15 11.2483191 15 11.2483191 26.25 0 26.25">
						</polygon>
						<polygon id="Path" points="15 0 0 0 0 15 3.75168086 15 3.75168086 3.75168086 15 3.75168086">
						</polygon>
						<path d="M37,23.7260713 L38.7020811,21.3159792 C39.8949168,22.4193361 41.42175,23.057338 43.0197152,23.1201442 C44.7217963,23.1201442 45.5235487,22.2895475 45.5235487,21.1866239 C45.5235487,19.82499 43.8280394,19.2190629 42.1653888,18.5586704 C40.1150055,17.7621145 37.7754655,16.5162195 37.7754655,13.8406087 C37.7754655,11.0288346 39.9638554,9 43.4600219,9 C45.3519725,9.02347717 47.1810319,9.70706684 48.6516977,10.9403284 L46.9759036,13.2959551 C46.0115625,12.4543134 44.8107283,11.9576541 43.5520263,11.8798558 C41.9813801,11.8798558 41.2322015,12.6627954 41.2322015,13.6772127 C41.2322015,14.9571486 42.8159912,15.4405286 44.5180723,16.0873048 C46.6341731,16.9042851 49,17.9595515 49,20.9823789 C49,23.7601121 46.8707558,26 42.9277108,26 C40.7628226,25.9453341 38.6771691,25.1452567 37,23.7260713 Z" id="Path">
						</path>
						<path d="M51,9 L54.7971698,9 L56.75,17.806885 C57.068691,19.4483627 57.3060142,21.0398825 57.5908019,22.6956339 L57.7264151,22.6956339 C58.0383255,21.0398825 58.3570165,19.4126784 58.7502948,17.806885 L60.8590802,9 L64.2900943,9 L66.473467,17.806885 C66.8735259,19.4483627 67.151533,21.0398825 67.5380307,22.6956339 L67.6736439,22.6956339 C67.9855542,21.0398825 68.2228774,19.4483627 68.5415684,17.806885 L70.4672759,9 L74,9 L69.9316038,25.9714526 L65.395342,25.9714526 L63.5035377,18.0852225 C63.1577241,16.4937028 62.8729363,14.9307305 62.5271226,13.1536524 L62.4050708,13.1536524 C62.0931604,14.9307305 61.8151533,16.5222502 61.4489976,18.1494542 L59.625,26 L55.2582547,26 L51,9 Z" id="Path">
						</path>
						<path d="M76.0094611,5.59239725 C75.9200936,4.61256306 76.4700847,3.6808305 77.3945545,3.24592902 C78.3190243,2.81102754 79.4284447,2.96211749 80.1885104,3.62643281 C80.9485761,4.29074812 81.203464,5.33209569 80.8304182,6.24895467 C80.4573723,7.16581364 79.5328719,7.77021623 78.5021633,7.7710776 C77.8627923,7.82098179 77.2305525,7.61435514 76.7574928,7.20088986 C76.2844331,6.78742457 76.0133587,6.20453335 76.0094611,5.59239725 L76.0094611,5.59239725 Z M76.4718754,10.6392137 L80.5035503,10.6392137 L80.5035503,27 L76.4718754,27 L76.4718754,10.6392137 Z" id="Shape">
						</path>
						<path d="M83,23.7260713 L84.7058502,21.3159792 C85.8950117,22.4178725 87.4167776,23.0557726 89.0098414,23.1201442 C90.7156916,23.1201442 91.516129,22.2895475 91.516129,21.1866239 C91.516129,19.82499 89.8234008,19.2190629 88.1569163,18.5586704 C86.1164571,17.7621145 83.7741935,16.5162195 83.7741935,13.8406087 C83.7741935,11.0288346 85.958994,9 89.4559869,9 C91.3445569,9.02506511 93.1701301,9.7084728 94.6391471,10.9403284 L92.9792236,13.2959551 C92.0189676,12.4544012 90.8221892,11.9576526 89.5675232,11.8798558 C87.9928923,11.8798558 87.2515036,12.6627954 87.2515036,13.6772127 C87.2515036,14.9571486 88.8261345,15.4405286 90.5319847,16.0873048 C92.6380536,16.9042851 95,17.9595515 95,20.9823789 C95,23.7601121 92.8808092,26 88.9442318,26 C86.7741254,25.9498011 84.6822224,25.1495567 83,23.7260713 L83,23.7260713 Z" id="Path">
						</path>
						<path d="M97,23.7260713 L98.7011494,21.3159792 C99.8939202,22.4183552 101.419563,23.0562088 103.01642,23.1201442 C104.71757,23.1201442 105.518883,22.2895475 105.518883,21.1866239 C105.518883,19.82499 103.83087,19.2190629 102.162562,18.5586704 C100.1133,17.7621145 97.7750411,16.5162195 97.7750411,13.8406087 C97.7750411,11.0288346 99.9622332,9 103.463054,9 C105.353692,9.02506511 107.181263,9.7084728 108.651888,10.9403284 L106.970443,13.2959551 C106.007366,12.4530414 104.806765,11.9562065 103.54844,11.8798558 C101.978654,11.8798558 101.236453,12.6627954 101.236453,13.6772127 C101.236453,14.9571486 102.812808,15.4405286 104.520525,16.0873048 C106.635468,16.9042851 109,17.9595515 109,20.9823789 C109,23.7601121 106.878489,26 102.931034,26 C100.765065,25.9468379 98.6780152,25.1466737 97,23.7260713 Z" id="Path">
						</path>
						<path d="M112,17.5135792 C112,12.1152278 115.785751,9.00026997 120.065003,9.00026997 C121.804514,8.98476116 123.484558,9.63795569 124.763391,10.8269849 L122.931357,13.3012293 C122.226414,12.5723283 121.270132,12.1451598 120.26105,12.1084117 C117.665107,12.1084117 115.873635,14.2759316 115.873635,17.5203953 C115.873635,20.7648591 117.644826,22.9051146 120.139366,22.9051146 C121.371829,22.8558372 122.548411,22.3736022 123.465419,21.5418945 L125,24.0502194 C123.538808,25.3252929 121.66611,26.0185082 119.733749,25.9996241 C115.366615,25.9996241 112,22.8846663 112,17.5135792 Z" id="Path">
						</path>
						<path d="M126,17.5136327 C126,12.1150762 129.805482,9 134,9 C138.194518,9 142,12.1150762 142,17.5136327 C142,22.9121893 138.187445,26 134,26 C129.812555,26 126,22.8849238 126,17.5136327 Z M137.939876,17.5136327 C137.939876,14.2690457 136.461538,12.1014435 134,12.1014435 C131.538462,12.1014435 130.05305,14.2690457 130.05305,17.5136327 C130.05305,20.7582197 131.531388,22.8985565 134,22.8985565 C136.468612,22.8985565 137.939876,20.7991179 137.939876,17.5136327 Z" id="Shape">
						</path>
						<path d="M142,10 L145.975417,10 L148.623354,18.3027754 C149.086918,19.8772077 149.578578,21.5189235 150.028095,23.1202691 L150.161545,23.1202691 C150.62511,21.5189235 151.109745,19.8772077 151.566286,18.3027754 L154.221247,10 L158,10 L152.33187,26 L147.80158,26 L142,10 Z" id="Path">
						</path>
						<path d="M159,17.5136327 C159,12.2514034 162.605871,9 166.400107,9 C170.719079,9 172.999658,12.1696071 172.999658,16.6956696 C173.004857,17.3152529 172.950785,17.9338886 172.838201,18.542903 L162.686599,18.542903 C162.996058,21.4262229 164.819175,23.0621492 167.395758,23.0621492 C168.720342,23.0427558 170.010695,22.6330023 171.109267,21.882919 L172.38074,24.2481957 C170.764137,25.3682569 168.856228,25.9778502 166.897933,26 C162.464596,26 159,22.8440257 159,17.5136327 Z M169.730156,15.9595028 C169.730156,13.4647153 168.640322,11.9446672 166.447199,11.9446672 C164.583717,11.9446672 162.942239,13.3556536 162.619325,15.9595028 L169.730156,15.9595028 Z" id="Shape">
						</path>
						<path d="M176.020492,9.4094837 L179.142077,9.4094837 L179.435792,12.3675909 L179.545082,12.3675909 C180.699454,10.2118005 182.420765,9.00483696 184.155738,9.00483696 C184.787949,8.97399988 185.418714,9.09091994 186,9.34669369 L185.31694,12.723401 C184.778005,12.5473438 184.216087,12.4556084 183.650273,12.4513109 C182.352459,12.4513109 180.788251,13.3582777 179.811475,15.8838315 L179.811475,26 L176,26 L176.020492,9.4094837 Z" id="Path">
						</path>
						<path d="M188.023663,32.6700518 L188.724803,29.707722 C189.109639,29.8361991 189.510704,29.9123411 189.91674,29.9340111 C191.669588,29.9340111 192.68624,28.7682794 193.247152,27.1293979 L193.555653,26.1076684 L187,10 L190.961437,10 L193.885188,17.9955476 C194.382997,19.4424263 194.859772,21.0538789 195.35057,22.6036162 L195.483786,22.6036162 C195.90447,21.0881651 196.325153,19.4835698 196.75986,17.9955476 L199.248904,10 L203,10 L196.970202,27.0539682 C195.567923,30.7225942 193.836109,32.9991996 190.197195,32.9991996 C189.458855,33.0106415 188.723891,32.8993426 188.023663,32.6700518 Z" id="Path">
						</path>
					</g>
				</g>
			</g>
		</g>
	</g>
</svg>
